<?xml version="1.0" standalone="no"?><!DOCTYPE svg PUBLIC "-//W3C//DTD SVG 1.1//EN" "http://www.w3.org/Graphics/SVG/1.1/DTD/svg11.dtd" ><svg xmlns="http://www.w3.org/2000/svg"><metadata></metadata><defs><font id="甜甜圈海报字体" horiz-adv-x="1000"><font-face font-family="甜甜圈海报字体" font-weight="400" font-stretch="normal" units-per-em="1000" panose-1="4 11 12 0 0 0 0 0 0 0" ascent="860" descent="-140" x-height="0" bbox="0 -140 1000 860" underline-thickness="50" underline-position="-100" unicode-range="U+0020-ffe5" /><missing-glyph horiz-adv-x="1000"  /><glyph glyph-name="" unicode="!" d="M254 597 q0 -10 -56 -405 l-64 0 l-55 405 q0 41 22 67 q22 25 65 25 q41 0 66 -25 q22 -28 22 -67 ZM243 79 q0 -31 -22 -55 q-22 -24 -54 -24 q-32 0 -55 24 q-22 22 -22 55 q0 33 22 56 q23 23 55 23 q31 0 54 -23 q22 -25 22 -56 Z" /><glyph glyph-name="" unicode="&quot;" d="M264 397 l-44 1 l-30 210 q-1 5 -1 15 q0 66 54 66 q51 0 51 -67 q0 -8 -2 -26 l-28 -199 ZM125 397 l-44 1 l-30 210 q-1 5 -1 15 q0 66 54 66 q51 0 51 -67 q0 -8 -2 -26 l-28 -199 Z" /><glyph glyph-name="" unicode="#" d="M616 420 l-86 0 l-16 -155 l73 0 l0 -109 l-86 0 l-16 -156 l-114 0 l15 156 l-92 0 l-16 -156 l-112 0 l16 156 l-84 0 l0 109 l98 0 l15 155 l-84 0 l0 108 l98 0 l17 161 l112 0 l-18 -161 l93 0 l17 161 l114 0 l-17 -161 l73 0 l0 -108 ZM415 420 l-92 0 l-15 -155 l91 0 l16 155 Z" /><glyph glyph-name="" unicode="$" d="M644 263 q0 -71 -75 -137 q-62 -53 -144 -85 l0 -120 l-64 0 l0 102 q-79 -23 -137 -23 q-85 0 -125 22 q-29 15 -29 36 q0 29 36 62 q31 26 43 26 l29 -10 q23 -10 46 -10 q58 0 137 26 l0 147 q-97 3 -136 18 q-72 27 -72 104 q0 68 72 134 q52 48 136 85 l0 94 l64 0 l0 -70 q84 25 130 25 q44 0 44 -29 q0 -16 -38 -33 q-76 -34 -136 -76 l0 -156 l43 1 q59 0 114 -36 q62 -42 62 -97 ZM361 495 q-60 -52 -60 -79 q0 -18 60 -23 l0 102 ZM492 270 q0 15 -67 24 l0 -122 q23 10 44 37 q23 31 23 61 Z" /><glyph glyph-name="" unicode="%" d="M712 206 q0 -83 -58 -144 q-56 -62 -139 -62 q-63 0 -96 40 q-31 35 -31 100 q0 33 20 76 q17 37 43 66 q72 80 127 80 q8 0 21 -9 q113 0 113 -147 ZM722 630 l-626 -626 l-58 59 l626 626 l58 -59 ZM354 532 q0 -83 -58 -144 q-58 -61 -140 -61 q-63 0 -96 40 q-30 36 -30 99 q0 33 20 76 q17 37 43 67 q72 80 127 80 q8 0 21 -9 q113 -2 113 -148 ZM603 259 q0 42 -12 42 q-19 0 -65 -82 q-28 -50 -28 -92 q0 -58 24 -58 q23 0 46 41 q17 31 25 60 q10 40 10 89 ZM245 589 q0 39 -13 39 q-18 0 -64 -82 q-28 -50 -28 -92 q0 -58 23 -58 q43 0 71 101 q11 41 11 92 Z" /><glyph glyph-name="" unicode="&amp;" d="M671 129 q-49 -131 -143 -131 q-50 0 -110 51 q-71 -49 -174 -49 q-96 0 -152 47 q-62 49 -62 142 q0 104 159 200 q-43 95 -43 144 q0 75 50 116 q45 39 117 39 q58 0 103 -37 q42 -37 42 -98 q0 -94 -130 -167 q89 -147 121 -184 q41 64 41 121 l-4 13 q-4 8 -4 14 q0 11 10 22 q9 11 24 11 q20 0 33 -15 q13 -16 13 -33 q0 -100 -58 -196 q32 -33 52 -33 q36 0 79 48 l36 -25 ZM338 562 q0 70 -28 70 q-18 0 -29 -22 q-11 -22 -11 -56 q0 -48 21 -98 q47 39 47 106 ZM358 112 q-73 84 -134 204 q-62 -56 -62 -117 q0 -48 31 -78 q30 -30 88 -30 q38 0 77 21 Z" /><glyph glyph-name="" unicode="&#39;" d="M237 595 q0 -52 -45 -97 q-17 -17 -49 -43 l-29 -22 l-27 19 l22 42 q12 23 12 30 q0 19 -35 68 q-16 20 -16 31 q0 21 44 44 q39 21 64 21 q18 0 39 -36 q20 -37 20 -57 Z" /><glyph glyph-name="" unicode="(" d="M274 -89 q-121 69 -187 183 q-68 112 -68 251 q0 137 68 251 q67 112 186 182 l41 -59 q-160 -156 -160 -374 q0 -220 160 -374 l-40 -60 Z" /><glyph glyph-name="" unicode=")" d="M314 345 q0 -136 -68 -251 q-68 -114 -187 -183 l-40 60 q160 155 160 374 q0 217 -160 374 l41 59 q118 -70 186 -182 q68 -116 68 -251 Z" /><glyph glyph-name="" unicode="*" d="M402 418 q0 -22 -13 -38 q-13 -17 -35 -17 q-30 0 -52 25 q-28 28 -60 68 q31 -95 31 -111 q0 -55 -52 -55 q-52 0 -52 55 q0 20 31 110 q-29 -34 -60 -67 q-24 -25 -52 -25 q-24 0 -35 17 q-13 14 -13 38 q0 40 53 53 q34 8 88 18 q-31 6 -88 20 q-53 12 -53 52 q0 23 13 39 q12 17 35 17 q27 0 52 -25 l60 -67 q-31 89 -31 110 q0 54 52 54 q52 0 52 -54 q0 -18 -31 -111 q41 48 60 68 q23 25 52 25 q21 0 35 -17 q13 -18 13 -39 q0 -40 -51 -52 q-67 -16 -89 -20 q49 -9 88 -18 q52 -14 52 -53 Z" /><glyph glyph-name="" unicode="+" d="M496 192 l-169 0 l0 -180 l-117 0 l0 180 l-170 0 l0 115 l170 0 l0 180 l117 0 l0 -180 l169 0 l0 -115 Z" /><glyph glyph-name="" unicode="," d="M237 75 q0 -52 -45 -97 l-49 -43 l-29 -22 l-27 19 l22 42 q12 24 12 30 q0 19 -35 68 q-16 20 -16 31 q0 21 44 44 q39 21 64 21 q18 0 39 -36 q20 -37 20 -57 Z" /><glyph glyph-name="" unicode="-" d="M291 192 l-250 0 l0 115 l250 0 l0 -115 Z" /><glyph glyph-name="" unicode="." d="M237 84 q0 -36 -24 -60 q-25 -24 -60 -24 q-36 0 -60 24 q-24 24 -24 60 q0 36 24 60 q24 24 60 24 q35 0 60 -24 q24 -25 24 -60 Z" /><glyph glyph-name="" unicode="/" d="M264 784 l-137 -879 l-113 15 l137 879 l113 -15 Z" /><glyph glyph-name="" unicode="0" d="M656 392 q0 -156 -104 -272 q-108 -120 -262 -120 q-119 0 -178 77 q-54 69 -54 188 q0 79 55 183 q54 101 134 174 q86 77 162 77 q19 0 38 -16 q112 0 166 -93 q43 -77 43 -198 ZM521 443 q0 157 -89 157 q-83 0 -158 -140 q-68 -124 -68 -220 q0 -50 25 -85 q27 -42 73 -42 q101 0 163 119 q54 99 54 211 Z" /><glyph glyph-name="" unicode="1" d="M439 512 q-3 -102 -3 -122 l2 -356 q0 -34 -44 -34 l-76 0 q-42 0 -42 35 q0 147 38 501 q-63 -9 -58 -9 q-31 0 -31 36 q0 21 12 49 q14 32 32 32 q4 0 19 -5 q10 -5 20 -5 q20 0 66 28 q47 27 52 27 q19 0 19 -22 l-6 -155 Z" /><glyph glyph-name="" unicode="2" d="M632 147 q0 -83 -134 -119 q-100 -28 -287 -28 q-58 0 -85 12 q-41 18 -41 67 q0 68 132 239 q180 233 180 246 q0 6 -7 6 q-19 0 -141 -45 q-123 -45 -133 -45 q-34 0 -34 39 q0 33 26 71 q24 38 43 38 q5 0 14 -6 q8 -6 13 -4 q184 71 280 71 q44 0 70 -29 q25 -30 25 -73 q0 -36 -71 -142 q-33 -44 -97 -132 q-17 -24 -52 -84 q-41 -70 -41 -88 q0 -9 48 -9 q61 0 158 30 q96 30 93 30 q41 0 41 -45 Z" /><glyph glyph-name="" unicode="3" d="M614 333 q0 -49 -92 -149 q-70 -74 -136 -127 q-85 -69 -118 -69 q-23 0 -68 38 q-46 36 -46 52 q0 20 22 35 q26 14 39 22 q124 78 197 135 q47 36 47 57 q0 19 -46 19 q-21 0 -111 -16 q-83 -16 -95 -16 q-35 0 -35 41 q0 22 122 120 q66 54 96 84 l-136 -20 q-82 -13 -112 -13 q-42 0 -42 25 q0 47 30 80 q24 26 39 26 q8 0 17 -9 q8 -8 21 -8 q30 0 141 24 q116 25 128 25 q38 0 68 -15 q38 -18 38 -54 q0 -26 -64 -102 l-63 -77 q0 -5 7 -5 q56 0 100 -22 q52 -28 52 -81 Z" /><glyph glyph-name="" unicode="4" d="M684 357 q0 -47 -21 -80 q-15 -22 -180 -99 q-20 -106 -20 -149 q0 -26 -28 -26 l-104 -3 q-23 0 -23 24 q0 21 13 105 q-63 -9 -118 -9 q-173 0 -173 110 q0 71 95 194 q55 71 157 163 q119 108 159 108 q21 0 21 -39 q0 -17 -73 -108 q-59 -70 -93 -112 q-22 -28 -63 -92 q-49 -74 -49 -90 q0 -10 27 -10 q37 0 137 22 q23 93 84 198 q60 104 92 104 q21 0 21 -16 q0 -31 -17 -110 l-25 -125 q23 4 93 29 q71 23 77 23 q11 0 11 -12 Z" /><glyph glyph-name="" unicode="5" d="M645 23 q-1 -23 -26 -23 l-116 1 q-22 0 -22 26 q0 10 11 69 q12 63 12 96 q0 97 -78 97 q-54 0 -179 -45 q-125 -46 -138 -46 q-16 0 -28 9 q-16 10 -16 32 q0 54 52 177 q46 110 85 171 q65 102 103 102 q23 0 23 -27 q0 -16 -3 -43 q50 0 162 22 q70 11 113 24 q11 -4 11 -23 q0 -18 -7 -38 q-9 -28 -18 -35 q-30 -25 -140 -43 l-146 -19 l-44 -138 q97 43 214 43 q41 0 86 -28 q43 -29 66 -67 q27 -46 27 -133 l-4 -161 Z" /><glyph glyph-name="" unicode="6" d="M632 300 q0 -123 -100 -212 q-101 -88 -225 -88 q-225 0 -225 197 q0 83 104 220 q82 108 171 185 q112 97 172 97 q24 0 24 -28 q0 -16 -64 -101 l-108 -139 q35 7 72 7 q67 0 120 -34 q59 -39 59 -104 ZM513 296 q0 50 -87 50 q-72 0 -117 -30 q-59 -38 -59 -143 q0 -23 22 -36 q18 -12 43 -12 q60 0 129 57 q69 56 69 114 Z" /><glyph glyph-name="" unicode="7" d="M626 675 q0 -6 -29 -88 q-92 -257 -140 -561 q-4 -26 -35 -26 q-23 0 -49 2 l-44 1 q-33 0 -33 25 q0 28 27 145 q57 252 114 383 q-147 -33 -306 -33 q-18 0 -29 11 q-14 10 -14 28 q0 32 39 68 q36 33 52 33 l17 -11 q14 -10 37 -10 q44 0 191 24 q147 23 182 23 q20 0 20 -14 Z" /><glyph glyph-name="" unicode="8" d="M627 562 q0 -17 -34 -45 q-136 -107 -182 -154 q125 -108 125 -209 q0 -80 -87 -122 q-67 -32 -159 -32 q-89 0 -140 35 q-63 41 -63 124 q0 92 133 200 q-50 43 -67 65 q-31 40 -31 86 q0 58 63 109 q54 45 119 60 q63 15 91 15 q55 0 55 -26 q0 -11 -12 -17 q-13 -7 -24 -12 q-76 -40 -121 -72 q-31 -24 -31 -54 q0 -25 66 -73 q64 53 139 93 q95 49 135 49 q25 0 25 -20 ZM383 159 q0 54 -71 113 q-74 -67 -74 -124 q0 -42 75 -42 q28 0 49 14 q21 14 21 39 Z" /><glyph glyph-name="" unicode="9" d="M608 529 q-2 -11 -4 -33 q-8 -53 -10 -83 q-6 -59 -27 -223 q-20 -140 -20 -157 q0 -33 -46 -33 l-60 0 q-46 0 -46 33 q0 54 23 157 q21 105 43 163 q-98 -64 -206 -64 q-149 0 -149 132 q0 37 39 100 q50 80 167 128 q103 40 200 40 q24 0 48 -8 q31 -12 31 -32 q0 -21 -39 -29 q-90 -20 -143 -43 q-64 -29 -130 -80 q-46 -36 -46 -73 q0 -31 57 -31 q64 0 214 83 q45 71 82 71 q22 0 22 -18 Z" /><glyph glyph-name="" unicode=":" d="M237 400 q0 -36 -24 -60 q-25 -24 -60 -24 q-35 0 -59 25 q-25 24 -25 59 q0 36 24 60 q25 25 60 25 q33 0 60 -25 q24 -25 24 -60 ZM237 84 q0 -36 -24 -60 q-25 -24 -60 -24 q-36 0 -60 24 q-24 24 -24 60 q0 36 24 60 q24 24 60 24 q35 0 60 -24 q24 -25 24 -60 Z" /><glyph glyph-name="" unicode=";" d="M237 400 q0 -36 -24 -60 q-25 -24 -60 -24 q-35 0 -59 25 q-25 24 -25 59 q0 36 24 60 q25 25 60 25 q33 0 60 -25 q24 -25 24 -60 ZM237 75 q0 -52 -45 -97 q-30 -30 -78 -66 l-27 19 q34 68 34 73 q0 19 -35 68 q-16 20 -16 31 q0 20 44 43 q42 22 64 22 q18 0 39 -36 q20 -37 20 -57 Z" /><glyph glyph-name="" unicode="&lt;" d="M501 -2 l-466 251 l466 251 l0 -129 l-227 -121 l227 -123 l0 -129 Z" /><glyph glyph-name="" unicode="=" d="M496 295 l-456 0 l0 115 l456 0 l0 -115 ZM496 89 l-456 0 l0 115 l456 0 l0 -115 Z" /><glyph glyph-name="" unicode="&gt;" d="M501 249 l-466 -251 l0 129 l227 123 l-227 121 l0 129 l466 -251 Z" /><glyph glyph-name="" unicode="?" d="M482 515 q0 -85 -101 -157 q-53 -40 -68 -63 q-23 -34 -23 -101 l-62 0 q0 88 17 136 q16 47 53 92 q51 63 51 109 q0 45 -33 72 q-34 26 -77 26 q-51 0 -89 -22 q-36 -22 -36 -51 q0 -7 19 -11 q24 -8 34 -16 q19 -19 19 -50 q0 -29 -20 -49 q-20 -19 -51 -19 q-42 0 -64 32 q-21 27 -21 66 q0 83 76 135 q66 45 148 45 q86 0 153 -45 q75 -51 75 -129 ZM332 76 q0 -30 -22 -54 q-23 -22 -54 -22 q-32 0 -54 22 q-22 22 -22 54 q0 32 22 54 q21 21 54 21 q32 0 54 -21 q22 -24 22 -54 Z" /><glyph glyph-name="" unicode="@" d="M755 293 q-38 -143 -130 -217 q-92 -76 -235 -76 q-162 0 -260 92 q-100 93 -100 252 q0 144 108 244 q109 101 262 101 q148 0 236 -77 q88 -77 88 -204 q0 -93 -69 -179 q-68 -86 -155 -86 q-58 0 -82 42 q-54 -42 -104 -42 q-52 0 -82 40 q-27 36 -27 87 q0 90 61 179 q67 97 146 97 q41 0 59 -24 l2 12 l121 0 l-69 -291 q-4 -17 16 -17 q26 0 65 55 q44 61 44 127 q0 202 -250 202 q-100 0 -170 -91 q-61 -82 -61 -175 q0 -127 65 -195 q65 -69 176 -69 q101 0 184 64 q78 58 114 149 l47 0 ZM457 457 q-7 18 -22 18 q-37 0 -73 -82 q-33 -76 -33 -130 q0 -23 20 -23 q20 0 43 22 q23 20 28 41 l37 154 Z" /><glyph glyph-name="" unicode="A" d="M741 32 q0 -31 -33 -30 l-113 3 q-30 0 -42 34 q-49 128 -71 205 q-87 -27 -222 -42 q-17 -30 -34 -88 l-28 -92 q-7 -21 -26 -19 l-121 4 q-21 0 -21 25 q0 41 60 189 q104 257 223 390 q69 78 107 78 q31 0 76 -92 q59 -124 150 -331 q95 -222 95 -234 ZM456 329 q-21 69 -60 207 q-64 -93 -99 -215 q21 -5 55 -5 q40 0 104 13 Z" /><glyph glyph-name="" unicode="B" d="M637 217 q0 -130 -228 -184 q-139 -33 -326 -33 q-48 0 -48 75 q0 228 69 423 q68 191 146 191 q17 0 17 -39 q117 39 205 39 q42 0 77 -40 q35 -41 35 -84 q0 -61 -85 -164 q138 -63 138 -184 ZM522 227 q0 52 -71 85 q-61 26 -140 29 q-24 0 -24 16 q0 9 19 27 q149 140 149 182 q0 21 -37 21 q-71 0 -178 -52 q-13 -51 -29 -199 q-15 -139 -15 -211 q0 -28 1 -33 q86 0 188 29 q137 39 137 106 Z" /><glyph glyph-name="" unicode="C" d="M655 170 q0 -60 -118 -114 q-115 -56 -264 -56 q-103 0 -169 57 q-69 60 -69 162 q0 146 87 260 q59 77 160 141 q110 69 196 69 q77 0 77 -18 q0 -16 -37 -36 q-97 -52 -131 -76 q-60 -42 -110 -110 q-84 -114 -84 -232 q0 -98 117 -98 q151 0 278 59 q56 25 52 25 q15 0 15 -33 Z" /><glyph glyph-name="" unicode="D" d="M663 431 q0 -207 -201 -329 q-169 -102 -385 -102 q-42 0 -42 92 q0 148 36 278 q60 221 162 312 q33 30 48 30 q15 0 18 -14 l-1 -25 q42 15 111 15 q110 0 182 -74 q72 -73 72 -183 ZM557 471 q0 65 -46 102 q-43 32 -109 32 q-72 0 -139 -41 q-38 -130 -43 -156 q-23 -109 -23 -297 q129 0 244 114 q116 113 116 246 Z" /><glyph glyph-name="" unicode="E" d="M682 201 q0 -21 -13 -55 q-15 -33 -116 -72 q-77 -30 -173 -51 q-101 -23 -174 -23 q-83 0 -120 23 q-51 30 -51 105 q0 133 115 414 q-55 7 -55 31 q0 31 45 64 q38 27 52 27 q1 0 17 -11 q12 -11 30 -11 q68 0 170 15 q114 16 198 38 l20 4 q13 0 13 -15 q0 -11 -10 -38 q-10 -25 -20 -35 q-32 -35 -330 -74 q-27 -67 -49 -161 q13 -4 25 -4 q82 0 254 49 l33 9 q19 0 19 -14 q0 -34 -20 -62 q-26 -38 -157 -64 q-103 -21 -178 -21 q-17 -68 -17 -124 q0 -39 45 -39 q147 0 405 102 l27 10 q15 0 15 -17 Z" /><glyph glyph-name="" unicode="F" d="M624 405 q0 -21 -20 -61 q-43 -87 -379 -87 l-26 -231 q-3 -26 -43 -26 q-13 0 -30 1 l-28 1 q-63 0 -63 25 l90 526 q-72 5 -72 28 q0 28 38 63 q40 35 60 35 q2 0 21 -13 q17 -12 25 -12 q154 0 373 53 q11 2 16 4 q15 0 15 -15 q0 5 -19 -54 q-12 -32 -102 -56 q-75 -19 -222 -39 q-12 -72 -21 -171 q118 0 250 21 q88 15 121 22 q16 -3 16 -14 Z" /><glyph glyph-name="" unicode="G" d="M727 372 q-13 -38 -72 -50 q-16 -49 -26 -143 q-9 -85 -9 -147 q0 -31 -39 -31 l-91 -1 q-22 0 -22 22 q0 31 12 82 q-97 -61 -247 -61 q-88 0 -142 51 q-56 50 -56 139 q0 138 101 251 q85 96 226 157 q111 48 183 48 q57 0 57 -23 q0 -24 -52 -52 l-75 -34 q-103 -54 -188 -144 q-101 -108 -101 -203 q0 -85 85 -85 q78 0 145 44 q69 42 105 111 q-25 0 -72 -3 q-32 -2 -56 -2 q-25 0 -45 7 q-30 11 -30 30 q0 28 28 57 q27 29 55 29 q4 -5 14 -13 q13 -13 42 -13 q67 0 214 28 q45 8 52 8 q19 0 19 -18 l-15 -41 Z" /><glyph glyph-name="" unicode="H" d="M678 692 q0 -14 -6 -103 q-13 -186 -13 -231 q0 -73 5 -166 q5 -123 5 -166 q0 -26 -36 -26 l-85 3 q-43 2 -42 27 q5 153 5 259 q-87 -16 -141 -21 q-47 -5 -151 -5 q-11 -53 -16 -237 q-1 -26 -30 -26 l-107 3 q-26 0 -26 22 q0 140 25 293 q18 119 81 237 q68 130 129 130 q14 0 14 -18 q0 -8 -9 -44 q-12 -42 -19 -78 q-21 -98 -29 -170 l134 -4 q74 0 151 13 q0 103 46 210 q47 110 101 110 q14 0 14 -12 Z" /><glyph glyph-name="" unicode="I" d="M262 671 q-6 -121 -6 -297 q0 -95 1 -170 l2 -170 q0 -30 -58 -30 l-53 -1 q-55 0 -55 29 q0 283 55 515 q15 64 44 106 q26 36 47 36 q23 0 23 -18 Z" /><glyph glyph-name="" unicode="J" d="M550 671 q0 4 -4 -26 q-5 -27 -5 -37 q-16 -253 -16 -416 q0 -116 -71 -158 q-53 -34 -179 -34 q-141 0 -210 75 q-30 32 -30 59 q0 52 43 52 q26 0 56 -22 q42 -33 69 -45 q30 -15 70 -15 q90 0 96 65 q7 102 30 308 q12 89 48 150 q38 65 85 65 q18 0 18 -21 Z" /><glyph glyph-name="" unicode="K" d="M694 96 q0 -9 -5 -16 q-40 -46 -78 -75 q-15 -10 -24 -10 q-11 0 -22 8 q-52 37 -140 109 q-129 105 -205 175 q-12 -53 -15 -85 q-15 -103 -15 -176 q0 -20 -25 -18 l-103 3 q-27 0 -27 20 q0 94 33 250 q39 180 93 276 q75 132 125 132 q15 0 15 -12 q0 -9 -6 -30 q-27 -95 -56 -241 l12 -10 q51 61 125 127 q91 82 153 107 q23 9 46 9 q24 0 24 -27 q0 -3 -43 -52 q-43 -48 -154 -194 l-34 -43 q33 -23 125 -84 l193 -126 q8 -6 8 -17 Z" /><glyph glyph-name="" unicode="L" d="M651 172 q-3 -29 -11 -42 q-22 -34 -96 -63 q-167 -67 -356 -67 q-71 0 -109 32 q-44 34 -44 103 q0 57 32 170 q57 208 165 344 q40 49 71 49 q17 0 17 -20 q0 -13 -8 -37 q-30 -87 -63 -201 q-58 -199 -58 -276 q0 -50 97 -50 q138 0 277 68 q47 22 70 34 q18 0 18 -15 l-2 -29 Z" /><glyph glyph-name="" unicode="M" d="M798 24 q0 -24 -47 -24 l-74 0 q-46 0 -52 77 q-17 174 -20 412 q-24 -48 -67 -153 l-70 -166 q-24 -56 -82 -56 q-24 0 -36 39 q-27 86 -69 303 q-32 -110 -94 -424 q-6 -32 -43 -32 l-75 0 q-39 0 -39 29 q0 63 30 172 q31 111 90 248 q65 149 116 214 q20 26 50 26 q30 0 48 -51 q33 -92 78 -272 q97 184 176 296 q20 29 54 29 q56 0 56 -158 q0 -108 57 -426 q13 -78 13 -83 Z" /><glyph glyph-name="" unicode="N" d="M792 666 q0 -2 -9 -34 q-43 -153 -83 -498 q-9 -73 -26 -98 q-19 -30 -67 -30 q-52 0 -82 31 q-21 21 -45 79 l-165 390 q-16 -45 -30 -91 q-32 -97 -88 -377 q-3 -15 -16 -28 q-11 -10 -29 -10 l-94 3 q-28 0 -28 39 q0 38 24 129 q64 244 200 449 q37 55 76 55 q31 0 62 -52 q75 -132 173 -333 q24 110 84 240 q72 159 126 159 q17 0 17 -23 Z" /><glyph glyph-name="" unicode="O" d="M725 385 q-1 -164 -144 -278 q-132 -107 -299 -107 q-104 0 -173 62 q-74 62 -74 165 q0 96 72 208 q69 107 168 178 q106 76 195 76 q13 0 27 -19 q113 -11 173 -93 q55 -74 55 -192 ZM588 452 q0 61 -32 104 q-36 45 -94 45 q-79 0 -176 -148 q-91 -139 -91 -223 q0 -53 28 -85 q29 -33 80 -33 q122 0 207 111 q78 102 78 229 Z" /><glyph glyph-name="" unicode="P" d="M618 495 q0 -106 -156 -199 q-102 -60 -249 -105 q-13 -77 -13 -159 q0 -32 -41 -32 l-85 0 q-17 0 -28 12 q-11 11 -11 29 q0 35 22 182 q25 175 56 307 q-21 -9 -36 -9 q-28 0 -28 24 q0 28 29 69 q29 40 55 40 q5 0 14 -6 q9 -6 11 -6 q20 0 96 24 q77 23 122 23 q105 0 168 -42 q74 -51 74 -152 ZM477 522 q0 34 -34 54 q-28 14 -65 14 q-30 0 -63 -10 l-60 -19 q-12 -4 -24 -77 q-12 -73 -12 -176 q21 4 73 28 q185 86 185 186 Z" /><glyph glyph-name="" unicode="Q" d="M740 407 q0 -122 -95 -253 q77 -60 77 -66 q0 -20 -39 -61 q-41 -41 -59 -41 q-10 0 -89 83 q-114 -69 -250 -69 q-107 0 -175 58 q-75 62 -75 165 q0 104 65 213 q63 108 160 178 q104 75 206 75 q17 0 38 -18 q105 -18 171 -87 q65 -71 65 -177 ZM601 423 q0 74 -38 123 q-43 52 -113 52 q-79 0 -172 -158 q-88 -146 -88 -233 q0 -101 106 -101 q84 0 162 51 q-23 34 -46 78 q-9 15 -9 36 q0 21 17 21 q36 0 113 -49 q68 71 68 180 Z" /><glyph glyph-name="" unicode="R" d="M757 90 q0 -17 -44 -53 q-51 -42 -71 -42 q-21 0 -143 106 q-50 43 -148 131 q-55 -19 -123 -35 l-28 -163 q-8 -27 -57 -26 l-79 2 q-29 0 -29 25 q0 25 21 115 q47 200 117 346 q-4 -2 -11 -2 q-28 0 -28 23 q0 33 38 83 q38 50 60 50 q5 0 15 -7 q8 -7 21 -7 q30 0 111 26 q81 27 125 27 q76 0 134 -35 q66 -42 66 -115 q0 -70 -82 -149 q-64 -61 -143 -103 q125 -94 263 -178 q15 -9 15 -19 ZM586 561 q0 15 -18 24 q-17 7 -33 7 q-35 0 -110 -25 q-69 -24 -105 -45 q-32 -95 -63 -209 q209 63 314 208 q15 21 15 40 Z" /><glyph glyph-name="" unicode="S" d="M615 258 q0 -104 -161 -188 q-134 -70 -264 -70 q-86 0 -126 22 q-29 15 -29 37 q0 29 36 62 q30 27 44 27 q2 0 25 -10 q20 -10 47 -10 q80 0 166 34 q108 42 108 104 q0 30 -208 30 q-57 0 -95 34 q-39 33 -39 88 q0 98 126 176 q89 54 213 87 q32 8 67 8 q44 0 44 -30 q0 -19 -73 -49 q-69 -28 -149 -98 q-79 -69 -79 -99 q0 -23 80 -23 q25 0 45 1 l44 1 q58 0 115 -36 q63 -42 63 -98 Z" /><glyph glyph-name="" unicode="T" d="M691 675 q0 -8 -25 -66 q-27 -56 -228 -74 q0 -53 -24 -325 q-9 -102 -9 -174 q0 -27 -15 -33 q-4 -2 -37 -2 l-81 -1 q-29 0 -29 27 q0 127 20 278 q15 123 38 226 q-15 -1 -54 0 l-54 1 q-158 0 -158 39 q0 30 33 66 q33 35 51 35 q9 0 25 -11 q13 -11 20 -13 q24 -7 87 -7 q218 0 389 42 q35 8 39 8 q12 0 12 -16 Z" /><glyph glyph-name="" unicode="U" d="M733 632 q0 -32 -14 -119 q-51 -314 -148 -414 q-50 -53 -161 -79 q-80 -20 -181 -20 q-194 0 -194 173 q0 208 177 418 q59 69 86 86 q20 12 42 12 q20 0 20 -18 q0 -52 -44 -140 q-69 -137 -86 -177 q-40 -98 -40 -192 q0 -23 30 -38 q22 -14 51 -14 q79 0 143 35 q70 37 97 102 q12 28 50 159 q39 132 52 166 q12 32 39 59 q31 31 61 31 q20 0 20 -30 Z" /><glyph glyph-name="" unicode="V" d="M679 664 q0 -20 -29 -83 q-83 -193 -213 -491 q-39 -90 -144 -90 q-145 0 -211 182 q-42 114 -42 277 q0 73 13 134 q20 96 61 96 q25 0 40 -95 q49 -315 118 -443 q6 -11 16 -11 q16 0 46 65 q41 93 81 189 q52 116 95 180 q80 115 149 115 q20 0 20 -25 Z" /><glyph glyph-name="" unicode="W" d="M769 665 q0 -6 -17 -123 l-68 -435 q-8 -44 -31 -70 q-26 -32 -69 -32 q-65 0 -110 89 q-25 48 -53 143 q-18 57 -43 147 q-14 -14 -69 -154 l-65 -169 q-25 -61 -74 -61 q-58 0 -94 82 q-36 78 -36 231 q0 217 58 337 q18 40 44 40 q21 0 21 -39 q0 -294 25 -400 q125 264 204 351 q16 16 28 16 q17 0 28 -40 q32 -129 49 -193 q29 -110 57 -191 q27 114 57 228 q35 144 73 217 q26 50 56 50 q29 0 29 -24 Z" /><glyph glyph-name="" unicode="X" d="M676 90 q0 -8 -50 -46 q-50 -38 -61 -38 q-15 0 -29 17 l-207 242 q-73 -110 -158 -248 q-11 -17 -25 -17 q-14 0 -95 57 q-21 15 -21 24 q0 15 57 102 q45 69 139 194 q-23 29 -116 134 q-76 80 -76 103 q0 21 29 21 q17 0 94 -41 q57 -32 154 -111 q110 134 229 198 q16 8 31 8 q26 0 26 -22 q0 -18 -24 -48 q-95 -125 -161 -222 q125 -112 255 -287 q9 -12 9 -20 Z" /><glyph glyph-name="" unicode="Y" d="M720 662 q0 -17 -41 -58 q-41 -41 -116 -107 q-93 -83 -117 -107 q-11 -183 -11 -367 q0 -23 -32 -23 l-105 0 q-27 0 -24 30 l28 344 l-197 177 q-75 68 -75 93 q0 16 27 25 q23 7 62 7 q28 0 193 -124 q54 -42 62 -42 q5 2 58 45 q170 134 236 134 q52 0 52 -27 Z" /><glyph glyph-name="" unicode="Z" d="M726 146 q0 -57 -30 -84 q-30 -29 -112 -41 q-144 -21 -362 -21 q-187 0 -187 108 q0 46 128 187 q88 108 223 263 q-90 -12 -183 -12 q-52 0 -70 3 q-51 6 -51 34 q0 27 39 60 q36 30 49 30 q9 0 22 -13 q11 -12 31 -12 q60 -1 181 20 q122 21 179 21 q13 0 26 -11 q12 -12 12 -25 q0 -18 -64 -91 q-192 -214 -315 -402 q-18 -27 -18 -42 q0 -16 31 -16 q162 0 306 20 q39 4 80 32 q40 28 43 28 q14 0 29 -10 q13 -11 13 -26 Z" /><glyph glyph-name="" unicode="[" d="M294 -90 l-256 0 l0 868 l256 0 l0 -115 l-142 0 l0 -638 l142 0 l0 -115 Z" /><glyph glyph-name="" unicode="\" d="M264 -80 l-113 -15 l-137 879 l113 15 l137 -879 Z" /><glyph glyph-name="" unicode="]" d="M294 -90 l-256 0 l0 115 l142 0 l0 638 l-142 0 l0 115 l256 0 l0 -868 Z" /><glyph glyph-name="" unicode="^" d="M419 400 l-93 0 l-104 191 l-104 -191 l-93 0 l152 289 l90 0 l152 -289 Z" /><glyph glyph-name="" unicode="_" d="M500 -140 l-500 0 l0 115 l500 0 l0 -115 Z" /><glyph glyph-name="" unicode="`" d="M70 529 q0 51 45 97 q16 16 49 43 l12 9 q9 8 17 13 l27 -19 l-22 -42 q-12 -24 -12 -30 q0 -23 35 -68 q16 -22 16 -31 q0 -21 -44 -44 q-40 -21 -64 -21 q-19 0 -39 36 q-20 33 -20 57 Z" /><glyph glyph-name="" unicode="a" d="M610 88 q0 -16 -14 -46 q-10 -22 -54 -33 q-33 -9 -66 -9 q-45 0 -62 10 q-26 14 -26 56 l0 23 q-84 -84 -199 -84 q-159 0 -159 151 q0 84 77 173 q63 75 150 123 q86 47 148 47 q37 0 64 -18 q30 -21 30 -58 q0 -12 -11 -23 q-12 -12 -25 -12 q-6 0 -15 6 l-13 5 q-57 0 -146 -58 q-41 -26 -81 -88 q-43 -65 -43 -110 q0 -42 43 -42 q70 0 147 95 q39 48 102 155 q9 17 33 37 q21 18 39 18 q28 0 28 -24 q0 -21 -11 -120 q-11 -88 -11 -131 q0 -45 10 -45 q14 0 34 7 q23 7 21 7 q10 0 10 -12 Z" /><glyph glyph-name="" unicode="b" d="M573 297 q0 -89 -97 -165 q-56 -44 -157 -87 q-108 -45 -173 -45 q-56 0 -76 8 q-40 13 -40 56 q0 70 32 195 q31 125 61 193 q39 92 55 121 q30 56 82 107 q26 26 55 26 q22 0 22 -23 l-13 -37 q-16 -42 -24 -66 q-27 -84 -47 -172 q96 27 172 27 q57 0 103 -40 q45 -40 45 -98 ZM436 290 q0 39 -52 39 q-38 0 -85 -18 q-46 -17 -78 -43 q-11 -42 -25 -174 q44 6 125 62 q115 79 115 134 Z" /><glyph glyph-name="" unicode="c" d="M536 174 q0 -87 -103 -135 q-81 -39 -178 -39 q-94 0 -152 34 q-73 42 -73 128 q0 111 79 200 q72 83 184 119 q54 18 114 18 q47 0 47 -40 q0 -8 -87 -52 q-75 -38 -128 -90 q-70 -67 -70 -129 q0 -87 91 -87 q78 0 140 31 q12 6 120 77 q16 0 16 -35 Z" /><glyph glyph-name="" unicode="d" d="M616 98 q0 -8 -9 -49 q-4 -21 -68 -36 q-52 -13 -95 -13 q-33 0 -54 24 q-22 24 -24 57 q-27 -29 -79 -50 q-51 -21 -93 -21 q-67 0 -112 30 q-52 34 -52 100 q0 116 89 233 q95 126 206 126 q43 0 83 -26 q11 43 57 122 q54 95 93 95 q20 0 20 -19 q0 -23 -20 -101 q-45 -174 -45 -452 q0 -12 8 -20 q7 -8 19 -8 q16 0 40 8 l27 9 q9 0 9 -9 ZM394 383 q0 12 -18 21 q-19 9 -37 9 q-60 0 -120 -93 q-55 -85 -55 -149 q0 -53 53 -53 q42 0 91 34 q47 32 65 73 q10 100 21 158 Z" /><glyph glyph-name="" unicode="e" d="M560 167 q0 10 -8 -67 q-4 -36 -115 -70 q-96 -30 -144 -30 q-263 0 -263 248 q0 99 92 176 q87 75 188 75 q90 0 158 -62 q66 -63 66 -151 q0 -24 -5 -34 q-6 -9 -25 -18 q-48 -21 -156 -33 q-87 -9 -161 -9 q9 -87 114 -87 q62 0 122 20 q40 13 87 38 q38 20 39 20 q11 0 11 -16 ZM424 320 q0 37 -46 62 q-40 20 -79 20 q-43 0 -79 -36 q-38 -38 -38 -80 q15 -5 61 -5 q43 0 90 5 q71 6 83 15 q8 6 8 19 Z" /><glyph glyph-name="" unicode="f" d="M335 649 q0 -32 -39 -40 q-19 -5 -34 -32 q-22 -39 -24 -95 l83 15 q11 0 11 -8 q0 -22 -21 -61 q-10 -18 -12 -20 q-9 -9 -27 -15 l-41 -14 q-9 -67 -9 -175 l-2 -186 q0 -17 -44 -17 l-64 -1 q-23 0 -23 20 q0 84 6 183 q6 111 12 172 q-32 0 -56 12 q-31 13 -31 40 q0 15 23 44 q24 30 35 30 q2 0 15 -16 q7 -11 28 -14 q12 99 42 147 q25 41 52 56 q26 15 71 15 q49 0 49 -40 Z" /><glyph glyph-name="" unicode="g" d="M489 226 l-18 -204 q-6 -58 -62 -88 q-47 -25 -109 -25 q-47 0 -89 18 q-54 24 -54 64 q0 31 33 31 q19 0 56 -12 q35 -13 55 -13 q37 0 52 36 q6 19 18 116 q-70 -64 -186 -64 q-55 0 -99 32 q-51 36 -51 87 q0 119 134 211 q120 84 243 84 q29 0 53 -21 q25 -22 25 -50 q0 -10 -8 -26 q-9 -15 -20 -15 q-13 0 -33 10 q-23 10 -32 10 q-50 0 -135 -68 q-88 -72 -88 -119 q0 -48 69 -48 q45 0 102 45 q49 39 77 85 q25 40 53 40 q21 0 21 -20 l-7 -96 Z" /><glyph glyph-name="" unicode="h" d="M556 26 q0 -16 -26 -21 q-21 -4 -110 -5 q-29 0 -29 63 l-7 94 q-7 87 -14 123 q-7 30 -15 42 q-12 18 -38 18 q-26 0 -57 -20 q-30 -21 -47 -47 q-12 -78 -30 -223 l-3 -26 q-5 -14 -18 -17 q-22 -7 -119 -7 q-18 0 -18 23 q0 27 7 77 q22 175 92 366 q26 74 58 129 q52 94 93 94 q16 0 16 -18 q0 -21 -15 -89 q-26 -118 -34 -164 q66 33 123 33 q56 0 94 -40 q27 -30 51 -93 q18 -51 33 -145 q13 -96 13 -147 Z" /><glyph glyph-name="" unicode="i" d="M268 643 q0 -28 -16 -50 q-18 -21 -45 -21 q-47 0 -47 44 q0 27 23 50 q23 23 49 23 q36 0 36 -46 ZM251 419 q-5 -52 -7 -102 q-6 -126 -6 -277 q0 -40 -25 -40 l-106 2 q-22 0 -24 2 q-7 3 -7 26 q0 42 18 163 q23 157 82 261 q24 45 57 45 q23 0 23 -19 l-5 -61 Z" /><glyph glyph-name="" unicode="j" d="M374 643 q0 -29 -15 -49 q-16 -23 -44 -23 q-47 0 -47 45 q0 28 21 50 q21 23 49 23 q36 0 36 -46 ZM362 439 q-5 -28 -7 -58 q-3 -23 -1 -86 l3 -250 q0 -88 -38 -129 q-42 -44 -132 -44 q-64 0 -107 26 q-50 32 -50 95 q0 15 12 25 q13 10 26 10 q13 0 37 -22 q21 -23 53 -23 q34 0 48 32 q11 26 12 87 l3 164 q0 72 12 111 q15 53 56 96 q24 26 46 26 q31 0 31 -27 l-4 -33 Z" /><glyph glyph-name="" unicode="k" d="M530 97 q0 -10 -14 -26 q-22 -27 -57 -56 q-8 -8 -20 -8 q-11 0 -64 38 l-183 126 q-3 -10 -3 -32 l-7 -109 q-5 -28 -37 -28 l-80 -2 q-35 0 -35 34 q0 82 15 202 q12 92 30 160 q78 293 164 293 q16 0 16 -27 q0 -15 -13 -85 q-31 -154 -39 -225 q171 136 247 136 q51 0 51 -23 q0 -6 -49 -52 l-94 -87 q-48 -45 -68 -72 l228 -135 q12 -7 12 -22 Z" /><glyph glyph-name="" unicode="l" d="M254 651 q-4 -112 -4 -253 l1 -369 q0 -20 -19 -26 q-9 -3 -36 -3 l-67 0 q-39 0 -39 29 l0 49 q0 129 12 250 q15 157 48 250 q39 111 88 111 q16 0 16 -38 Z" /><glyph glyph-name="" unicode="m" d="M782 30 q0 -30 -56 -30 l-55 0 q-36 0 -47 8 q-15 9 -15 43 l1 258 q0 42 -10 62 q-15 24 -55 24 q-71 0 -71 -160 q0 -44 5 -100 q5 -77 5 -100 q0 -35 -69 -35 q-44 0 -56 3 q-22 3 -22 21 q0 53 7 144 q6 96 6 144 q0 60 -31 60 q-33 0 -65 -32 q-33 -33 -36 -66 q-5 -13 -8 -104 q-4 -75 -4 -136 q0 -25 -30 -31 q-16 -3 -73 -3 q-42 0 -53 4 q-20 6 -20 24 q0 79 33 194 q29 106 70 181 q46 82 90 82 q15 0 15 -25 l0 -17 q67 56 142 56 q56 0 91 -49 q58 44 124 44 q103 0 150 -140 q37 -116 37 -324 Z" /><glyph glyph-name="" unicode="n" d="M579 38 q0 -37 -72 -37 l-62 1 q-36 0 -36 44 q0 14 1 30 l1 30 q1 112 -14 200 q-15 78 -63 78 q-40 0 -75 -30 q-35 -29 -41 -68 q-25 -151 -25 -255 q0 -21 -25 -26 q-22 -5 -87 -5 q-51 0 -51 29 q0 73 28 186 q29 119 63 176 q22 38 51 67 q39 41 69 41 q18 0 21 -39 q39 30 111 30 q110 0 163 -170 q43 -144 43 -282 Z" /><glyph glyph-name="" unicode="o" d="M552 309 q0 -132 -92 -221 q-92 -88 -226 -88 q-204 0 -204 185 q0 112 118 224 q111 105 199 105 q7 0 13 -6 q3 -5 5 -7 q187 -33 187 -192 ZM420 272 q12 35 12 66 q0 91 -93 91 q-26 -9 -69 -53 q-107 -111 -107 -209 q0 -31 19 -51 q19 -20 50 -20 q128 0 188 176 Z" /><glyph glyph-name="" unicode="p" d="M508 358 q0 -98 -108 -176 q-99 -73 -202 -75 q-7 -45 -7 -167 q0 -24 -29 -30 l-88 -1 q-25 0 -31 3 q-13 6 -13 27 q0 58 11 129 q9 65 57 289 q-37 4 -37 27 q0 33 32 65 q27 29 42 29 q7 0 19 -6 q11 -7 18 -7 q10 0 78 17 q73 17 115 17 q55 0 100 -43 q43 -43 43 -98 ZM385 364 q0 40 -62 40 q-27 0 -96 -23 q-12 -48 -21 -147 l-2 -25 q41 6 109 60 q72 57 72 95 Z" /><glyph glyph-name="" unicode="q" d="M494 347 q-14 -97 -17 -137 q-11 -106 -11 -271 q0 -30 -29 -30 l-103 2 q-22 0 -22 22 q0 78 22 209 q-52 -31 -83 -41 q-39 -13 -92 -13 q-53 0 -89 30 q-40 33 -40 83 q0 62 43 124 q41 57 110 101 q53 33 112 53 q58 20 94 20 q54 0 87 -42 q6 6 12 6 q17 0 17 -31 l-11 -85 ZM415 401 q-7 6 -33 6 q-83 0 -153 -59 q-78 -67 -78 -117 q0 -17 11 -25 q8 -11 23 -11 q108 0 175 77 q23 73 55 129 Z" /><glyph glyph-name="" unicode="r" d="M347 391 q0 -14 -13 -29 q-12 -13 -27 -13 q-12 0 -24 8 q-16 8 -23 8 q-21 0 -49 -49 l-21 -41 q-14 -27 -20 -40 q-5 -20 -7 -47 q-1 -8 -1 -154 q0 -24 -10 -29 q-10 -5 -51 -5 q-46 0 -56 5 q-15 6 -15 35 l9 135 q12 207 66 285 q27 39 44 39 q16 0 16 -16 l0 -80 q54 65 109 65 q32 0 54 -22 q19 -22 19 -55 Z" /><glyph glyph-name="" unicode="s" d="M471 181 q0 -104 -128 -149 q-84 -32 -212 -32 q-96 0 -96 48 q0 23 24 50 q24 26 47 26 q6 0 32 -8 q22 -7 36 -7 q38 0 100 22 q74 24 74 53 q0 24 -63 30 l-80 1 q-117 0 -117 96 q0 65 106 132 q102 64 183 64 q50 0 50 -32 q0 -12 -29 -27 q-73 -40 -124 -83 q-41 -35 -41 -50 q0 -6 53 -12 q44 -6 66 -8 q119 -18 119 -114 Z" /><glyph glyph-name="" unicode="t" d="M558 487 q0 -14 -24 -55 q-15 -24 -76 -39 q-35 -10 -129 -23 q-17 -41 -29 -117 q-11 -66 -11 -119 q0 -15 12 -24 q11 -10 30 -10 q60 0 132 26 l74 27 q16 0 16 -12 q0 7 -13 -60 q-7 -31 -98 -58 q-75 -23 -124 -23 q-75 0 -126 32 q-62 38 -62 107 q0 111 38 225 q-106 0 -135 20 q-13 9 -13 24 q0 28 38 62 q25 22 48 22 q4 0 17 -12 q12 -13 46 -13 l32 0 q118 211 175 211 q4 0 11 -7 q7 -9 7 -13 q0 -8 -13 -58 q-27 -95 -33 -128 q41 0 91 11 q107 23 101 23 q18 0 18 -19 Z" /><glyph glyph-name="" unicode="u" d="M619 51 q0 -20 -36 -29 q-36 -9 -75 -9 q-56 0 -56 135 q-63 -81 -102 -108 q-56 -40 -142 -40 q-183 0 -183 189 q0 97 59 205 q57 105 100 105 q28 0 28 -30 q0 8 -28 -120 q-21 -93 -21 -148 q0 -100 54 -100 q83 0 141 89 q75 114 87 177 q6 38 10 57 q6 33 18 54 q12 21 35 21 q29 0 43 -98 q10 -82 37 -226 q31 -133 31 -124 Z" /><glyph glyph-name="" unicode="v" d="M508 473 q0 -5 -20 -53 l-124 -284 q-31 -72 -48 -93 q-34 -43 -90 -43 q-88 0 -142 102 q-54 102 -54 225 q0 77 14 125 q12 47 38 47 q28 0 46 -80 l24 -110 q15 -63 33 -108 q30 -78 41 -78 q-2 0 40 98 q48 113 91 175 q66 96 132 96 q19 0 19 -19 Z" /><glyph glyph-name="" unicode="w" d="M607 467 q0 -24 -23 -171 q-10 -58 -37 -225 q-6 -30 -30 -51 q-23 -20 -55 -20 q-75 0 -101 90 l-53 183 q-21 -79 -81 -212 q-25 -57 -75 -57 q-72 0 -102 90 q-20 56 -20 146 q0 54 21 145 q24 114 59 114 q21 0 24 -56 q6 -147 24 -243 q52 125 94 195 q31 49 72 49 q41 0 62 -64 l55 -185 q32 140 48 180 q45 118 102 118 q16 0 16 -26 Z" /><glyph glyph-name="" unicode="x" d="M520 98 q0 -10 -12 -24 q-9 -12 -68 -56 q-21 -15 -37 -15 q-3 0 -81 99 l-66 83 l-113 -179 q-4 -6 -19 -6 q-17 0 -50 24 q-28 20 -43 38 q-6 6 -6 21 q0 22 140 201 q-31 40 -95 111 q-42 45 -42 64 q0 9 8 17 q9 7 17 7 q37 0 191 -115 q39 44 92 84 q68 53 106 53 q22 0 22 -24 q0 -7 -13 -23 l-118 -160 q187 -169 187 -200 Z" /><glyph glyph-name="" unicode="y" d="M564 467 q0 -8 -56 -106 q-48 -93 -144 -273 q-98 -182 -230 -182 q-42 0 -72 18 q-37 22 -37 60 q0 13 10 24 q10 10 23 10 q9 0 36 -10 q24 -9 33 -9 q48 0 86 50 q30 39 47 94 l-88 114 q-48 64 -100 128 q-28 29 -28 54 q0 14 20 24 q16 8 31 8 q30 0 54 -15 q29 -19 116 -118 q36 -42 54 -60 l60 104 q38 57 82 88 q41 29 74 29 q29 0 29 -32 Z" /><glyph glyph-name="" unicode="z" d="M561 87 q0 -23 -26 -44 q-50 -43 -251 -43 l-162 0 q-92 0 -92 50 q0 45 65 128 q57 72 197 216 q-57 -5 -110 -5 q-105 0 -105 31 q0 19 26 48 q24 30 45 30 q8 -4 25 -10 q23 -10 60 -10 q43 0 114 10 q79 11 89 11 q50 0 50 -32 q0 -22 -61 -89 q-93 -102 -162 -195 q-57 -78 -57 -90 q0 -10 90 -10 q82 0 151 13 q12 2 45 16 q30 12 40 12 q29 0 29 -37 Z" /><glyph glyph-name="" unicode="{" d="M234 -76 q-81 14 -114 52 q-35 38 -35 117 l0 187 q0 30 -55 30 l0 69 q55 0 55 29 l0 188 q0 78 35 117 q33 40 114 53 l0 -74 q-21 -6 -30 -16 q-7 -10 -7 -28 l0 -228 q0 -43 -23 -75 q23 -34 23 -77 l0 -226 q0 -36 37 -45 l0 -73 Z" /><glyph glyph-name="" unicode="|" d="M165 -140 l-115 0 l0 1000 l115 0 l0 -1000 Z" /><glyph glyph-name="" unicode="}" d="M234 310 q-55 0 -55 -30 l0 -187 q0 -77 -34 -117 q-36 -39 -115 -52 l0 73 q37 9 37 45 l0 226 q0 45 23 77 q-23 30 -23 75 l0 228 q0 33 -37 44 l0 74 q78 -13 115 -53 q34 -42 34 -117 l0 -188 q0 -29 55 -29 l0 -69 Z" /><glyph glyph-name="" unicode="~" d="M490 413 q-24 -72 -44 -103 q-35 -56 -90 -56 q-31 0 -55 12 q-7 3 -46 31 l-59 43 q-37 24 -67 24 q-48 0 -86 -78 l-23 14 q22 68 44 103 q36 56 90 56 q46 0 116 -55 q68 -55 111 -55 q47 0 86 78 l23 -14 Z" /><glyph glyph-name="" unicode="&#x3001;" d="M392 55 q0 -9 -20 -23 q-18 -13 -46 -27 q-36 -18 -47 -18 q-14 0 -20 12 q-72 121 -125 193 q-25 32 -25 50 q0 13 12 13 q36 0 84 -25 q82 -45 154 -125 q33 -37 33 -50 Z" /><glyph glyph-name="" unicode="&#x3002;" d="M391 128 q0 -57 -42 -99 q-42 -42 -99 -42 q-57 0 -99 42 q-42 42 -42 99 q0 57 42 99 q42 42 99 42 q57 0 99 -42 q42 -42 42 -99 ZM327 128 q0 31 -23 54 q-23 23 -54 23 q-33 0 -54 -23 q-23 -22 -23 -54 q0 -34 23 -54 q20 -23 54 -23 q32 0 54 23 q23 21 23 54 Z" /><glyph glyph-name="" unicode="&#x30fb;" d="M611 360 q0 -45 -33 -78 q-33 -33 -78 -33 q-48 0 -79 32 q-32 31 -32 79 q0 49 31 80 q31 31 80 31 q46 0 80 -31 q31 -34 31 -80 Z" /><glyph glyph-name="" unicode="&#x2014;" d="M1000 302 l-1000 0 l0 116 l1000 0 l0 -116 Z" /><glyph glyph-name="" unicode="&#x2026;&#x22ef;" d="M917 360 q0 -35 -25 -60 q-24 -24 -59 -24 q-35 0 -59 24 q-25 24 -25 60 q0 35 25 60 q24 24 59 24 q35 0 59 -24 q25 -27 25 -60 ZM584 360 q0 -36 -24 -60 q-25 -24 -60 -24 q-36 0 -60 24 q-24 24 -24 60 q0 35 24 60 q24 24 60 24 q35 0 60 -24 q24 -25 24 -60 ZM251 360 q0 -35 -25 -60 q-24 -24 -59 -24 q-35 0 -59 24 q-25 24 -25 60 q0 35 25 60 q24 24 59 24 q35 0 59 -24 q25 -27 25 -60 Z" /><glyph glyph-name="" unicode="&#x201c;" d="M933 669 q0 -20 -45 -44 q-40 -21 -63 -21 q-20 0 -41 37 q-18 33 -18 56 q0 47 41 94 q24 27 81 69 l27 -19 q-33 -57 -33 -73 q0 -19 26 -54 q25 -37 25 -45 ZM735 669 q0 -20 -45 -44 q-40 -21 -63 -21 q-20 0 -41 37 q-18 33 -18 56 q0 47 41 94 q24 27 81 69 l27 -19 q-33 -57 -33 -73 q0 -19 26 -54 q25 -37 25 -45 Z" /><glyph glyph-name="" unicode="&#x201d;" d="M433 747 q0 -47 -42 -94 q-25 -27 -81 -69 l-27 19 q34 59 34 73 q0 17 -25 54 q-26 35 -26 45 q0 21 44 44 q39 21 64 21 q18 0 39 -36 q20 -37 20 -57 ZM235 747 q0 -47 -42 -94 q-24 -27 -80 -69 l-27 19 q33 57 33 73 q0 17 -25 54 q-26 35 -26 45 q0 21 44 44 q39 21 64 21 q18 0 39 -36 q20 -37 20 -57 Z" /><glyph glyph-name="" unicode="&#x300a;" d="M987 -63 l-101 -57 l-214 480 l214 480 l101 -54 l-195 -426 l195 -423 ZM827 786 l-194 -426 l193 -423 l-99 -57 l-214 480 l214 480 l100 -54 Z" /><glyph glyph-name="" unicode="&#x300b;" d="M487 360 l-214 -480 l-99 57 l193 423 l-194 426 l100 54 l214 -480 ZM328 360 l-214 -480 l-101 57 l195 423 l-195 426 l101 54 l214 -480 Z" /><glyph glyph-name="" unicode="&#x300c;" d="M913 707 l-203 0 l0 -827 l-122 0 l0 960 l325 0 l0 -133 Z" /><glyph glyph-name="" unicode="&#x300d;" d="M413 -120 l-325 0 l0 133 l203 0 l0 827 l122 0 l0 -960 Z" /><glyph glyph-name="" unicode="&#x3010;" d="M590 -120 l0 960 l320 0 q-171 -177 -171 -479 q0 -301 171 -481 l-320 0 Z" /><glyph glyph-name="" unicode="&#x3011;" d="M410 -120 l-320 0 q171 180 171 481 q0 302 -171 479 l320 0 l0 -960 Z" /><glyph glyph-name="" unicode="&#x2220;" d="M880 610 l-484 -461 l450 0 l0 -114 l-726 0 l678 650 l82 -75 Z" /><glyph glyph-name="" unicode="&#x2192;" d="M976 360 l-359 -230 l94 175 l-687 0 l0 110 l687 0 l-94 175 l359 -230 Z" /><glyph glyph-name="" unicode="&#x2161;" d="M738 746 q-7 -105 -7 -333 q0 -107 2 -191 l2 -192 q0 -30 -63 -30 l-62 0 q-59 0 -59 28 q0 189 23 366 q30 245 91 328 q29 39 51 39 q22 0 22 -15 ZM449 746 q-1 -52 -3 -101 q-4 -104 -4 -232 q0 -107 2 -191 l2 -192 q0 -30 -63 -30 l-62 0 q-59 0 -59 28 q0 189 23 366 q30 245 91 328 q29 39 51 39 q22 0 22 -15 Z" /><glyph glyph-name="" unicode="&#x2162;" d="M826 746 q-7 -105 -7 -333 q0 -107 2 -191 l2 -192 q0 -30 -63 -30 l-62 0 q-59 0 -59 28 q0 189 23 366 q30 245 91 328 q29 39 51 39 q22 0 22 -15 ZM593 746 q-7 -105 -7 -333 q0 -107 2 -191 l2 -192 q0 -30 -63 -30 l-62 0 q-59 0 -59 28 q0 189 23 366 q30 245 91 328 q29 39 51 39 q22 0 22 -15 ZM361 746 q-7 -105 -7 -333 q0 -107 2 -191 l2 -192 q0 -30 -63 -30 l-62 0 q-59 0 -59 28 q0 189 23 366 q30 245 91 328 q29 39 51 39 q22 0 22 -15 Z" /><glyph glyph-name="" unicode="&#xff01;" d="M256 648 q0 -12 -59 -460 l-59 0 l-58 460 q0 44 22 72 q23 27 66 27 q43 0 67 -29 q21 -27 21 -70 ZM253 57 q0 -35 -25 -60 q-27 -25 -60 -25 q-34 0 -59 25 q-25 24 -25 60 q0 36 24 60 q24 24 60 24 q33 0 60 -25 q25 -25 25 -59 Z" /><glyph glyph-name="" unicode="&#xffe5;" d="M883 728 q0 -23 -44 -81 q-61 -80 -265 -341 l279 0 l0 -63 l-282 0 q-3 -87 -3 -214 q0 -29 -32 -29 l-116 0 q-22 0 -22 40 q0 11 21 203 l-281 0 l0 63 l264 0 l-203 266 q-82 103 -82 134 q0 42 90 42 q29 0 95 -86 q55 -73 119 -154 q66 -88 72 -88 q17 24 84 112 q87 108 131 152 q78 78 121 78 q54 0 54 -34 Z" /><glyph glyph-name="" unicode="&#xff08;" d="M872 -120 q-133 75 -208 202 q-77 124 -77 278 q0 151 77 278 q74 126 208 202 l41 -59 q-181 -174 -181 -421 q0 -247 181 -419 l-41 -61 Z" /><glyph glyph-name="" unicode="&#xff09;" d="M413 360 q0 -151 -77 -278 q-78 -128 -208 -202 l-41 61 q181 173 181 419 q0 246 -181 421 l41 59 q132 -75 208 -202 q77 -130 77 -278 Z" /><glyph glyph-name="" unicode="&#xff0c;" d="M334 71 q0 -47 -42 -94 q-25 -27 -81 -69 l-27 19 q34 62 34 73 q0 17 -26 54 q-25 35 -25 45 q0 21 44 44 q41 21 64 21 q18 0 39 -36 q20 -37 20 -57 Z" /><glyph glyph-name="" unicode="&#xff0f;" d="M733 777 l-368 -878 l-98 45 l369 877 l97 -44 Z" /><glyph glyph-name="" unicode="&#xff1a;" d="M334 450 q0 -36 -24 -60 q-25 -24 -60 -24 q-36 0 -60 24 q-24 24 -24 60 q0 35 24 60 q24 24 60 24 q35 0 60 -24 q24 -25 24 -60 ZM334 84 q0 -36 -24 -60 q-25 -24 -60 -24 q-36 0 -60 24 q-24 24 -24 60 q0 35 24 60 q24 24 60 24 q35 0 60 -24 q24 -25 24 -60 Z" /><glyph glyph-name="" unicode="&#xff1b;" d="M334 450 q0 -36 -24 -60 q-25 -24 -60 -24 q-36 0 -60 24 q-24 24 -24 60 q0 35 24 60 q24 24 60 24 q35 0 60 -24 q24 -25 24 -60 ZM334 75 q0 -47 -42 -94 q-24 -27 -81 -69 l-27 19 q34 68 34 73 q0 17 -26 54 q-25 35 -25 45 q0 21 44 44 q39 21 64 21 q18 0 39 -36 q20 -37 20 -57 Z" /><glyph glyph-name="" unicode="&#xff1f;" d="M476 568 q0 -72 -50 -127 l-92 -91 q-50 -60 -50 -148 l-61 0 q0 99 31 179 q14 36 58 112 q31 56 31 93 q0 50 -33 80 q-34 29 -77 29 q-50 0 -89 -25 q-37 -24 -37 -57 q0 -8 19 -12 q22 -7 34 -17 q19 -19 19 -55 q0 -32 -20 -54 q-21 -22 -50 -22 q-41 0 -64 36 q-21 30 -21 73 q0 92 76 150 q67 50 148 50 q86 0 153 -51 q75 -57 75 -143 ZM335 71 q0 -34 -25 -59 q-27 -25 -60 -25 q-35 0 -60 25 q-24 24 -24 59 q0 36 24 60 q24 24 60 24 q33 0 60 -25 q25 -25 25 -59 Z" /><glyph glyph-name="" unicode="&#xffe3;" d="M1000 744 l-1000 0 l0 116 l1000 0 l0 -116 Z" /><glyph glyph-name="" unicode="&#x3044;" d="M899 153 q0 -34 -126 -34 q-15 0 -20 6 q-6 6 -9 22 q-45 177 -98 353 q-32 102 -32 109 q0 16 18 16 q59 0 140 -140 q52 -92 91 -197 q36 -99 36 -135 ZM501 189 q0 -50 -60 -128 q-75 -98 -168 -98 q-87 0 -117 144 q-15 74 -15 213 q0 134 11 204 q18 113 66 191 q22 34 41 34 q19 0 19 -33 q0 6 -7 -78 q-11 -104 -11 -165 q0 -117 8 -198 q14 -159 46 -159 q28 0 74 63 l58 89 q15 23 23 23 q6 0 12 -27 q1 -8 12 -37 q8 -26 8 -38 Z" /><glyph glyph-name="" unicode="&#x3057;" d="M911 122 q0 -102 -193 -143 q-114 -24 -273 -24 q-117 0 -182 60 q-68 62 -68 179 q0 115 54 286 q58 183 131 253 q28 25 49 25 q19 0 19 -22 q0 -3 -31 -121 q-13 -49 -36 -147 q-32 -148 -32 -288 q0 -114 155 -114 q57 0 141 13 q97 13 133 32 q2 0 50 33 q34 23 48 23 q35 0 35 -45 Z" /><glyph glyph-name="" unicode="&#x3059;" d="M883 739 q0 -6 -19 -61 q-21 -60 -285 -117 q16 -66 38 -120 q83 -19 132 -71 q51 -57 51 -139 q0 -143 -167 -236 q-143 -80 -297 -80 q-84 0 -84 37 q0 33 21 64 q22 31 36 31 l33 -7 q24 -8 42 -8 q106 0 203 66 q107 72 107 174 q0 24 -15 48 q-14 22 -38 28 q4 -20 4 -31 q0 -88 -90 -133 q-72 -36 -168 -36 q-76 0 -132 33 q-68 38 -68 110 q0 90 102 132 q73 29 181 29 l-21 87 q-171 -28 -296 -28 q-81 0 -81 41 q0 24 42 63 q42 39 68 39 q10 0 22 -14 q12 -13 19 -13 q73 0 214 28 q12 81 51 120 q19 19 34 19 q25 0 34 -118 q157 24 277 70 q28 10 35 10 q15 0 15 -17 ZM499 325 q0 21 -7 49 q-18 4 -31 4 q-35 0 -87 -20 q-62 -24 -62 -53 q0 -34 37 -49 q27 -12 65 -12 q38 0 61 22 q24 21 24 59 Z" /><glyph glyph-name="" unicode="&#x3066;" d="M935 71 q0 -10 -26 -73 q-15 -36 -49 -48 q-24 -8 -72 -8 q-181 0 -305 49 q-173 69 -173 225 q0 93 63 199 q40 66 127 172 q-132 -40 -174 -51 q-108 -28 -176 -28 q-77 0 -77 42 q0 36 31 76 q30 41 53 41 q5 0 23 -13 q14 -14 28 -14 q51 0 195 40 l230 65 q83 24 88 24 q17 0 33 -11 q13 -13 13 -31 q0 -24 -19 -49 q-20 -27 -75 -74 q-57 -47 -79 -72 q-55 -64 -95 -144 q-46 -93 -46 -163 q0 -95 104 -131 q62 -22 183 -22 q52 0 106 6 q37 2 75 10 q14 0 14 -17 Z" /><glyph glyph-name="" unicode="&#x3067;" d="M901 531 q0 -9 -19 -31 q-18 -21 -28 -21 q-3 0 -81 79 q-19 18 -19 24 q0 9 29 9 q21 0 68 -19 q50 -23 50 -41 ZM816 451 q0 -10 -18 -31 q-19 -21 -29 -21 q-3 0 -81 79 q-19 18 -19 24 q0 9 29 9 q21 0 68 -19 q50 -23 50 -41 ZM935 71 q0 -10 -26 -73 q-15 -36 -49 -48 q-24 -8 -72 -8 q-181 0 -305 49 q-173 69 -173 225 q0 93 63 199 q40 66 127 172 q-132 -40 -174 -51 q-108 -28 -176 -28 q-77 0 -77 42 q0 36 31 76 q30 41 53 41 q5 0 23 -13 q14 -14 28 -14 q51 0 195 40 l230 65 q83 24 88 24 q17 0 33 -11 q13 -13 13 -31 q0 -24 -19 -49 q-20 -27 -75 -74 q-57 -47 -79 -72 q-55 -64 -95 -144 q-46 -93 -46 -163 q0 -95 104 -131 q62 -22 183 -22 q52 0 106 6 q35 2 75 10 q14 0 14 -17 Z" /><glyph glyph-name="" unicode="&#x306e;" d="M835 314 q0 -64 -25 -159 q-25 -91 -60 -146 q-15 -21 -27 -21 q-11 0 -70 34 q-58 34 -58 45 q0 -2 53 113 q53 115 53 169 q0 195 -213 195 q-117 0 -194 -84 q-77 -83 -77 -203 q0 -26 12 -46 q15 -24 39 -24 q42 0 106 81 l84 118 q33 45 55 45 q30 0 30 -49 q0 -122 -73 -216 q-78 -99 -198 -99 q-173 0 -173 214 q0 147 133 264 q128 113 278 113 q148 0 238 -99 q87 -96 87 -245 Z" /><glyph glyph-name="" unicode="&#x306f;" d="M956 265 q0 -16 -36 -55 q-36 -40 -52 -40 q-11 0 -50 24 q-41 25 -54 29 q12 -36 12 -79 q0 -195 -197 -195 q-94 0 -149 44 q-59 47 -59 140 q0 80 75 143 q64 52 152 70 l-26 107 q-87 -18 -153 -18 q-66 0 -86 8 q-26 9 -26 34 q0 22 31 59 q30 36 52 36 q6 0 18 -12 q12 -13 30 -13 q32 0 115 14 l-4 39 q-2 16 -2 40 q0 52 12 91 q18 56 58 56 q23 0 33 -63 q6 -45 24 -136 q83 15 184 60 q38 16 43 16 q12 0 12 -12 q0 2 -10 -36 q-17 -58 -85 -92 q-34 -18 -123 -43 l37 -125 q88 -9 154 -38 q70 -30 70 -53 ZM292 687 q-51 -378 -51 -537 l1 -148 q0 -18 -2 -26 q-5 -10 -21 -14 q-13 -3 -123 -3 q-22 0 -22 26 q0 478 132 703 q44 74 74 74 q19 0 19 -19 l-7 -56 ZM635 171 q0 34 -11 69 q-46 0 -85 -27 q-45 -30 -45 -73 q0 -30 20 -50 q17 -23 46 -23 q47 0 63 30 q12 21 12 74 Z" /><glyph glyph-name="" unicode="&#x307e;" d="M899 42 q0 -10 -15 -30 q-54 -72 -70 -72 q-11 0 -38 21 q-16 14 -48 40 l-49 40 q-55 42 -107 64 q-9 -74 -70 -118 q-57 -42 -134 -42 q-81 0 -133 35 q-62 38 -62 117 q0 164 243 164 l3 64 q-81 -9 -158 -9 q-203 0 -203 50 q0 21 32 56 q32 34 51 34 l22 -14 q19 -13 35 -13 q120 0 223 17 l7 108 q-150 -12 -184 -12 q-131 0 -131 36 q0 34 29 66 q31 34 48 34 q6 0 19 -12 q12 -12 24 -12 q103 0 211 24 q6 33 44 67 q33 28 49 28 q23 0 23 -64 l-1 -15 q50 7 165 31 q3 0 22 6 q15 5 21 5 q11 0 11 -11 q0 -6 -9 -27 l-13 -28 q-21 -54 -203 -93 q0 -70 2 -111 q122 12 225 49 q22 8 27 8 q10 0 10 -17 l-25 -60 q-24 -59 -232 -100 l3 -101 q117 -26 271 -136 q65 -48 65 -67 ZM425 113 q0 10 -5 27 q-19 21 -52 21 q-26 0 -48 -17 q-20 -17 -20 -45 q0 -47 56 -47 q28 0 48 17 q21 17 21 44 Z" /><glyph glyph-name="" unicode="&#x30d6;" d="M997 797 q0 -9 -19 -31 q-18 -21 -28 -21 q-3 0 -81 79 q-19 18 -19 24 q0 9 29 9 q41 0 99 -36 q19 -13 19 -24 ZM912 717 q0 -10 -18 -31 q-19 -21 -29 -21 q-3 0 -81 79 q-19 18 -19 24 q0 9 29 9 q41 0 99 -36 q19 -13 19 -24 ZM851 635 q0 -88 -110 -335 l-157 -334 q-11 -23 -28 -23 q-15 0 -78 29 q-63 30 -63 43 q0 14 36 81 q72 132 213 402 q49 100 49 109 q0 15 -16 15 q-17 0 -164 -41 l-184 -51 q-132 -33 -161 -33 q-75 0 -75 34 q0 32 20 69 q23 44 50 44 q4 0 19 -10 q12 -11 21 -11 q28 0 122 27 l180 51 q116 29 183 29 q53 0 94 -19 q49 -26 49 -76 Z" /><glyph glyph-name="" unicode="&#x437;" d="M708 166 q0 -85 -68 -130 q-58 -37 -143 -37 q-85 0 -141 40 q-56 38 -56 102 q0 37 18 59 q18 23 49 23 q29 0 47 -18 q17 -19 17 -43 q0 -21 -17 -41 q-17 -20 -17 -26 q0 -34 78 -34 q49 0 75 29 q28 30 28 76 q0 54 -36 78 q-38 22 -122 22 l0 41 q75 0 103 22 q23 18 23 67 q0 75 -66 75 q-81 0 -148 -124 l-40 19 l61 161 q19 -26 48 -26 q7 0 37 13 q32 12 62 12 q69 0 118 -34 q53 -38 53 -103 q0 -32 -26 -63 q-24 -27 -56 -36 q40 -8 75 -37 q44 -39 44 -87 Z" /><glyph glyph-name="" unicode="&#x3112;" d="M859 647 q0 -24 -40 -24 q-21 0 -43 1 l-43 1 q-16 0 -127 -13 q5 -20 5 -22 q0 -9 -9 -24 q-8 -13 -8 -38 l1 -243 q0 -55 1 -98 l1 -97 q0 -35 -12 -64 q-18 -37 -47 -37 q-21 0 -51 57 q-29 52 -29 78 q0 23 6 71 q6 47 6 71 q0 54 1 100 l1 101 q0 79 -12 124 q-86 -15 -142 -33 q-50 -17 -58 -17 q-30 0 -77 35 q-48 33 -48 60 q0 21 22 21 q7 0 37 -3 q24 -4 37 -4 q8 0 455 74 l34 8 q25 5 32 5 q33 0 70 -29 q37 -29 37 -61 Z" /><glyph glyph-name="" unicode="&#x2500;" d="M1000 324 l-1000 0 l0 71 l1000 0 l0 -71 Z" /><glyph glyph-name="" unicode="&#x554a;" d="M521 780 q62 -11 62 -59 q-3 -43 -85 -278 q30 -58 50 -106 q9 44 27 86 q47 103 87 125 q19 0 19 -16 q9 3 15 3 q83 0 83 -85 l-1 -264 q0 -14 -18 -14 q-11 -2 -74 -2 q-12 0 -12 13 l1 14 q-32 -11 -61 -12 q-27 0 -42 8 q-17 -46 -73 -52 q-32 0 -74 6 q2 -118 7 -209 q0 -18 -21 -18 l-89 0 q-20 0 -20 20 q0 64 4 200 l-77 0 q-13 0 -13 16 l0 10 q-38 -19 -76 -22 q-88 0 -97 57 q0 120 41 242 q54 138 99 168 q23 0 23 -21 l-2 -10 q19 8 35 8 q39 -2 59 -41 q10 -46 19 -167 q8 137 21 274 l-2 0 q-16 0 -21 4 q-6 6 -6 20 q3 19 16 42 q21 33 33 39 q5 0 11 -3 q7 -4 17 -4 q2 0 50 14 q40 14 85 14 ZM700 458 q-3 12 -14 12 l-23 -8 q-25 -108 -30 -185 q0 -19 11 -19 q22 4 38 11 l18 189 ZM426 535 q51 112 61 142 q0 12 -12 15 q-7 0 -42 -10 l-7 -147 ZM422 390 q0 -109 1 -161 q27 -10 34 -10 q16 0 16 20 q-15 83 -51 169 l0 -18 ZM662 749 q14 -3 29 -20 q6 -10 36 -10 q170 6 223 32 q10 0 10 -8 q-5 -20 -13 -40 q-4 -25 -14 -38 q-4 -8 -13 -14 l0 -718 q0 -23 -17 -23 l-114 0 q-17 0 -17 23 q23 369 53 696 q-36 -5 -83 -6 q-118 0 -138 8 q-17 6 -17 23 q3 23 31 59 q27 30 44 36 ZM218 507 q0 14 -18 18 q-3 0 -5 -2 q-28 -175 -32 -291 q0 -18 13 -18 q19 3 41 17 l1 276 Z" /><glyph glyph-name="" unicode="&#x963f;" d="M326 778 q72 -12 72 -70 q-3 -50 -76 -324 q59 -117 71 -197 q0 -96 -99 -107 q-49 0 -104 8 q3 -70 11 -156 q0 -21 -23 -21 l-101 0 q-23 0 -23 23 q2 333 31 679 q-4 -1 -10 -1 q-18 0 -24 5 q-8 5 -8 23 q5 24 19 49 q23 38 40 46 q4 0 11 -5 q8 -5 20 -5 q16 4 71 28 q59 25 122 25 ZM192 653 q-8 -138 -10 -270 q0 -111 4 -196 q48 -15 55 -15 q20 0 20 22 q-18 108 -69 222 q81 213 89 244 q0 14 -14 17 q-16 0 -75 -24 ZM524 536 q25 0 25 -21 l-1 -4 q37 14 56 14 q101 0 101 -114 q0 -138 1 -226 q0 -18 -25 -18 q-19 -4 -101 -4 q-16 0 -16 18 q0 3 1 5 q-38 -14 -75 -16 q-93 0 -102 61 q0 89 40 181 q51 101 96 124 ZM599 430 q-3 16 -20 16 q-18 -5 -46 -19 q-15 -96 -18 -163 q0 -19 13 -19 q21 3 48 17 l23 168 ZM963 756 q12 0 12 -14 q-11 -24 -33 -76 q-9 -30 -43 -33 q-12 -356 -26 -703 q0 -25 -19 -25 l-121 0 q-18 0 -18 25 q24 329 63 683 q-15 -3 -27 -3 q-104 -14 -286 -14 q-65 9 -65 47 q11 50 87 96 q11 0 17 2 q10 -5 20 -19 q11 -8 56 -8 q93 0 192 12 q94 9 191 30 Z" /><glyph glyph-name="" unicode="&#x7231;" d="M801 696 q15 -4 15 -24 q-21 -44 -62 -126 q149 -24 181 -141 q12 -36 12 -63 q0 -19 -23 -19 l-114 0 q-24 0 -24 25 q0 39 -2 59 q-9 47 -104 54 q-208 -9 -455 -82 q-18 -46 -33 -90 q-7 -8 -17 -8 q-63 11 -103 34 q-11 6 -11 26 q14 52 88 129 q71 66 108 69 q16 0 16 -22 l-10 -29 q135 27 225 40 q-4 4 -4 7 q-39 83 -50 103 q0 7 4 12 q3 3 11 3 q88 -18 125 -81 q0 -5 -4 -13 q-21 -15 -43 -26 q29 4 95 10 q6 10 34 47 q30 36 59 62 q52 41 86 44 ZM248 659 q88 -20 124 -87 q0 -6 -4 -14 q-23 -19 -71 -39 q-17 0 -20 13 q-22 58 -45 112 q0 7 4 12 q5 3 12 3 ZM806 818 q11 0 11 -10 q0 -49 -56 -70 q-80 -29 -165 -41 q-117 -26 -366 -38 q-58 0 -58 26 q0 24 19 62 q29 41 48 47 q14 -7 27 -18 q14 -7 38 -7 q112 1 254 17 q143 13 248 32 ZM264 71 q-17 -22 -27 -32 q-40 -56 -49 -62 q-10 0 -22 4 q-40 26 -65 73 q0 17 2 21 q27 58 164 192 q-20 3 -25 8 q-21 9 -21 38 q7 22 23 38 q15 19 40 33 q10 0 15 2 q8 -3 18 -16 q11 -8 50 -8 l6 0 q58 44 104 64 q28 0 33 -16 q0 -12 -26 -52 l40 0 q121 1 190 15 q38 4 54 7 q12 0 12 -12 q-18 -42 -28 -62 q-9 -22 -36 -26 q-50 -16 -206 -20 q-63 0 -99 1 q-12 -14 -34 -42 l82 8 q81 6 177 12 l58 0 q50 -6 62 -36 q5 -7 5 -31 q0 -24 -114 -98 q258 -41 300 -58 q6 -9 6 -18 q-17 -42 -48 -83 q-11 -8 -22 -8 q-206 47 -361 87 q-84 -52 -162 -98 q-6 0 -16 4 q-44 38 -73 78 q0 9 7 15 q46 24 88 45 q-60 18 -102 33 ZM497 100 q100 46 107 54 q0 11 -12 11 q-69 -6 -237 -30 q-21 -5 -44 -7 q137 -20 186 -28 Z" /><glyph glyph-name="" unicode="&#x5b89;" d="M968 438 q11 0 11 -13 q-18 -37 -29 -66 q-9 -25 -39 -28 q-72 -19 -188 -35 q5 -71 17 -165 q99 24 176 50 q14 0 14 -16 q-3 -50 -33 -59 q-58 -41 -146 -70 q7 -62 13 -102 q0 -11 -6 -19 q-101 -11 -130 -11 q-19 0 -22 54 q-3 18 -3 39 q-116 -25 -255 -25 q-163 0 -184 118 q0 76 36 169 q-36 -1 -110 -1 q-62 9 -62 44 q10 47 82 92 q11 0 17 2 q7 -4 19 -17 q12 -9 52 -9 q37 0 56 1 q48 78 118 148 q42 28 62 28 q30 0 30 -31 q-41 -92 -59 -140 q74 2 181 13 q14 0 29 3 q20 113 63 147 q23 0 28 -31 q4 -70 8 -106 q127 14 254 36 ZM597 102 q-1 5 -1 16 q0 91 6 163 q-113 -13 -240 -17 q-38 -107 -44 -157 q0 -25 48 -25 q114 0 231 20 ZM245 733 q16 0 16 -21 l-5 -25 l175 26 l-30 84 q0 21 22 21 q27 -4 62 -20 q67 -36 68 -45 q0 -12 -8 -18 l-12 -8 q118 15 185 18 q133 0 166 -114 q22 -62 26 -148 q-3 -19 -21 -19 l-127 0 q-18 0 -18 15 q0 106 1 123 q-9 33 -58 33 q-63 0 -451 -44 l-30 -134 q-7 -7 -17 -7 q-64 12 -100 33 q-12 6 -12 25 q12 55 76 147 q60 75 92 78 Z" /><glyph glyph-name="" unicode="&#x6309;" d="M139 645 q13 -3 30 -19 q6 -12 33 -12 q11 0 16 1 q15 59 38 109 q42 78 75 84 q18 -7 18 -64 q-11 -61 -17 -121 q60 6 85 17 q10 0 10 -8 q-6 -21 -12 -37 q-4 -22 -14 -35 q-7 -20 -45 -29 q-10 -4 -35 -8 l-8 -71 l-6 -90 l60 26 q15 0 15 -13 q-4 -47 -32 -76 q-25 -24 -49 -39 q-9 -177 -9 -330 q0 -17 -39 -17 l-92 0 q-20 3 -23 21 q5 140 15 258 q-44 -14 -88 -20 q-44 0 -44 41 q10 27 28 60 q15 22 25 25 q19 -5 27 -8 q15 0 63 16 q11 105 31 207 q-98 0 -119 9 q-16 6 -16 25 q3 25 33 61 q26 29 46 37 ZM941 355 q9 0 9 -12 l-25 -59 q-9 -22 -34 -25 q-39 -7 -70 -11 q5 -50 17 -152 q36 10 98 32 q8 -3 8 -13 q-15 -45 -20 -65 q-6 -14 -75 -41 l10 -76 q0 -10 -5 -17 q-98 -10 -122 -10 q-16 0 -19 47 q-1 5 -1 12 q-60 -14 -111 -17 q-213 0 -213 118 q6 77 41 159 l-11 0 q-60 9 -60 43 q9 45 80 89 q11 0 16 2 q8 -3 19 -17 q6 -5 17 -6 q49 75 129 152 q33 27 59 33 q30 -3 30 -27 q0 -24 -70 -158 q40 0 82 3 q20 100 59 130 q22 0 26 -27 q4 -66 7 -98 q57 3 129 11 ZM577 50 q64 3 127 15 l-1 30 q0 90 5 141 q-63 -7 -124 -8 q-32 -78 -40 -130 q0 -48 33 -48 ZM774 702 q123 0 156 -100 q23 -60 27 -147 q-3 -18 -19 -18 l-111 0 q-15 0 -15 14 q-1 88 -5 117 q-8 31 -51 31 q-29 0 -226 -43 l-24 -110 q-4 -15 -21 -15 q-37 6 -92 35 q-12 6 -12 25 q16 44 78 133 q46 58 73 74 q8 0 20 -4 q7 -9 7 -16 q0 -4 -6 -28 q45 13 92 25 q-2 8 -8 25 l-31 89 q0 20 21 20 q30 -5 62 -25 q66 -43 67 -55 q0 -11 -8 -16 l-32 -21 l58 10 Z" /><glyph glyph-name="" unicode="&#x6697;" d="M809 334 q55 -3 82 -52 q34 -80 53 -344 q0 -21 -18 -21 l-109 0 q-17 0 -17 19 q-1 8 -1 23 l-17 -6 q-83 -34 -166 -40 q-192 0 -192 113 q5 67 36 139 q28 64 81 128 q31 25 57 31 q26 -3 27 -22 q101 31 184 32 ZM603 6 q68 3 132 19 q30 6 60 15 q-2 48 -2 69 q-26 -8 -38 -10 q-69 -22 -182 -32 q-2 -12 -2 -17 q0 -44 32 -44 ZM592 161 q65 1 146 17 q36 6 53 10 l0 34 q0 19 -23 25 q-54 -1 -161 -32 l-15 -54 ZM528 578 q29 -6 57 -26 q60 -43 61 -55 q0 -10 -7 -15 q-22 -16 -39 -25 q50 0 123 7 q23 77 66 142 l-41 -6 q-89 -11 -252 -11 q-58 7 -58 42 q9 42 79 85 q9 0 14 2 q7 -2 19 -16 q12 -9 50 -9 q26 0 39 1 l-33 95 q0 20 21 20 q30 -5 62 -25 q66 -43 67 -55 q0 -11 -8 -16 l-22 -15 q26 2 41 4 q82 6 164 21 q9 0 9 -11 q-2 -6 -26 -64 q-9 -23 -36 -26 q-2 -1 -4 -1 l-41 -146 q68 8 131 22 q11 0 11 -13 q-20 -44 -30 -68 q-9 -27 -40 -30 q-57 -16 -156 -28 q-110 -17 -302 -17 q-10 0 -16 3 l-1 -187 q-4 -27 -22 -27 q-40 -4 -99 -4 q-22 0 -28 20 q-64 -22 -116 -25 q-115 0 -127 73 q0 137 54 281 q68 161 126 195 q20 0 26 -11 q58 29 109 29 q74 -12 80 -105 l-1 -129 q13 11 37 27 q11 0 15 1 q7 -4 20 -18 q10 -6 37 -8 l-32 102 q0 20 19 20 ZM306 361 q-42 -18 -103 -27 q-5 -47 -7 -101 q0 -22 18 -22 q37 5 77 24 l15 126 ZM314 444 q4 48 10 144 q-3 11 -23 14 q-25 -6 -66 -36 l-21 -137 q6 -2 20 -2 q35 1 80 17 Z" /><glyph glyph-name="" unicode="&#x5cb8;" d="M227 516 q14 -4 32 -20 q12 -11 85 -11 q389 9 520 48 q12 0 12 -10 l-15 -46 q-6 -30 -16 -44 q-23 -23 -134 -34 q-95 -14 -377 -20 q-52 -155 -71 -215 q12 10 30 22 q12 0 18 2 q10 -5 21 -19 q13 -10 59 -10 q66 -3 121 -3 q2 26 8 78 q-10 -1 -29 -1 q-118 0 -141 9 q-18 6 -18 23 q3 24 32 61 q27 29 45 36 q13 -3 30 -20 q9 -10 53 -10 q243 3 328 23 q11 0 11 -8 q-5 -19 -13 -41 q-6 -27 -15 -39 q-15 -15 -78 -21 q-25 -4 -80 -7 l0 -82 q134 3 220 17 l63 8 q15 0 15 -13 q-14 -37 -33 -73 q-10 -25 -43 -31 q-61 -16 -222 -22 l0 -103 q0 -24 -18 -24 l-116 0 q-18 0 -18 24 l8 100 q-47 0 -175 2 q-67 3 -82 15 q-7 2 -13 10 l-45 -141 q-3 -7 -14 -7 q-69 21 -125 50 q-6 5 -6 12 q124 285 172 400 q-40 2 -51 7 q-18 6 -18 26 q3 26 34 63 q30 32 49 39 ZM306 773 q28 0 28 -24 q-49 -68 -55 -107 q0 -23 16 -23 q108 4 188 11 q10 56 38 110 q38 69 76 69 q21 0 21 -28 q-4 -95 -7 -139 q96 10 179 22 q7 22 17 49 q33 72 65 72 q22 0 22 -29 q0 -84 5 -197 q0 -16 -13 -16 l-103 0 q-11 0 -11 20 q0 6 1 9 q-272 -43 -523 -46 q-107 0 -119 75 q0 50 52 102 q68 58 123 70 Z" /><glyph glyph-name="" unicode="&#x6848;" d="M277 721 q28 0 28 -15 q-2 -9 -10 -26 l162 27 l-14 38 q-7 24 -18 51 q0 20 20 20 q26 -3 60 -19 q62 -33 64 -41 q0 -10 -7 -17 l-32 -21 q136 20 214 25 q114 0 144 -100 q17 -45 20 -107 q-3 -18 -18 -18 l-112 0 q-15 0 -15 14 l0 16 l-10 -24 q-7 -17 -11 -25 q-9 -21 -32 -24 l-17 -4 q4 -28 7 -42 q42 12 74 25 q7 -3 7 -10 q-11 -32 -17 -55 q-4 -11 -51 -29 q5 -31 10 -49 q0 -11 -6 -16 q-79 -9 -109 -9 q-14 0 -17 29 l-1 4 q-81 -24 -161 -27 q-179 0 -179 118 q0 4 4 16 q-21 -1 -63 -1 q-46 6 -46 33 q3 15 19 35 q-4 0 -6 3 q-34 19 -66 41 q-10 6 -10 25 q7 16 31 44 q23 25 56 57 q59 50 108 58 ZM582 404 q0 32 1 47 q-16 -3 -50 -7 q-57 -9 -124 -12 q-3 -6 -3 -11 q0 -41 33 -41 q77 3 143 19 l0 5 ZM763 563 q0 36 4 56 q-8 29 -51 29 q-45 0 -236 -24 q7 -10 7 -20 q0 -13 -43 -87 q50 4 73 8 q36 3 76 9 q15 81 57 102 q19 0 22 -23 q2 -22 8 -64 q29 4 77 16 q4 0 6 -2 ZM424 617 q-82 -12 -172 -24 q-12 -22 -32 -66 q8 -4 13 -12 q8 -7 39 -7 l24 0 q36 47 102 90 l26 19 ZM909 298 q12 0 12 -13 q-16 -34 -31 -74 q-11 -29 -43 -32 q-90 -18 -231 -33 q51 -13 86 -20 q113 -28 250 -63 q23 -9 23 -26 q-3 -25 -42 -109 q-3 -9 -19 -9 l-374 137 q-1 -10 -1 -31 l2 -103 q-3 -13 -21 -13 l-97 0 q-21 0 -23 16 q0 73 9 148 q-25 -19 -62 -42 l-128 -88 q-45 -32 -51 -34 q-10 0 -22 4 q-39 23 -65 73 q0 16 2 20 q30 32 191 104 q28 12 44 18 q-59 -2 -188 -2 q-62 7 -62 44 q10 46 82 91 q11 0 17 2 q6 -3 20 -17 q11 -9 51 -9 q113 0 228 9 q2 4 8 12 q27 36 58 42 q17 0 24 -18 l-3 -29 q7 0 23 2 q169 12 333 43 Z" /><glyph glyph-name="" unicode="&#x50b2;" d="M697 424 l6 -16 q8 -19 26 -55 q39 90 72 174 q-48 0 -66 1 l-38 -104 ZM677 229 q-13 36 -24 77 l-14 -39 q-4 -12 -18 -12 q-31 3 -79 30 q-9 5 -9 15 q-2 -1 -5 -1 q-24 -4 -53 -5 l-25 -72 l73 9 q73 0 76 -51 q0 -20 -14 -73 q-17 -72 -33 -163 q-3 -23 -21 -23 q-38 1 -99 1 q-12 3 -12 24 q22 71 71 193 q0 10 -11 10 q-15 -4 -59 -13 q-44 -127 -73 -214 q-2 -5 -17 -5 q-34 6 -84 36 l0 -31 q0 -16 -35 -16 l-83 0 q-18 3 -21 19 q11 274 43 451 q-26 -46 -32 -49 q-15 0 -21 5 q-39 22 -69 77 q0 16 2 21 q27 69 169 233 q89 98 154 134 q22 0 25 -13 q0 -28 -100 -192 q-9 -88 -18 -220 q-1 -8 -1 -22 q7 13 18 26 q29 29 42 34 q11 -3 29 -18 q4 -11 32 -11 q15 0 23 1 q0 44 2 67 q-74 0 -93 7 q-15 6 -15 20 q3 22 28 53 q26 26 39 31 q13 -4 26 -17 q3 -9 21 -9 q4 41 7 64 q-67 1 -87 8 q-15 6 -15 21 q3 21 29 53 q24 27 40 33 q11 -3 26 -18 q6 -9 31 -9 q8 22 23 49 q21 40 49 46 q13 0 19 -15 q-3 -18 -6 -77 q83 5 117 16 q9 0 9 -8 l-11 -37 q-4 -24 -14 -35 q-9 -13 -43 -17 q-17 -4 -63 -7 q-1 -20 -1 -60 q48 4 74 14 q9 0 9 -7 q-2 -14 -11 -40 q-6 -25 -15 -37 q-8 -10 -36 -13 q-9 -3 -22 -3 l1 -65 q30 4 44 7 q32 76 103 211 q79 134 129 169 q7 0 17 -4 q6 -6 6 -14 q0 -5 -46 -125 l-4 -10 q4 -2 16 -2 q126 5 167 25 q9 0 9 -8 l-11 -33 q-3 -20 -12 -31 q-6 -21 -33 -30 q-4 -3 -9 -3 q-24 -71 -101 -316 q67 -119 154 -242 q0 -12 -13 -20 q-6 -7 -92 -53 q-15 0 -24 9 q-42 70 -76 142 q-16 -49 -41 -130 q-3 -7 -13 -7 q-68 22 -115 47 q-6 5 -6 11 q93 217 106 246 ZM257 301 q-8 -155 -10 -309 q45 121 128 298 q-89 0 -110 8 q-7 2 -8 3 Z" /><glyph glyph-name="" unicode="&#x5965;" d="M300 711 q6 -3 9 -12 q4 0 10 2 q18 27 75 66 q61 37 95 39 q14 0 14 -17 l-35 -61 q70 8 129 8 q228 -12 256 -175 q26 -121 30 -276 q0 -20 -17 -20 q-59 -8 -126 -8 q-14 0 -14 17 q0 246 -15 274 q0 87 -121 102 q-66 0 -166 -20 q-58 -12 -115 -32 l-9 -138 l5 6 q3 3 4 5 q20 23 35 29 q10 -3 23 -15 q8 -9 46 -9 q25 0 37 1 q12 59 32 96 q32 58 56 61 q13 -5 13 -46 q0 -62 1 -107 q99 6 149 19 q10 0 10 -8 q-5 -17 -12 -35 q-3 -23 -12 -34 q-14 -10 -71 -14 l-9 -1 q14 -12 21 -17 q73 -56 77 -63 q5 -5 5 -16 q0 -9 -29 -29 q-13 -9 -28 -18 l-16 -10 l-17 0 q-12 0 -68 71 l0 -54 q0 -14 -31 -14 l-75 0 q-15 1 -18 17 q0 14 2 42 l-61 -64 q-7 -11 -15 -11 q-29 17 -58 47 l0 -25 q0 -16 -37 -16 l-87 0 q-20 2 -23 20 q17 270 88 373 q34 65 63 70 ZM297 335 q44 33 100 65 q-84 0 -99 7 q-1 -26 -1 -72 ZM958 255 q16 0 16 -14 q-24 -52 -36 -76 q-9 -28 -44 -34 q-61 -13 -176 -23 l220 -85 q7 -7 7 -14 q-12 -24 -48 -57 q-26 -26 -46 -41 q-9 -9 -19 -9 q-7 3 -14 9 q-56 28 -107 56 l-236 129 l-48 -1 l-118 -173 q-5 -17 -20 -17 q-59 16 -100 31 q-28 9 -29 28 q6 11 52 67 q39 41 64 64 q-88 0 -169 7 q-40 2 -61 15 q-19 9 -19 37 q10 27 29 47 q19 23 49 41 q13 0 19 2 q11 -5 22 -21 q15 -9 62 -9 q92 -4 188 -4 l23 0 q46 28 80 39 q29 0 29 -20 q-3 -7 -11 -17 q178 7 375 35 q22 2 66 8 ZM663 618 q11 0 11 -13 q-20 -58 -33 -100 q-4 -5 -10 -5 q-40 6 -64 21 q-6 3 -6 16 q5 18 46 52 q37 28 56 29 ZM381 599 q8 0 20 -18 q27 -39 42 -57 q0 -6 -5 -11 q-7 -12 -51 -27 q-7 0 -10 4 q-16 8 -20 33 q0 29 6 53 q6 23 18 23 Z" /><glyph glyph-name="" unicode="&#x5427;" d="M606 624 q-21 -151 -32 -263 l0 -4 l41 0 q18 146 40 279 l-49 -12 ZM564 241 q-7 -90 -7 -157 q0 -53 61 -53 q105 0 200 7 q66 19 103 50 q39 0 39 -40 q-3 -54 -55 -84 q-20 -40 -300 -40 q-202 0 -202 165 q0 33 2 52 q-3 -1 -7 -1 l-102 0 q-17 0 -17 19 l0 12 q-63 -24 -122 -27 q-101 0 -113 70 q0 116 55 235 q69 134 130 161 q27 0 27 -23 q-1 -2 -1 -5 q23 7 39 7 q52 -1 76 -49 q26 -78 42 -322 q11 87 33 201 q21 112 37 173 q-29 -8 -44 -8 q-34 0 -35 38 q11 37 37 75 q21 29 36 33 q3 0 12 -7 q9 -6 19 -6 q46 9 105 22 q127 20 213 22 q99 0 110 -68 q0 -148 -62 -399 q-17 -26 -47 -32 l-262 -21 ZM716 358 q25 6 38 22 l42 258 q0 15 -20 15 q-20 -2 -30 -2 q-15 -156 -30 -293 ZM278 254 q-2 78 -2 232 q0 16 -22 21 q-9 -1 -25 -14 q-38 -144 -44 -239 q0 -23 15 -23 q35 3 78 23 Z" /><glyph glyph-name="" unicode="&#x2f0b;&#x516b;" d="M384 608 q7 0 19 -4 q7 -9 7 -15 q0 -8 -47 -157 q-57 -185 -137 -461 q-6 -19 -28 -19 q-51 10 -123 47 q-15 6 -15 33 q34 120 166 369 q97 163 158 207 ZM505 722 q15 0 27 -6 q119 -100 231 -285 q122 -193 212 -390 q0 -15 -8 -18 q-86 -51 -143 -70 q-7 0 -13 4 q-156 368 -316 715 q-8 11 -8 29 q3 15 18 21 Z" /><glyph glyph-name="" unicode="&#x5df4;" d="M458 607 q-41 -10 -90 -19 q-42 -130 -64 -228 q-2 -8 -2 -12 l110 7 q29 117 77 257 l-31 -5 ZM534 362 q50 2 75 4 q31 6 43 21 l75 236 q0 14 -21 14 q-49 -3 -107 -9 q-37 -167 -65 -266 ZM758 746 q106 0 118 -69 q0 -140 -96 -376 q-17 -25 -51 -31 q-204 -15 -449 -42 q-12 -76 -12 -127 q0 -53 66 -53 q224 0 434 23 q65 18 105 52 q40 0 40 -40 q-3 -57 -57 -87 q-36 -60 -546 -60 q-208 0 -208 176 q0 104 70 304 q33 91 55 144 q-51 -10 -70 -10 q-33 0 -35 39 q11 37 37 75 q21 29 35 33 q4 0 13 -7 q9 -6 19 -6 l176 30 q223 31 356 32 Z" /><glyph glyph-name="" unicode="&#x628a;" d="M160 663 q15 -3 32 -22 q6 -11 32 -11 l4 0 q12 52 27 92 q44 86 81 92 q19 -8 19 -70 l-11 -106 q54 6 84 19 q10 0 10 -8 q-5 -20 -13 -40 q-5 -26 -15 -38 q-7 -22 -41 -30 q-13 -6 -35 -9 l-7 -83 q-4 -59 -5 -85 q22 9 62 27 q14 0 14 -14 q-3 -48 -34 -79 q-23 -22 -47 -38 q-7 -171 -7 -338 q0 -18 -39 -18 l-92 0 q-21 3 -24 21 q5 155 13 263 q-49 -16 -96 -23 q-47 0 -47 43 q7 21 31 63 q15 24 26 27 q8 -2 26 -10 q21 0 70 18 q13 128 28 216 q-91 2 -111 9 q-20 6 -20 26 q4 28 35 66 q30 32 50 40 ZM640 597 l-30 -11 q-31 -144 -46 -241 q-1 -11 -3 -19 l46 5 q18 116 55 272 l-22 -6 ZM547 205 q-7 -67 -7 -121 q0 -53 60 -53 q122 0 228 11 q66 19 103 49 q39 0 39 -39 q-3 -54 -55 -84 q-21 -44 -322 -44 q-202 0 -202 161 q0 106 51 313 q14 57 40 145 q-12 -3 -16 -3 q-34 0 -35 38 q8 34 37 75 q19 28 35 33 q4 0 13 -7 q9 -6 18 -6 l99 31 q124 31 198 32 q96 0 107 -68 q0 -144 -65 -389 q-16 -25 -45 -31 q-150 -21 -281 -43 ZM719 343 q26 6 39 22 l45 248 q0 15 -20 15 l-27 -3 q-23 -158 -45 -283 l8 1 Z" /><glyph glyph-name="" unicode="&#x2f69;&#x767d;" d="M364 671 q22 35 61 75 q62 57 96 60 q14 0 14 -19 q-24 -72 -48 -138 q74 7 129 7 q215 -3 248 -212 q37 -202 40 -480 q0 -21 -22 -21 q-69 -8 -123 -8 q-33 0 -33 25 l0 29 q-29 -8 -76 -18 q-157 -41 -292 -44 q-288 0 -288 208 q7 121 77 262 q78 147 175 253 q24 18 42 21 ZM726 81 q-1 123 -3 210 q-22 -4 -32 -5 q-96 -21 -361 -30 q-46 0 -64 1 q-28 -114 -28 -142 q0 -68 78 -70 q87 0 204 12 q95 9 206 24 ZM300 372 q20 -3 50 -3 q237 6 369 30 q-6 95 -13 107 q-21 66 -110 69 q-125 -6 -247 -56 l-49 -147 Z" /><glyph glyph-name="" unicode="&#x767e;" d="M367 547 q18 37 44 68 q-123 0 -195 2 q-70 3 -86 16 q-26 12 -26 47 q9 28 28 47 q19 24 50 41 q12 0 18 2 q9 -5 23 -20 q13 -10 61 -10 q99 -4 195 -4 q240 3 361 20 q44 4 66 7 q16 0 16 -13 l-35 -77 q-10 -27 -45 -33 q-81 -18 -342 -24 l-8 -41 q-5 -33 -5 -29 q48 6 98 6 q228 -3 264 -201 q27 -159 30 -387 q0 -19 -22 -19 q-64 -8 -117 -8 q-31 0 -31 24 l0 20 l-52 -13 q-151 -43 -279 -46 q-261 0 -261 204 q6 95 60 204 q59 111 136 198 q27 21 49 21 l5 -2 ZM709 68 q-2 104 -2 138 q-15 -5 -29 -6 q-80 -19 -307 -28 q-57 0 -78 1 q-12 -60 -12 -81 q0 -63 76 -64 q81 0 186 15 q83 10 166 25 ZM319 293 q16 -8 61 -8 q205 6 324 29 q-3 71 -9 81 q-19 69 -105 72 q-120 -4 -241 -62 q-19 -69 -30 -112 Z" /><glyph glyph-name="" unicode="&#x8d25;" d="M577 368 q-4 -15 -21 -15 q-36 6 -96 36 l7 -202 q-4 -25 -21 -25 q-36 -4 -86 -4 q7 -6 22 -21 q85 -93 100 -128 l100 191 q-52 61 -80 96 q-10 10 -10 25 q0 14 20 21 q9 0 25 -2 q47 -23 91 -52 l124 239 q-22 -2 -32 -2 q-68 0 -90 2 l-53 -159 ZM469 -29 q-60 -39 -82 -44 q-17 0 -24 13 l-44 109 l-57 131 q0 23 22 23 q18 -6 40 -18 q17 237 24 475 q-3 11 -23 14 q-34 -5 -100 -40 q-15 -76 -24 -161 q-10 -103 -11 -121 l5 12 q81 162 126 165 q17 0 17 -15 q0 -22 -13 -51 q-68 -236 -144 -535 q-3 -16 -20 -16 l-84 36 q-19 6 -19 26 q11 51 54 188 l-37 0 q-18 0 -18 18 q8 195 51 369 q28 94 67 155 q36 50 55 50 q15 -3 15 -19 q-1 -2 -1 -5 q67 26 129 26 q71 -10 77 -99 l8 -209 q32 79 112 207 q73 104 119 135 q6 0 18 -4 q6 -6 6 -14 q0 -3 -34 -102 l-12 -33 q6 -11 37 -11 q179 5 236 28 q10 0 10 -8 q-6 -21 -12 -37 q-3 -21 -13 -35 q-9 -22 -52 -30 l-3 -1 q-43 -100 -135 -331 l13 -10 q110 -91 208 -183 q9 -7 9 -13 q0 -6 -6 -14 q-10 -17 -93 -85 q-7 -5 -14 -5 q-8 0 -19 7 q-62 70 -149 173 l-62 -160 q-3 -9 -15 -9 q-78 24 -134 54 l-4 4 Z" /><glyph glyph-name="" unicode="&#x73ed;" d="M705 732 q13 -3 30 -19 q5 -12 29 -12 q136 3 187 22 q10 0 10 -8 q-5 -20 -13 -40 q-4 -25 -14 -38 q-8 -17 -38 -23 q-18 -6 -50 -9 q-8 -127 -11 -210 q77 6 108 19 q12 0 12 -10 l-14 -43 q-3 -26 -15 -40 q-9 -15 -43 -21 q-15 -4 -53 -7 q-4 -85 -10 -245 q87 6 130 19 q12 0 12 -10 q-5 -22 -13 -42 q-6 -25 -15 -39 q-11 -15 -58 -21 q-48 -10 -170 -14 q-102 0 -134 6 l0 -25 q0 -15 -35 -15 l-83 0 q-17 3 -20 19 q22 584 126 809 q34 64 62 69 q15 -6 15 -52 q-18 -99 -40 -298 q-21 -229 -24 -423 q1 2 4 5 q26 29 46 37 q13 -3 30 -20 q7 -10 30 -10 q9 119 23 246 q-78 2 -96 9 q-16 6 -16 24 q4 25 33 61 q27 30 46 38 q13 -3 30 -20 q3 -8 15 -10 q14 121 27 209 q-84 2 -102 9 q-17 6 -17 24 q4 26 33 62 q28 30 46 37 ZM153 705 q15 -4 31 -20 q3 -11 24 -11 q123 3 165 24 q11 0 11 -8 q-6 -23 -13 -41 q-6 -28 -16 -39 q-4 -15 -30 -21 q-11 -5 -40 -8 q-8 -121 -11 -200 q34 6 54 19 q12 0 12 -10 q-5 -22 -13 -42 q-6 -27 -15 -39 q-6 -14 -26 -20 q-10 -4 -16 -5 q-6 -100 -9 -203 q62 15 93 24 q8 0 8 -6 l-26 -73 q-3 -34 -105 -61 q-127 -38 -158 -40 q-35 0 -35 31 q1 25 20 59 q5 10 20 28 q14 14 28 17 q1 -2 7 -2 q7 -4 14 -5 l2 0 l23 224 q-62 1 -78 8 q-15 6 -15 22 q3 24 30 57 q26 29 43 35 q13 -3 29 -18 q0 -4 3 -4 q13 110 27 199 q-79 1 -97 9 q-18 6 -18 23 q3 24 32 61 q27 29 45 36 ZM436 582 q10 0 15 -14 q-3 -18 -6 -86 q-6 -81 -6 -171 l3 -101 q-3 -10 -16 -10 l-73 0 q-18 0 -19 13 q0 98 15 209 q12 67 42 119 q19 35 45 41 Z" /><glyph glyph-name="" unicode="&#x642c;" d="M115 665 q13 -3 30 -20 q3 -10 17 -10 q17 73 32 113 q34 61 58 64 q14 -6 14 -49 q-5 -42 -10 -122 q39 5 56 13 q9 0 9 -8 q-3 -13 -12 -40 q-5 -26 -15 -38 q-4 -13 -24 -19 q-7 -2 -21 -4 l-5 -84 q-2 -38 -2 -55 l33 17 q11 -3 11 -24 q0 -35 -14 -47 q-10 -17 -34 -32 q-8 -192 -8 -399 q0 -16 -35 -16 l-83 0 q-17 3 -20 19 q6 185 18 331 q-17 -7 -36 -11 q-34 0 -37 23 q0 26 10 55 q5 14 15 28 q8 13 18 17 q8 -5 23 -7 q5 -2 16 -2 q9 101 24 182 q-67 0 -86 7 q-17 6 -17 23 q3 23 31 59 q27 30 44 36 ZM477 813 q13 0 13 -17 q0 -54 1 -81 q16 2 24 2 q65 -10 71 -97 l22 -609 q58 78 88 121 q-35 43 -59 77 q-9 9 -9 21 q0 12 17 19 q6 0 22 -2 q36 -18 78 -46 q51 76 56 94 q0 9 -10 9 q-42 -16 -92 -30 q-19 -6 -47 -6 q-19 0 -19 26 q3 19 13 45 q14 25 34 37 q8 0 13 -8 q10 -6 16 -8 q14 0 80 25 q24 7 49 11 q86 0 86 -78 q0 -46 -84 -189 q66 -53 127 -113 q8 -6 8 -11 q0 -5 -5 -12 q-9 -14 -80 -73 q-6 -4 -12 -4 q-8 0 -17 6 q-21 28 -81 104 q-37 -63 -68 -106 q-10 -12 -22 -12 q-9 0 -29 15 q-21 17 -52 50 l1 -33 q-5 -25 -19 -25 q-56 -4 -92 -4 q-21 0 -27 23 q2 110 4 165 q-18 -18 -26 -21 q-9 0 -13 4 q-30 34 -41 48 q-2 -72 -2 -204 q0 -13 -31 -13 l-71 0 q-16 3 -19 16 q5 174 15 312 q-8 -2 -17 -2 q-28 0 -28 24 q1 21 16 47 l16 22 q12 11 21 12 q18 205 50 307 q30 56 54 67 q6 23 23 53 q26 42 54 42 ZM399 256 q51 -39 79 -64 q2 68 2 101 q-18 -6 -28 -8 q-55 -16 -53 -16 l0 -13 ZM402 360 q32 7 80 20 q0 27 2 81 l-3 -3 q-27 -31 -37 -34 q-8 0 -13 4 q-6 7 -23 30 q-2 -19 -4 -57 q-2 -28 -2 -41 ZM416 582 q40 -31 69 -56 q0 69 1 103 q-3 9 -21 12 q-21 -5 -46 -22 l-3 -37 ZM729 776 q14 -3 14 -18 l-3 -29 q55 22 93 22 q52 -9 61 -67 q0 -5 -5 -53 l-14 -128 q0 -8 8 -8 q17 2 54 27 q11 0 11 -12 q0 -58 -35 -76 q-9 -15 -108 -15 q-50 6 -52 52 q21 103 40 174 q0 7 -7 14 q-22 0 -52 -24 q-2 -20 -2 -30 l-5 -172 q0 -16 -17 -19 l-89 0 q-18 0 -18 19 q4 114 38 221 q22 61 47 93 q27 29 41 29 Z" /><glyph glyph-name="" unicode="&#x822c;" d="M364 808 q15 -5 20 -17 q0 -19 -9 -72 q-1 -5 -1 -13 l24 1 q75 -12 81 -106 l17 -559 l103 100 q-28 24 -56 52 q-10 9 -10 25 q7 10 26 10 q51 -8 103 -25 q70 70 93 103 q0 8 -9 8 q-154 -51 -195 -51 q-30 0 -30 26 q8 25 20 47 q22 38 41 46 q10 -4 14 -5 l13 -8 q18 0 126 19 q81 24 121 24 q57 -6 57 -51 q-5 -31 -84 -140 q-18 -32 -46 -70 q105 -56 183 -124 q11 -6 11 -15 q-82 -106 -93 -106 q-13 0 -19 6 q-59 44 -159 136 l-3 -3 q-98 -124 -120 -134 q-8 0 -15 5 q-42 29 -70 60 l1 -38 q-4 -27 -21 -27 q-60 -4 -100 -4 q-24 0 -29 25 l6 153 q-20 -14 -54 -28 q-17 0 -20 14 q-18 90 -31 142 q0 7 4 12 q5 3 13 3 q58 -18 90 -74 q2 43 4 125 q-22 -7 -29 -8 q-36 -8 -92 -19 q-11 -132 -14 -305 q0 -35 -32 -35 l-92 -2 q-26 0 -29 31 q9 161 28 285 q-23 -4 -37 -4 q-33 0 -33 30 q2 26 19 55 l18 26 q14 13 28 16 q1 -2 6 -2 q4 -2 12 -4 l7 0 q36 179 93 306 q23 32 49 42 q15 50 64 99 q21 13 37 17 ZM365 387 l1 45 q-2 -1 -4 -1 q-19 -8 -61 -11 q-12 0 -12 9 q0 15 -4 119 q0 23 18 23 q9 -1 31 -37 q10 -19 26 -57 l7 -16 q0 73 3 145 q-3 12 -23 15 q-27 -6 -72 -30 q-18 -117 -26 -226 l116 22 ZM671 762 q24 0 27 -21 q-6 -22 -8 -32 q76 29 131 29 q49 -7 57 -62 l-24 -160 q0 -7 6 -7 q21 2 63 21 q11 0 11 -11 q0 -56 -34 -71 q-9 -10 -112 -10 q-45 6 -47 49 q20 72 44 152 q0 6 -7 13 q-39 0 -106 -44 q-10 -65 -13 -144 q0 -34 -29 -34 l-88 -1 q-23 0 -26 30 q16 161 98 255 q27 36 57 48 Z" /><glyph glyph-name="" unicode="&#x677f;" d="M157 648 q15 -3 32 -20 q4 -11 31 -11 l6 0 q15 69 33 120 q36 67 64 71 q15 -6 15 -54 q-6 -68 -8 -130 q60 6 90 18 q12 0 12 -10 l-14 -43 q-6 -30 -17 -41 q-6 -18 -40 -24 q-12 -4 -37 -7 q-3 -31 -3 -62 q-2 -48 -2 -67 q66 -59 101 -95 q42 161 84 313 q-62 9 -62 45 q11 49 85 95 q11 0 16 1 q8 -4 19 -18 q12 -9 55 -9 q74 0 146 13 q67 9 142 32 q12 0 12 -12 q-17 -38 -30 -73 q-10 -27 -42 -30 q-45 -18 -116 -27 q-54 -11 -119 -14 q-7 -32 -17 -86 l-17 -83 q99 39 189 48 q129 0 129 -80 q-3 -26 -40 -106 q-41 -90 -71 -161 q91 -71 167 -119 q8 -6 8 -13 q0 -8 -91 -99 q-8 -5 -16 -5 q-15 3 -30 15 q-58 53 -94 89 q-39 -89 -45 -92 q-10 -8 -24 -8 q-42 9 -105 33 q-16 4 -16 16 q1 20 56 119 l25 46 q-54 62 -83 111 q-11 -56 -59 -312 q0 -12 -18 -12 l-113 26 q-12 9 -12 27 q31 122 57 217 q-3 -2 -8 -4 l-7 -3 q-9 -6 -19 -6 q-6 3 -12 12 l-29 46 q-4 -144 -4 -304 q0 -18 -39 -18 l-89 0 q-20 3 -23 20 q4 131 12 244 l-40 -54 q-9 -12 -18 -12 q-49 30 -90 80 q0 11 10 20 q75 98 155 175 q8 73 18 134 q-94 2 -114 10 q-19 6 -19 26 q5 28 34 63 q29 31 49 39 ZM561 333 q37 -40 84 -80 q13 -12 32 -27 q74 125 88 164 q-3 12 -24 12 q-41 -6 -129 -43 l-51 -26 Z" /><glyph glyph-name="" unicode="&#x7248;" d="M769 487 q128 0 128 -80 q-1 -23 -35 -106 q-25 -63 -61 -159 q81 -67 156 -116 q8 -6 8 -13 q0 -8 -91 -99 q-8 -5 -17 -5 q-13 3 -29 14 q-47 46 -79 80 q-34 -86 -38 -88 q-10 -8 -23 -8 q-44 9 -106 33 q-16 4 -16 16 q2 23 49 119 l26 52 q-38 47 -68 96 q-25 -138 -52 -303 q0 -12 -18 -12 l-102 23 q-2 -20 -17 -20 l-106 0 q-17 0 -17 19 q7 168 7 284 q0 20 -24 26 q-22 -1 -57 -24 q-8 -141 -8 -294 q0 -15 -36 -15 l-85 0 q-19 3 -22 19 q24 573 131 793 q33 62 60 67 q14 -6 14 -51 q-15 -91 -29 -207 q6 -9 28 -9 q15 0 22 1 q9 84 38 160 q24 53 54 81 q29 27 44 27 q14 -3 14 -18 q-17 -62 -25 -133 q-7 -59 -12 -110 q34 3 55 11 q9 0 9 -8 q-3 -15 -11 -39 q-6 -25 -15 -37 q-7 -14 -38 -20 q-30 -9 -113 -12 q-45 0 -62 1 l-8 -110 q43 19 81 20 q61 -3 88 -51 q20 -61 34 -250 q56 233 138 561 q-41 4 -41 27 q0 23 21 65 q32 44 51 50 q17 -10 29 -19 q15 -6 40 -6 q65 2 140 15 q74 11 138 30 q12 0 12 -10 q0 -49 -35 -72 q-49 -28 -104 -42 q-54 -19 -144 -30 l-28 -154 q81 31 157 40 ZM592 334 q30 -36 77 -78 q18 -16 26 -24 q63 118 74 157 q-3 12 -24 12 q-37 -7 -114 -41 q-28 -16 -38 -21 q-1 -2 -1 -5 Z" /><glyph glyph-name="" unicode="&#x4f34;" d="M393 810 q32 0 37 -17 q0 -28 -118 -187 q-3 -44 -11 -221 l-6 -186 q25 28 66 53 q13 0 19 2 q11 -5 22 -21 q14 -11 62 -11 q50 0 76 1 q7 101 14 152 q-72 -3 -158 -3 q-64 9 -64 45 q10 48 85 94 q11 0 16 1 q5 -3 19 -17 q12 -9 55 -9 q41 0 62 1 q22 149 56 243 q39 75 70 79 q17 -6 17 -60 q-8 -125 -14 -251 l5 0 q95 7 194 29 q12 0 12 -13 q-15 -34 -30 -72 q-10 -27 -42 -30 q-64 -17 -143 -25 q-2 -52 -4 -154 q8 0 26 2 q120 9 249 32 q12 0 12 -14 l-34 -79 q-9 -29 -45 -32 q-69 -17 -191 -31 q-12 -2 -19 -2 q-1 -65 -1 -185 q0 -18 -41 -18 l-97 0 q-22 3 -25 22 q4 113 8 169 q-80 -4 -195 -4 q-28 3 -44 12 q-1 -64 -1 -181 q0 -17 -38 -17 l-90 0 q-19 3 -22 20 q9 303 41 499 l-10 -14 q-39 -60 -47 -64 q-15 0 -23 5 q-44 28 -76 85 q0 17 3 24 q32 66 191 221 q97 93 172 127 ZM467 768 q11 0 29 -45 q38 -91 61 -133 q0 -10 -8 -18 q-15 -21 -88 -46 q-10 0 -18 6 q-11 24 -16 106 q0 53 10 90 q12 40 30 40 ZM900 758 q15 0 15 -19 q-26 -94 -59 -200 q-6 -6 -15 -6 q-58 10 -92 29 q-11 6 -11 25 q12 44 74 112 q56 56 88 59 Z" /><glyph glyph-name="" unicode="&#x534a;" d="M598 809 q17 -8 17 -64 q-14 -107 -26 -244 q141 8 282 30 q12 0 12 -15 q-17 -38 -32 -76 q-11 -29 -44 -32 q-86 -16 -213 -26 q-6 -1 -14 -1 q-4 -48 -8 -146 q8 0 24 2 q162 9 336 32 q12 0 12 -14 l-34 -83 q-12 -31 -47 -34 q-90 -17 -253 -31 q-14 -2 -42 -4 q-3 -94 -3 -178 q0 -19 -43 -19 l-100 0 q-23 3 -26 23 q3 86 9 165 q-107 -5 -285 -5 q-75 11 -75 54 q12 58 101 112 q13 0 19 1 q11 -3 23 -21 q14 -11 66 -11 q80 0 162 3 q5 71 17 145 q-100 -4 -252 -4 q-67 9 -67 48 q12 50 90 98 q11 0 17 2 q7 -4 20 -18 q13 -10 58 -10 q85 0 154 4 q27 146 69 233 q42 78 76 84 ZM283 795 q17 0 41 -50 q50 -94 86 -151 q0 -10 -9 -19 q-15 -21 -92 -48 q-11 0 -19 6 q-37 31 -49 125 q0 58 11 95 q12 42 31 42 ZM878 778 q16 0 16 -21 q-55 -120 -105 -217 q-7 -7 -16 -7 q-61 11 -96 31 q-12 6 -12 25 q15 47 97 123 q75 63 116 66 Z" /><glyph glyph-name="" unicode="&#x7eca;" d="M738 809 q16 -6 16 -56 q-11 -121 -20 -273 q128 9 184 27 q13 0 13 -9 q-6 -22 -16 -47 q-6 -30 -18 -45 q-14 -20 -78 -26 q-41 -7 -90 -10 q-2 -35 -4 -107 l32 0 q77 3 120 18 q22 2 66 8 q16 0 16 -14 l-35 -76 q-10 -27 -45 -33 q-33 -18 -141 -24 l-16 0 q-2 -78 -2 -220 q0 -18 -39 -18 l-92 0 q-21 3 -24 21 q3 105 11 218 q-54 0 -82 1 q-69 3 -86 17 q-26 10 -26 47 q11 29 28 47 q18 21 50 41 q13 0 19 2 q8 -4 22 -21 q14 -10 61 -10 l23 -1 q6 65 10 98 l-9 0 q-134 0 -158 10 q-19 6 -19 26 q5 27 36 66 q30 35 50 41 q15 -1 33 -21 q9 -13 54 -13 q19 0 28 1 q24 163 62 261 q36 70 66 74 ZM512 774 q12 0 32 -49 q42 -96 66 -144 q0 -8 -7 -17 q-16 -20 -84 -44 q-10 0 -18 6 q-21 30 -27 124 q0 50 9 86 q11 38 29 38 ZM910 759 q14 0 14 -17 l-56 -204 q-6 -6 -14 -6 q-53 9 -83 27 q-10 6 -10 22 q9 44 67 116 q53 59 82 62 ZM390 160 q16 0 16 -17 q-4 -53 -37 -86 q-98 -94 -265 -124 q-53 0 -53 49 q9 27 33 71 q19 26 30 31 l31 -11 q44 3 245 87 ZM388 784 q12 -6 12 -18 q0 -15 -63 -89 q-34 -44 -76 -87 q-46 -50 -55 -75 q0 -14 13 -17 q10 0 46 -2 q53 9 119 72 q17 10 26 10 q12 -6 12 -16 q0 -18 -55 -90 q-36 -42 -78 -97 q-51 -73 -77 -114 q0 -4 1 -4 q2 -1 7 -1 q37 0 80 15 q42 12 78 30 q14 0 14 -11 q0 -46 -24 -67 q-34 -28 -68 -39 q-51 -25 -151 -36 q-36 0 -48 9 q-46 15 -46 84 q11 47 45 83 q39 42 79 78 q0 10 -13 10 l-42 0 q-67 13 -70 84 q0 61 95 141 q49 41 97 76 q80 56 116 68 q12 3 26 3 Z" /><glyph glyph-name="" unicode="&#x5e2e;" d="M367 799 q16 0 22 -17 q-2 -14 -3 -43 q94 6 134 18 q9 0 9 -7 l-11 -36 q-4 -22 -14 -35 q-10 -14 -57 -20 q-19 -5 -67 -8 q-3 -27 -3 -55 q73 7 106 24 q10 0 10 -8 q-4 -16 -12 -36 q-3 -22 -13 -34 q-9 -18 -49 -26 q-14 -4 -45 -7 q-1 -16 -1 -49 q96 7 143 23 q9 0 9 -8 l-11 -37 q-4 -22 -14 -35 q-13 -17 -70 -23 q-17 -3 -56 -7 l1 -75 q-3 -12 -20 -12 l-89 0 q-20 0 -22 15 q0 43 1 65 q-8 -1 -22 -1 q-107 0 -126 8 q-15 6 -15 20 q3 21 28 54 q24 26 40 32 q13 -3 27 -17 q8 -9 47 -9 q18 0 26 1 q0 23 3 47 q-83 0 -106 7 q-14 6 -14 21 q3 19 28 54 q24 26 40 32 q12 -3 27 -18 q4 -8 35 -8 q7 36 13 57 q-104 0 -123 8 q-14 6 -14 20 q3 21 28 54 q23 26 40 32 q12 -3 26 -17 q6 -9 39 -9 q24 0 36 1 q2 6 4 9 q26 49 55 55 ZM555 334 q3 173 37 353 q-24 -3 -37 -3 q-16 0 -21 4 q-7 6 -7 21 q3 17 17 42 q20 33 33 39 q3 0 11 -4 q7 -4 16 -4 q14 0 96 11 q83 10 163 10 q63 -12 63 -65 q-3 -25 -87 -174 q59 -59 73 -102 q0 -91 -88 -102 q-59 0 -128 4 q0 -19 2 -51 q0 -20 -22 -20 l-101 0 l0 -10 q2 11 -5 -48 q112 12 160 14 q123 0 156 -108 q15 -79 18 -195 q-3 -19 -20 -19 l-121 0 q-17 0 -17 15 q0 136 8 174 q-9 31 -56 31 q-31 0 -135 -9 q-4 -101 -4 -207 q0 -16 -38 -16 l-86 0 q-20 3 -23 20 q8 114 28 191 q-81 -9 -180 -18 q-1 -2 -1 -5 q-9 -76 -12 -137 q0 -15 -19 -21 l-98 0 q-22 0 -22 21 q8 97 46 181 q29 51 59 76 q33 25 49 25 q17 -3 17 -23 l-6 -28 l200 27 q13 26 25 42 q31 59 57 68 ZM702 703 q-7 -72 -9 -133 q0 -76 1 -112 q72 -12 83 -12 q18 0 18 21 q-18 61 -71 124 q84 95 93 111 q0 11 -13 14 q-14 0 -102 -13 Z" /><glyph glyph-name="" unicode="&#x699c;" d="M918 743 q10 0 10 -11 q-18 -40 -26 -61 q-7 -24 -35 -27 q-22 -7 -29 -8 q-6 -49 -10 -102 q92 -7 119 -97 q16 -40 25 -115 q0 -13 -13 -13 l-80 0 q-6 -10 -9 -20 q-9 -22 -34 -25 q-35 -13 -107 -26 q-33 -6 -70 -9 q-15 -50 -24 -86 q87 39 129 45 q111 0 138 -97 q28 -66 34 -167 q-3 -16 -19 -16 l-107 0 q-16 0 -16 14 q-3 119 -10 147 q-8 28 -50 28 q-22 0 -124 -42 q-29 -105 -37 -137 q0 -12 -17 -12 l-105 24 q-12 9 -12 26 q69 166 113 267 l-28 0 q-52 7 -52 38 q7 40 70 79 q10 0 14 1 q9 -4 16 -14 q9 -8 46 -8 q17 0 25 1 q-5 14 -10 37 l-17 51 q0 5 1 7 l-123 -30 q-9 -39 -18 -87 q-4 -14 -21 -14 q-17 4 -34 9 q38 -43 40 -63 q0 -10 -3 -16 q0 -13 -78 -48 q-8 -7 -19 -7 q-7 3 -12 13 l-31 49 q-3 -159 -3 -299 q0 -17 -38 -17 l-89 0 q-20 3 -23 20 q3 146 12 270 q-25 -36 -43 -65 q-9 -12 -18 -12 q-49 30 -90 80 q0 12 10 19 q70 101 159 191 q6 63 15 117 q-88 2 -106 10 q-19 6 -19 25 q5 29 34 64 q30 32 49 39 q14 -3 32 -21 q4 -11 28 -11 q10 52 28 110 q36 67 64 71 q15 -6 15 -55 l-6 -119 q52 6 80 19 q12 0 12 -10 l-14 -44 q-6 -29 -16 -41 q-6 -17 -35 -23 q-9 -3 -31 -7 q-2 -50 -2 -74 q-2 -48 -2 -68 q15 -15 39 -35 q19 41 65 103 q40 49 67 64 q8 0 20 -4 q7 -9 7 -15 l-8 -39 q96 28 142 40 l57 12 q16 59 44 103 l-12 -2 q-59 -11 -156 -14 q32 -23 51 -61 q0 -6 -4 -14 q-25 -21 -71 -39 q-17 0 -20 13 q-12 43 -25 99 l-16 0 q-56 7 -56 41 q9 42 76 83 q9 0 14 2 q6 -2 18 -16 q9 -8 49 -8 q22 0 33 1 q-4 9 -10 29 l-9 27 q-6 19 -10 29 q0 20 21 20 q28 -5 60 -22 q62 -37 64 -48 q0 -11 -8 -17 l-18 -12 q24 2 36 4 q86 10 157 29 ZM652 423 q21 -7 39 -16 q57 -35 59 -44 q0 -11 -7 -16 q-17 -12 -34 -22 q23 2 45 6 q33 4 77 14 q-6 61 -13 85 q-5 19 -47 19 q-15 -2 -119 -26 Z" /><glyph glyph-name="" unicode="&#x7ed1;" d="M879 742 q59 -6 63 -54 q-3 -64 -15 -94 q-21 -80 -48 -176 q0 -10 2 -12 q78 -132 78 -238 q-9 -92 -117 -95 l-63 1 q2 -52 10 -145 q0 -19 -21 -19 l-94 0 q-22 0 -22 21 q1 327 38 692 l-2 0 q-15 0 -23 7 l-6 -16 q-5 -25 -13 -35 q-8 -17 -39 -23 q-12 -4 -41 -7 q-3 -40 -6 -95 q-1 -10 -1 -29 q46 6 66 16 q10 0 10 -8 l-12 -38 q-4 -23 -14 -36 q-6 -14 -34 -20 q-12 -4 -21 -4 q-2 -38 -4 -116 l4 0 q43 6 89 21 q10 0 10 -13 q-12 -26 -28 -66 q-9 -26 -39 -29 q-13 -3 -39 -7 q-2 -71 -2 -200 q0 -15 -34 -15 l-81 0 q-17 3 -20 18 q3 99 9 186 q-18 -1 -52 -1 q-55 7 -55 39 q9 43 74 82 q9 0 13 1 q6 -2 18 -16 q3 -3 8 -3 q6 72 10 111 q-72 1 -90 8 q-16 4 -16 21 q3 23 29 55 q25 27 41 33 q11 -3 28 -18 q3 -7 18 -9 q11 81 20 126 q-81 0 -104 7 q-16 6 -16 23 q3 23 30 56 q27 29 42 34 q11 -3 28 -18 q4 -11 30 -11 l9 0 q14 61 31 101 q30 59 55 62 q13 -6 13 -47 q-5 -36 -10 -109 q59 6 88 18 q3 13 12 28 q24 39 44 45 q7 -7 12 -11 q4 -7 18 -7 q25 2 59 13 q39 15 73 15 ZM779 637 q-5 -90 -7 -190 q15 32 34 82 q13 36 43 126 q-3 3 -10 3 q-31 -12 -60 -21 ZM771 375 q0 -124 4 -220 l17 0 q54 0 54 56 q-14 106 -75 197 l0 -33 ZM308 135 q14 0 14 -13 q-4 -47 -32 -75 q-72 -84 -191 -111 q-50 0 -50 47 q11 27 32 67 q19 25 28 29 l29 -11 q32 2 170 67 ZM319 785 q11 -5 11 -15 q0 -16 -45 -94 q-31 -55 -55 -90 q-33 -54 -39 -80 q0 -15 11 -16 l2 -3 q44 9 99 70 q13 8 21 8 q10 -5 10 -13 q0 -18 -40 -89 q-34 -56 -56 -98 q-42 -82 -56 -112 q4 -1 13 -1 q26 1 56 15 q27 10 55 30 q12 0 12 -11 q0 -43 -18 -63 q-26 -24 -52 -36 q-21 -11 -37 -16 q-49 -18 -96 -18 q-63 0 -63 80 q9 47 42 85 q41 48 74 81 q0 9 -11 9 l-36 0 q-60 14 -60 80 q0 63 74 146 q40 46 73 78 q63 58 90 71 q14 2 21 2 Z" /><glyph glyph-name="" unicode="&#x5305;" d="M524 796 q14 0 14 -13 q0 -20 -11 -45 q-29 -31 -85 -93 q277 40 315 40 q60 0 89 -26 q29 -26 33 -88 q0 -46 -12 -138 q-12 -85 -35 -216 q-7 -29 -34 -29 q-110 0 -149 4 q-14 0 -14 23 q103 266 107 318 q0 38 -31 38 q-145 -10 -378 -50 l-71 -83 l82 23 q131 28 196 28 q81 -15 81 -75 q-24 -95 -43 -201 q-9 -30 -29 -36 q-23 -14 -274 -49 q-7 -34 -7 -57 q0 -42 40 -42 q362 0 466 22 q88 9 157 45 q36 -3 36 -48 q0 -31 -19 -55 q-19 -25 -54 -37 q-175 -36 -651 -36 q-145 0 -145 107 q11 123 96 288 q-23 -4 -40 -4 q-25 0 -25 28 q1 28 18 61 l5 9 l-49 21 q-26 6 -26 34 q19 29 100 120 q71 63 135 113 q135 97 212 99 ZM299 227 l116 18 q29 0 29 29 l42 106 q-3 6 -15 6 q-51 -10 -124 -30 q-28 -64 -43 -110 l-5 -19 Z" /><glyph glyph-name="" unicode="&#x4fdd;" d="M411 776 q24 0 27 -13 q0 -27 -106 -181 q-7 -82 -15 -218 q-9 -231 -9 -418 q0 -17 -37 -17 l-87 0 q-20 3 -23 21 q9 265 39 434 q-36 -58 -45 -63 q-17 0 -25 5 q-45 27 -78 88 q0 15 3 24 q31 66 187 215 q99 92 169 123 ZM579 795 q28 0 28 -25 l-6 -18 q65 18 107 25 q86 0 129 -34 q67 -50 67 -291 q0 -33 -23 -33 l-98 -4 q-27 0 -27 23 l0 9 q-47 -13 -63 -16 l5 -10 q-3 -21 -6 -82 q153 5 216 16 q11 0 11 -8 q-5 -19 -13 -41 q-6 -27 -15 -39 q-17 -13 -100 -19 q-28 -3 -79 -6 l236 -186 q13 -10 13 -23 q-14 -33 -84 -86 q-16 -7 -25 -7 q-13 0 -73 77 q-65 73 -98 112 q-1 -22 -1 -63 l2 -142 q-3 -13 -23 -13 l-100 0 q-23 0 -25 17 q0 73 6 151 q-48 -57 -109 -123 q-3 -8 -24 -8 q-60 32 -91 58 q-3 6 -3 17 q96 99 164 160 l59 54 q-14 -1 -42 -1 q-118 0 -141 9 q-18 6 -18 23 q3 24 32 61 q27 29 45 36 q13 -3 30 -20 q10 -10 65 -10 l81 1 q9 21 23 48 q14 23 28 37 q-63 -10 -123 -12 q-105 0 -117 73 q0 89 54 185 q68 106 126 128 ZM757 662 q0 37 -55 37 q-50 -16 -134 -52 q-19 -72 -24 -126 q0 -22 16 -22 q91 6 197 37 l0 126 Z" /><glyph glyph-name="" unicode="&#x62a5;" d="M157 644 q14 -4 31 -19 q5 -12 35 -12 q12 0 18 1 q14 61 35 113 q42 78 76 84 q17 -8 17 -64 q-9 -63 -14 -126 q62 6 88 17 q10 0 10 -7 q-5 -19 -12 -38 q-3 -21 -13 -35 q-9 -20 -47 -28 q-19 -6 -35 -8 l-6 -71 l-6 -99 q48 17 80 31 q15 0 15 -13 q-4 -48 -33 -75 q-29 -25 -67 -47 q-7 -162 -7 -326 q0 -17 -39 -17 l-92 0 q-20 3 -23 21 q4 129 14 261 q-49 -13 -101 -21 q-45 0 -45 41 q6 16 28 60 q15 23 26 26 q13 -3 26 -9 q22 0 76 18 q13 124 28 210 q-104 0 -125 9 q-17 6 -17 25 q4 25 33 61 q28 30 46 37 ZM864 407 q53 -6 53 -47 q-5 -33 -70 -141 q-18 -34 -48 -84 q55 -39 154 -115 q9 -7 9 -14 q0 -5 -5 -13 q-9 -15 -88 -79 q-7 -5 -14 -5 q-9 0 -18 6 l-107 114 q-75 -112 -92 -122 q-6 0 -14 4 q-59 41 -86 82 l0 17 q41 49 98 120 q-37 38 -62 68 q-10 11 -10 25 q0 13 20 22 q9 0 25 -2 q36 -15 84 -42 q57 71 77 108 q0 7 -8 7 q-120 -41 -155 -41 q-27 0 -27 23 q7 22 19 44 q22 38 38 43 q7 -5 12 -5 l13 -7 q17 0 89 12 q80 22 113 22 ZM780 768 q129 0 129 -84 q-24 -206 -35 -225 q-16 -26 -72 -26 q-108 10 -203 24 q-45 -272 -79 -519 q0 -13 -20 -13 l-115 28 q-13 9 -13 27 q67 319 139 651 q-16 -4 -26 -4 q-23 0 -29 12 q0 24 21 61 q24 35 45 44 l13 -7 q3 -6 15 -6 q13 0 80 19 q84 15 150 18 ZM609 519 q51 -6 111 -6 q15 0 33 12 q19 16 53 157 q0 15 -10 15 q-41 0 -164 -32 l-23 -146 Z" /><glyph glyph-name="" unicode="&#x7206;" d="M87 606 q32 0 73 -62 l26 -42 q58 179 102 241 q21 22 41 28 q30 -3 30 -38 q-24 -103 -45 -198 l23 13 l23 10 q13 5 32 2 q13 -10 13 -17 l0 -8 q-3 -20 -101 -147 q-6 -7 -16 -7 q-5 0 -8 3 q-6 -24 -8 -35 q-14 -58 -31 -135 l130 -108 q12 -9 12 -21 q-15 -33 -76 -79 q-10 -5 -24 -5 q-7 0 -40 51 q-20 26 -28 38 l-11 -56 q-18 -101 -22 -108 q-9 -7 -24 -7 q-46 5 -88 21 q-15 1 -18 17 q3 37 20 122 q13 63 43 181 l22 83 q-36 104 -71 214 q0 34 21 49 ZM549 811 q24 0 24 -20 l-1 -3 q57 14 107 20 q83 0 122 -27 q70 -37 70 -214 q0 -31 -22 -31 l-84 -4 q0 -12 2 -28 q65 7 109 17 q9 0 9 -12 q-15 -33 -26 -59 q-7 -22 -34 -25 q-19 -3 -52 -7 q0 -20 3 -38 q64 7 140 20 q10 0 10 -12 l-27 -63 q-7 -24 -36 -27 q-27 -6 -60 -9 q27 -17 48 -29 q38 -23 61 -35 l56 -32 q6 -6 6 -12 q-13 -23 -40 -50 q-27 -25 -41 -35 q-7 -7 -16 -7 q-7 2 -13 7 q-17 14 -53 51 l-13 13 q-18 -16 -42 -36 l0 -3 q28 -35 78 -73 q72 -64 62 -54 q7 -7 7 -17 q-9 -13 -53 -41 q-23 -14 -39 -14 q-22 0 -100 87 q-22 25 -35 44 l0 -32 l4 -103 q-3 -12 -20 -12 l-90 0 q-19 0 -21 16 q0 60 6 123 q-34 -36 -123 -125 q-10 -5 -14 -5 q-7 0 -17 8 q-26 21 -47 49 q-7 8 -10 15 q0 6 4 11 l155 134 q0 4 -6 4 l-44 -1 l-19 -24 q-13 -10 -21 -15 q-9 0 -17 5 q-20 8 -64 58 q-5 5 -7 13 q0 4 10 14 q16 16 59 50 l42 31 l-42 0 q-51 8 -51 37 q9 40 68 77 q10 0 14 1 q7 -4 15 -14 q9 -8 44 -8 l13 0 l7 41 l-60 0 q-48 6 -48 34 q7 34 65 71 q9 0 13 1 q5 -2 14 -13 q8 -7 41 -7 l2 0 q13 26 17 32 q-28 -2 -39 -2 q-92 0 -103 57 q0 68 42 140 q53 80 101 97 ZM690 178 q28 17 58 31 q-33 30 -62 59 l-6 -97 l10 7 ZM508 202 q48 0 81 3 q13 29 28 51 q3 5 13 17 q-30 -3 -60 -3 l-62 -68 ZM607 364 q21 1 63 5 q1 13 5 39 q-44 -4 -67 -4 l-1 -40 ZM609 489 q55 4 86 7 l1 3 q8 24 19 46 q-58 -14 -105 -20 l-1 -36 ZM727 616 q-1 10 -1 29 q-87 -18 -192 -31 q-1 -4 -1 -9 q0 -17 14 -17 q85 5 180 28 ZM725 718 q0 29 -52 29 q-56 -15 -123 -40 l-6 -27 q105 11 181 28 l0 10 Z" /><glyph glyph-name="" unicode="&#x676f;" d="M149 672 q13 -2 30 -19 q6 -10 32 -10 l4 0 q13 60 26 94 q36 67 65 71 q14 -6 14 -54 l-6 -106 q78 5 109 16 q12 0 12 -10 q-11 -37 -14 -44 q-6 -29 -17 -41 q-10 -11 -44 -14 q-22 -4 -50 -5 q-2 -31 -4 -95 q-2 -52 -2 -74 q30 -35 74 -90 q66 122 215 332 q-106 0 -128 8 q-20 6 -20 27 q4 27 35 65 q30 32 50 40 q14 -3 32 -21 q9 -12 49 -12 q230 5 305 28 q12 0 12 -9 l-14 -45 q-6 -31 -17 -42 q-13 -19 -70 -25 q-46 -7 -116 -10 q-59 -121 -86 -178 q69 18 82 18 q53 0 78 -20 q26 -20 29 -68 q0 -31 -5 -98 q9 -4 27 -10 q76 -26 112 -40 q24 -9 24 -27 q-3 -28 -43 -112 q-3 -9 -20 -9 q-16 9 -115 71 q-17 -119 -34 -218 q-6 -25 -31 -25 q-78 0 -130 4 q-14 0 -14 20 q104 343 109 414 q0 30 -28 30 q-43 -7 -84 -20 q-17 -37 -69 -145 q-3 -7 -22 -7 q-34 6 -74 27 q25 -42 26 -61 q0 -9 -3 -15 q0 -14 -78 -49 q-8 -7 -18 -7 q-6 2 -13 13 l-32 64 q-2 -92 -2 -257 q0 -17 -38 -17 l-90 0 q-20 3 -23 20 q2 95 10 236 l-25 -43 q-9 -12 -18 -12 q-49 30 -90 80 q0 11 10 20 q60 96 143 189 q10 96 20 152 q-84 0 -105 7 q-17 6 -17 24 q3 24 31 58 q27 30 44 36 Z" /><glyph glyph-name="" unicode="&#x60b2;" d="M408 694 l13 26 q36 68 64 72 q15 -6 15 -55 q-7 -47 -17 -176 q-10 -166 -10 -314 q0 -10 -11 -13 q2 -6 2 -9 q0 -24 -33 -101 q-23 -54 -28 -81 q0 -33 19 -34 q244 0 313 4 q31 3 53 34 q10 13 24 13 q29 -12 29 -53 q0 -68 -117 -74 q-64 -4 -324 -4 q-143 3 -143 94 q2 54 55 125 q44 52 99 83 l-59 0 q-19 2 -22 20 q0 23 3 44 q-32 -16 -77 -31 q-84 -33 -130 -39 q-32 0 -35 24 q0 23 10 52 q3 12 13 28 q8 11 18 15 q10 -5 21 -5 q8 -2 22 -2 q33 3 137 41 l28 11 q2 27 8 69 q-26 -11 -69 -25 q-72 -25 -111 -30 q-32 0 -35 23 q0 24 10 53 q3 13 13 27 q7 11 18 16 q9 -4 21 -6 q8 -2 22 -2 q35 4 112 23 l34 9 q6 29 17 71 l-2 -1 q-40 -14 -89 -25 q-75 -21 -117 -24 q-30 0 -33 22 q0 22 9 49 q4 13 13 26 q6 9 17 14 q9 -5 20 -6 q7 -1 20 -1 q31 0 122 12 l68 11 ZM263 218 q15 0 15 -13 q0 -24 -12 -50 q-51 -91 -98 -190 q-5 -17 -21 -17 l-85 38 q-20 6 -20 27 q8 16 50 74 q35 40 65 70 q67 59 106 61 ZM728 231 q116 -3 223 -92 q9 -9 9 -18 q0 -7 -26 -44 q-31 -39 -39 -39 q-17 0 -25 7 q-100 90 -158 147 q-10 10 -11 22 q6 17 27 17 ZM535 194 q81 -2 157 -55 q8 -10 8 -15 q0 -7 -24 -40 q-30 -36 -36 -36 q-16 0 -22 5 q-47 50 -97 105 q-8 7 -10 20 q6 16 24 16 ZM916 438 q13 0 13 -12 q-2 -4 -10 -36 q-8 -34 -14 -40 q-15 -15 -99 -30 q-78 -17 -129 -22 l0 -53 q0 -16 -35 -16 l-83 0 q-18 1 -21 20 q13 333 74 463 q36 69 67 74 q15 -6 15 -57 q-2 -17 -4 -56 q69 9 126 24 q67 12 98 21 q9 0 9 -8 q-3 -16 -12 -41 q-6 -30 -23 -38 q-24 -18 -94 -30 q-35 -7 -74 -12 l-35 -4 l-2 -52 q57 9 110 21 q69 13 96 22 q8 0 8 -9 q-5 -23 -11 -41 q-6 -29 -24 -38 q-25 -19 -93 -29 q-36 -7 -72 -12 q-12 -2 -16 -2 q-2 -38 -2 -52 q186 30 237 45 Z" /><glyph glyph-name="" unicode="&#x5317;" d="M707 763 q16 0 16 -21 q-25 -129 -38 -259 q11 -3 25 -3 q46 1 104 17 q54 12 102 33 q16 0 16 -13 q0 -49 -29 -70 q-40 -29 -83 -41 q-53 -23 -145 -33 q-8 -106 -10 -236 q3 -76 76 -79 q48 -3 99 -3 q68 6 105 35 q27 0 27 -46 q0 -72 -152 -81 q-51 -3 -95 -3 q-201 0 -210 147 q0 292 92 547 q54 94 100 109 ZM291 472 q27 127 60 199 q40 76 79 88 q20 -3 20 -29 q-35 -357 -46 -622 q0 -65 -61 -86 q-62 -30 -131 -50 q-110 -28 -147 -28 q-29 0 -29 37 q9 26 27 55 q25 40 48 46 q7 0 17 -7 q10 -13 23 -15 q20 0 44 12 q21 6 42 21 q17 2 17 25 q6 137 21 253 q-54 -26 -153 -38 q-60 0 -60 26 q0 23 20 63 q29 40 49 47 q12 -5 27 -17 q14 -7 38 -7 q39 3 87 24 l8 3 Z" /><glyph glyph-name="" unicode="&#x8f88;" d="M860 373 q10 0 10 -11 q-13 -28 -25 -62 q-9 -23 -35 -26 q-91 -13 -210 -19 q-76 -7 -194 -10 q-5 -10 -7 -20 q0 -21 48 -21 q33 0 50 1 l4 5 q27 30 61 36 q16 0 23 -21 q-2 -8 -2 -16 q106 5 211 19 q12 0 12 -14 q-3 -43 -28 -50 q-61 -28 -164 -41 l-42 -6 q-2 -12 -2 -35 q175 6 293 23 q38 4 57 7 q14 0 14 -12 q-20 -44 -31 -65 q-8 -24 -38 -29 q-81 -18 -297 -27 l1 -63 q-3 -13 -21 -13 l-99 0 q-21 0 -23 18 q0 36 2 53 q-35 0 -51 -1 l-209 1 q-60 4 -74 14 q-23 12 -23 41 q9 23 25 41 q15 18 43 35 q10 0 15 1 q6 -3 20 -17 q12 -9 53 -9 q93 -3 167 -3 q31 0 46 1 l5 26 q0 2 2 6 l-18 0 q-163 0 -184 102 q0 15 6 31 l-57 0 q-55 7 -55 41 q9 43 75 83 q10 0 15 2 q6 -3 17 -17 q11 -8 49 -8 l32 0 q21 18 56 40 l-61 -1 q-21 0 -24 29 q0 14 3 27 q-33 -11 -57 -17 q-75 -24 -117 -27 q-32 0 -35 24 q0 23 10 52 q3 12 13 28 q8 11 18 15 q9 -4 21 -6 q8 -2 22 -2 q34 2 120 16 q14 2 20 4 q2 14 10 40 q-28 -9 -57 -15 q-66 -18 -102 -21 q-28 0 -31 21 q0 22 9 47 q3 11 12 26 q5 8 16 13 q12 -4 18 -5 q7 -1 20 -1 q31 0 101 7 l41 4 q10 23 19 40 q-50 -12 -94 -17 q-74 -13 -128 -17 q-30 0 -33 22 q0 23 10 49 q4 13 13 26 q6 11 16 14 q11 -4 21 -5 q7 -2 19 -2 l222 0 q0 1 3 4 q24 33 52 44 q21 0 24 -19 q-55 -162 -63 -364 l0 -2 q34 20 50 20 q31 0 31 -30 q-30 -37 -44 -58 q38 1 109 5 q139 6 280 21 ZM919 546 q12 0 12 -12 l-9 -34 q-7 -33 -13 -37 q-15 -11 -106 -20 q-71 -10 -133 -15 q-1 -32 -28 -32 l-86 -1 q-23 0 -26 28 q21 220 120 343 q25 32 52 44 q22 0 25 -19 l-13 -48 q51 5 116 16 q76 10 103 17 q8 0 8 -9 l-11 -41 q-6 -29 -24 -38 q-22 -17 -94 -29 l-79 -6 q-28 -2 -38 -2 l-5 -25 l102 12 q63 7 97 14 q7 0 7 -8 q-4 -17 -10 -37 q-6 -26 -21 -34 q-22 -17 -85 -26 q-39 -5 -77 -6 q-18 -2 -24 -2 q-3 -12 -3 -23 q189 18 243 30 Z" /><glyph glyph-name="" unicode="&#x80cc;" d="M697 808 q8 -8 8 -18 q-17 -48 -30 -95 q34 4 64 10 q114 18 162 30 q7 0 7 -6 q-4 -13 -12 -34 l-8 -23 q-3 -28 -84 -48 q-91 -19 -150 -28 q-4 -27 -4 -48 q5 -33 27 -33 q70 5 118 5 q58 2 82 15 q20 13 31 13 q11 -3 16 -14 q0 -22 -6 -40 q-20 -62 -127 -63 l-185 -7 q-85 6 -85 130 q3 69 47 148 q35 56 71 83 q28 23 58 23 ZM188 716 q13 -3 28 -17 q4 -10 25 -10 q81 0 127 3 q13 36 30 61 q34 62 66 73 q16 -3 16 -24 q-12 -169 -15 -284 q0 -58 -51 -78 q-65 -25 -134 -42 q-103 -23 -150 -23 q-26 0 -26 33 q6 23 24 49 q21 36 43 42 q7 0 16 -6 q7 -11 20 -13 q25 0 58 9 q29 5 55 15 q15 0 15 19 q2 32 10 80 q-40 -4 -82 -4 q-110 0 -129 8 q-16 6 -16 22 q3 22 29 54 q25 27 41 33 ZM679 201 q-52 -21 -104 -30 q-86 -26 -258 -38 q-3 -27 -3 -49 q3 -1 10 -1 q102 2 219 21 q63 8 140 25 l-4 72 ZM669 282 q-6 44 -55 44 q-89 -14 -285 -67 q-1 -15 -3 -27 q7 -2 21 -2 q93 3 197 25 q64 10 125 27 ZM345 365 q178 40 298 40 q105 -5 141 -94 q33 -24 72 -386 q0 -24 -22 -24 l-114 0 q-33 3 -33 28 l-1 118 q-60 -20 -108 -28 q-95 -24 -268 -36 q-1 -12 -1 -38 q0 -38 -35 -38 l-99 -2 q-27 0 -30 34 q20 259 114 403 q27 38 58 51 q26 0 29 -22 q-1 -2 -1 -6 Z" /><glyph glyph-name="" unicode="&#x8d1d;" d="M361 772 q22 -3 22 -27 l-10 -25 q173 29 294 32 q147 -9 171 -198 q26 -169 42 -361 q0 -33 -27 -33 l-121 0 q-31 0 -31 33 q0 200 -6 389 q0 70 -50 70 q-10 0 -124 -13 q-78 -12 -186 -30 q-14 -46 -32 -126 q-20 -109 -37 -225 q29 38 89 110 q152 159 237 162 q20 0 20 -19 q0 -29 -15 -62 q-154 -222 -334 -527 q-6 -23 -28 -23 l-111 50 q-27 8 -27 36 q20 49 101 180 l-77 0 q-25 0 -25 25 q12 198 79 374 q44 99 101 157 q56 51 85 51 ZM505 215 q89 -12 183 -65 q191 -109 196 -141 q0 -16 -11 -25 q-91 -60 -125 -69 q-21 0 -31 16 q-72 79 -104 116 q-88 88 -138 137 q0 31 30 31 Z" /><glyph glyph-name="" unicode="&#x88ab;" d="M181 250 q-37 -44 -46 -46 q-8 0 -13 4 q-56 38 -82 78 l0 16 q42 39 144 143 q101 101 131 146 q0 7 -6 7 q-167 -58 -212 -58 q-28 0 -28 23 q7 22 19 44 q21 36 38 43 q6 -4 13 -6 l12 -7 q13 0 46 9 q-4 2 -4 5 q-10 31 -17 59 l-23 69 q0 20 21 20 q30 -4 63 -30 q66 -51 68 -65 q0 -11 -8 -17 q-24 -18 -42 -27 q15 3 34 9 q78 20 113 20 q53 -6 53 -44 q-5 -31 -81 -137 q-26 -44 -81 -118 l0 -39 q31 23 67 45 l23 9 q12 5 28 2 q13 -10 13 -17 l0 -7 q-3 -17 -85 -124 q49 -28 63 -40 q5 -7 5 -14 q0 -9 -30 -36 q-29 -35 -41 -38 q-10 0 -15 4 q-20 18 -30 28 q-1 -129 -3 -231 q0 -22 -17 -22 l-108 0 q-17 0 -17 22 q18 186 35 318 ZM753 808 q16 -3 16 -19 q-6 -49 -8 -79 q50 16 101 36 q62 0 71 -50 q0 -35 -15 -85 l-44 -142 q-4 -12 -20 -12 q-49 14 -83 37 q-12 6 -12 16 l48 111 q0 9 -12 9 q-14 -5 -40 -13 l-1 -21 q-5 -80 -7 -167 q9 2 30 4 q89 -6 89 -92 q0 -18 -90 -189 q18 -12 33 -20 q86 -51 153 -99 q13 -11 13 -21 q0 -5 -2 -17 q-28 -53 -54 -82 q-10 -8 -24 -8 q-97 76 -172 143 q-34 -65 -68 -127 q-12 -9 -23 -9 q-56 23 -111 67 q0 8 3 18 q22 37 81 121 l8 12 q6 9 8 11 q-40 38 -59 58 q-10 7 -10 18 q6 19 47 19 q25 -6 69 -26 q77 113 77 122 q0 15 -16 15 q-51 -14 -184 -83 q-13 -106 -41 -347 q0 -12 -18 -12 l-104 24 q-12 9 -12 26 q48 265 111 602 q-26 5 -27 28 q0 17 17 42 q28 40 46 44 q8 0 12 -9 q7 -11 19 -11 q30 0 120 29 q20 57 43 91 q28 37 42 37 ZM559 372 q70 25 63 23 q5 101 22 188 q-6 -3 -10 -3 q-22 -7 -50 -13 l-25 -195 Z" /><glyph glyph-name="" unicode="&#x672c;" d="M553 807 q15 -6 15 -56 l-5 -102 q16 0 31 3 q134 11 265 36 q13 0 13 -15 q-20 -42 -33 -80 q-12 -30 -46 -33 q-74 -20 -205 -34 q-10 -2 -30 -4 q-1 -6 -1 -14 l403 -386 q15 -10 15 -27 q-19 -42 -95 -97 q-17 -7 -29 -7 q-20 0 -119 133 q-13 14 -32 37 l-9 -28 q-3 -26 -15 -40 q-12 -17 -65 -23 q-19 -4 -63 -7 q-1 -48 -1 -137 q0 -18 -41 -18 l-97 0 q-21 3 -24 22 q1 48 5 126 q-97 0 -118 9 q-17 6 -17 25 q5 28 34 63 q29 30 47 38 q14 -3 31 -20 q7 -10 29 -10 q9 149 24 264 q-166 -284 -245 -424 q-3 -8 -22 -8 q-52 9 -117 50 q-10 4 -10 16 q93 161 318 449 q-48 -2 -152 -2 q-73 9 -73 52 q12 56 99 109 q10 0 19 3 q11 -5 24 -22 q12 -11 62 -11 q74 0 135 4 q11 45 28 92 q36 69 67 74 ZM549 166 q93 6 132 17 q-59 67 -129 152 q-3 -88 -3 -169 Z" /><glyph glyph-name="" unicode="&#x903c;" d="M579 660 q24 0 27 -18 q112 21 164 24 q92 0 116 -91 q14 -50 17 -116 q-3 -16 -16 -16 l-102 0 q-14 0 -14 13 l0 8 q-131 -32 -254 -35 q-108 0 -120 62 q0 48 54 99 q70 58 128 70 ZM773 538 q0 20 3 29 q-6 22 -47 22 q-26 0 -167 -21 q-13 -29 -16 -44 q0 -19 16 -19 q97 6 211 33 ZM533 419 q29 0 29 -25 q-4 -8 -5 -12 q147 34 246 37 q105 -6 123 -122 q20 -94 34 -215 q0 -30 -24 -30 l-106 0 q-26 0 -27 26 q-180 -35 -350 -38 q-107 0 -119 73 q0 90 59 181 q77 102 140 125 ZM803 227 q-68 -12 -101 -16 l-7 -62 q46 5 108 17 l0 61 ZM804 297 q0 51 -45 51 q-9 0 -44 -6 q-3 -35 -6 -59 l95 14 ZM620 324 q-17 -5 -47 -12 l-51 -13 q-10 -23 -16 -44 q68 8 105 13 l9 56 ZM601 197 q-52 -8 -114 -13 l-5 -32 q0 -22 16 -22 q51 2 95 7 q2 20 8 60 ZM132 702 q94 -3 184 -75 q9 -9 9 -19 q0 -7 -27 -45 q-31 -40 -40 -40 q-18 0 -26 7 q-57 62 -116 132 q-11 9 -12 22 q6 18 28 18 ZM275 441 q57 0 57 -63 q-3 -42 -20 -108 q-22 -83 -36 -142 q-13 -55 -16 -92 q0 -33 34 -33 q83 0 164 4 q111 2 192 12 q54 12 96 37 q41 0 41 -43 q0 -53 -123 -76 q-106 -22 -365 -26 q-182 0 -182 123 q6 54 30 141 q39 112 50 147 q0 12 -14 12 q-76 -25 -108 -25 q-25 0 -25 24 q2 13 19 48 q21 32 30 32 q4 0 17 -6 q11 -9 20 -10 q17 8 63 27 q53 17 76 17 ZM926 812 q9 0 9 -11 l-25 -56 q-9 -22 -33 -25 q-54 -14 -147 -25 q-108 -15 -283 -15 q-52 7 -52 38 q8 41 70 80 l14 0 q9 -4 16 -14 q9 -8 46 -8 q102 0 193 11 q101 8 192 25 Z" /><glyph glyph-name="" unicode="&#x2f50;&#x6bd4;" d="M936 571 q11 0 11 -12 l-9 -34 q-6 -31 -12 -37 q-18 -33 -110 -63 q-86 -35 -157 -48 q-1 -4 -1 -8 q-29 -183 -29 -280 q6 -36 33 -36 l151 1 q71 1 104 17 q26 16 40 16 q14 -6 18 -16 q0 -20 -7 -46 q-21 -67 -144 -70 l-242 -4 q-105 8 -105 145 q5 191 76 420 q54 162 113 235 q31 28 67 28 q11 -9 11 -23 q-39 -129 -64 -264 q194 50 256 79 ZM294 757 q19 0 19 -22 q-37 -172 -54 -302 q175 32 222 49 q12 0 12 -12 q-3 -8 -9 -34 q-6 -31 -12 -37 q-16 -23 -102 -46 q-71 -22 -126 -32 q-21 -156 -28 -247 q0 -16 19 -16 q61 0 201 73 q9 0 9 -7 l-15 -71 q-8 -32 -77 -59 q-125 -41 -200 -41 q-82 4 -88 111 q3 180 85 457 q69 188 144 236 Z" /><glyph glyph-name="" unicode="&#x7b14;" d="M714 520 q12 0 12 -9 q0 -49 -47 -72 q-64 -29 -138 -43 q-18 -6 -32 -8 l-11 -51 q11 0 23 3 q152 20 278 52 q12 0 12 -9 q0 -57 -63 -83 q-84 -33 -180 -48 q-44 -10 -88 -17 q-4 -20 -8 -64 q24 3 74 11 q176 24 335 65 q12 0 12 -9 q0 -65 -75 -94 q-96 -36 -214 -55 q-61 -13 -141 -24 q-1 -6 -1 -18 q3 -47 51 -47 q287 0 318 7 q30 9 55 28 q13 13 30 14 q22 -6 22 -34 q0 -92 -167 -104 q-97 5 -284 5 q-188 3 -188 123 q0 6 1 10 q-103 -8 -170 -10 q-59 0 -59 26 q0 25 20 62 q30 41 48 46 q12 -6 26 -17 q14 -7 38 -7 q56 0 116 6 q9 34 19 63 q-95 -7 -170 -11 q-59 0 -59 25 q0 24 20 61 q30 41 48 45 l25 -17 q14 -7 36 -7 q61 0 135 8 l18 48 q-62 -8 -154 -13 q-56 0 -56 25 q0 20 18 59 q31 40 47 44 q13 -6 25 -17 q13 -5 36 -5 q89 0 206 19 q115 16 201 38 ZM637 517 q-5 -11 -16 -11 q-13 1 -57 32 q-34 23 -42 34 q-3 3 -3 10 q43 77 130 159 q81 61 98 61 q11 0 17 -6 l2 -13 q0 -12 -33 -72 l-2 -4 q4 -2 18 -2 q143 1 191 9 q10 0 10 -8 q-5 -19 -12 -38 q-3 -23 -13 -37 q-8 -7 -40 -8 q-16 -3 -45 -3 q40 -41 41 -56 q0 -6 -2 -14 q0 -11 -70 -44 q-9 -6 -16 -6 q-7 3 -13 12 q-32 62 -62 106 q-22 0 -30 1 l-51 -102 ZM289 627 q-53 -81 -88 -131 l-13 0 q-49 19 -95 62 q-7 8 -7 19 q32 54 99 115 q75 64 163 104 q12 6 25 6 q12 -3 12 -11 q0 -12 -40 -78 l9 0 q134 0 185 8 q10 0 10 -7 q-4 -16 -12 -39 q-4 -23 -14 -36 q-6 -8 -39 -8 q-14 -2 -50 -4 q35 -39 36 -54 q0 -6 -2 -14 q0 -11 -69 -43 q-7 -6 -15 -6 q-6 3 -12 12 q-29 59 -56 104 q-19 0 -27 1 Z" /><glyph glyph-name="" unicode="&#x5f7c;" d="M389 772 q32 0 37 -17 q0 -21 -120 -149 l-102 -114 q-33 -40 -40 -43 q-15 0 -22 4 q-40 25 -71 79 q0 18 2 22 q26 41 165 139 q85 57 151 79 ZM347 518 q32 0 37 -17 q0 -23 -96 -145 q0 -189 2 -423 q0 -23 -18 -23 l-111 0 q-16 0 -16 23 q9 129 24 267 l-2 -3 q-33 -48 -40 -51 q-15 0 -23 4 q-41 23 -73 83 q0 18 2 23 q27 50 164 166 q87 72 150 96 ZM730 808 q16 -3 16 -20 q-6 -36 -9 -76 q61 16 119 34 q64 0 75 -53 q0 -36 -15 -84 l-44 -139 q-4 -13 -21 -13 q-49 15 -88 39 q-12 6 -12 17 q21 40 47 100 q0 9 -12 9 l-57 -14 q-1 -4 -1 -12 q-6 -91 -9 -168 q26 5 45 6 q94 -6 94 -97 q0 -19 -102 -187 q10 -6 30 -16 q90 -46 176 -96 q14 -11 14 -22 q0 -7 -2 -19 q-29 -55 -57 -86 q-10 -8 -25 -8 q-94 63 -198 142 q-31 -52 -78 -125 q-12 -9 -24 -9 q-64 28 -117 70 q0 10 4 19 q20 31 91 118 l13 15 q-39 32 -75 63 q-12 9 -12 20 q6 20 51 20 q34 -7 93 -32 q90 113 90 122 q0 16 -17 16 q-61 -14 -218 -84 q-26 -179 -48 -341 q0 -12 -17 -12 l-111 26 q-11 8 -11 26 q54 272 121 595 q-47 0 -48 31 q0 19 17 44 q30 42 49 46 q8 0 14 -8 q8 -11 19 -11 q38 0 161 33 q19 50 44 84 q31 37 45 37 ZM512 373 l76 24 q6 95 24 184 l-21 -5 q-32 -8 -50 -11 q-4 -30 -15 -98 l-14 -94 Z" /><glyph glyph-name="" unicode="&#x5e01;" d="M552 589 q16 -8 16 -63 l0 -57 q33 3 66 3 q227 -9 256 -157 q31 -128 35 -285 q0 -25 -18 -27 q-30 -2 -133 -2 q-14 0 -15 17 q0 263 -18 293 q0 58 -127 67 q-23 0 -46 -3 q-1 -22 -1 -65 l0 -385 q0 -18 -41 -18 l-96 0 q-22 3 -25 22 q9 261 36 420 l-45 -14 q-72 -25 -131 -54 q-6 -30 -8 -49 q-13 -101 -22 -200 q0 -19 -22 -25 l-111 0 q-26 0 -26 25 q9 137 60 258 q34 68 77 108 q43 34 64 34 q17 -3 17 -21 q-1 -6 -3 -9 q85 34 172 52 q4 21 16 52 q41 79 73 83 ZM845 783 q14 0 14 -12 q0 -66 -60 -96 q-82 -38 -177 -55 q-138 -37 -392 -52 q-68 0 -68 31 q0 26 24 72 q34 46 55 52 q20 -12 30 -20 q16 -8 43 -8 q125 3 269 30 q131 20 262 58 Z" /><glyph glyph-name="" unicode="&#x95ed;" d="M219 516 q15 -6 15 -56 q-4 -41 -11 -190 q-7 -174 -7 -338 q0 -17 -39 -17 l-92 0 q-20 3 -23 21 q16 365 90 506 q36 69 67 74 ZM176 774 q40 -7 86 -41 q90 -69 92 -89 q0 -14 -9 -22 q-79 -56 -115 -64 q-21 0 -28 16 q-7 20 -23 79 q-26 75 -32 94 q0 27 29 27 ZM754 774 q136 0 136 -98 q38 -573 50 -727 q0 -34 -28 -34 l-134 0 q-25 0 -25 38 q0 392 3 665 q0 43 -54 43 q-55 -7 -158 -33 q-83 -26 -118 -31 q-47 0 -47 35 q6 40 37 77 q34 37 51 37 q10 -7 13 -14 q10 -7 14 -8 q23 0 76 14 q90 14 184 36 ZM360 453 q12 -3 30 -18 q6 -11 46 -11 q63 2 92 4 q16 66 38 123 q25 35 53 46 q23 0 26 -20 q-6 -69 -9 -138 q56 9 88 21 q9 0 9 -8 l-11 -39 q-6 -25 -15 -37 q-12 -21 -67 -29 l-9 -2 q-10 -189 -11 -374 q0 -35 -31 -35 l-93 -2 q-25 0 -28 31 q5 108 13 186 q-55 -79 -111 -151 q-4 -9 -26 -9 q-66 33 -103 65 q-3 6 -3 19 q104 113 182 188 l37 36 q23 23 35 34 q-27 -3 -54 -3 q-114 0 -135 9 q-16 4 -16 22 q3 24 30 57 q28 30 43 35 Z" /><glyph glyph-name="" unicode="&#x5fc5;" d="M477 595 q14 -5 14 -20 q-66 -225 -84 -315 q0 -35 48 -43 l18 0 q35 77 98 205 q133 243 214 290 q21 0 21 -14 q-10 -36 -43 -110 l-84 -208 l-56 -162 q51 0 99 3 q111 12 152 53 q10 2 14 2 q23 -15 23 -49 q-6 -44 -47 -62 q-43 -28 -136 -34 q-72 -4 -138 -6 l-75 -207 q-5 -17 -19 -17 q-55 16 -95 30 q-26 7 -28 26 q13 46 59 165 l-15 0 q-158 1 -158 151 q28 169 179 312 q22 10 39 10 ZM784 507 q44 -8 93 -46 q96 -81 99 -102 q0 -13 -8 -19 q-63 -43 -92 -50 q-17 0 -23 12 q-26 52 -40 83 l-51 100 q0 22 22 22 ZM282 553 q24 -3 24 -29 l-67 -164 q-38 -91 -52 -136 q-15 -45 -17 -46 q-8 -8 -27 -8 q-51 5 -98 25 q-18 0 -21 17 q3 15 20 49 q22 45 41 75 q99 154 166 196 q15 16 31 21 ZM479 724 q37 -9 79 -45 q82 -78 85 -98 q0 -12 -8 -18 q-61 -42 -88 -49 q-16 0 -22 12 q-6 18 -29 80 l-39 97 q0 21 22 21 Z" /><glyph glyph-name="" unicode="&#x8f9f;" d="M399 765 q90 0 99 -60 q0 -99 -39 -263 q-15 -20 -42 -23 q-78 -13 -175 -33 l-39 -233 q8 24 18 48 q57 111 105 135 q27 0 27 -23 l-2 -8 q26 9 49 9 q50 -3 74 -52 q13 -35 23 -102 q20 22 53 42 q11 0 16 2 q7 -4 20 -18 q12 -9 52 -9 l10 0 q8 65 19 117 q-72 -3 -162 -3 q-60 8 -60 43 q9 46 80 88 q11 0 16 2 q9 -3 19 -16 q11 -9 50 -9 q69 0 120 5 q24 94 81 179 q-71 -7 -150 -10 q-121 0 -145 9 q-17 6 -17 24 q5 26 33 62 q28 30 46 37 q13 -3 30 -20 q8 -12 45 -12 q24 0 36 1 l-45 121 q0 21 21 21 q30 -5 70 -31 q73 -54 76 -69 q0 -11 -8 -17 l-32 -21 q111 6 162 23 q9 0 9 -8 l-11 -39 q-6 -25 -15 -37 q-9 -16 -39 -23 q-25 -137 -32 -179 q69 7 118 17 q12 0 12 -12 l-30 -71 q-9 -27 -41 -30 q-43 -10 -117 -16 q-9 -63 -9 -116 l8 1 q74 9 146 28 q11 0 11 -12 q-17 -38 -30 -73 q-10 -27 -42 -30 q-33 -9 -93 -19 q0 -104 1 -154 q0 -21 -24 -21 l-103 0 q-23 0 -23 23 q0 58 7 138 q-33 -2 -107 -2 q-10 1 -21 5 l9 -116 q0 -22 -19 -22 l-108 0 q-18 0 -18 20 l0 9 q-47 -22 -88 -26 q-94 0 -106 66 q-5 -27 -13 -79 q0 -11 -18 -11 l-107 25 q-12 9 -12 26 q51 242 141 647 q-18 -6 -23 -6 q-31 0 -32 32 q9 33 33 66 q18 24 32 29 q5 0 10 -5 q9 -6 17 -6 q33 10 65 23 q76 20 128 22 ZM372 214 q0 15 -23 21 q-6 0 -14 -6 q-22 -118 -25 -187 q0 -22 15 -22 q22 4 47 20 l0 174 ZM258 481 q40 6 58 10 q23 4 36 17 l21 150 q0 13 -18 13 q-33 -3 -66 -14 l-31 -176 ZM555 562 q31 -6 64 -30 q68 -53 69 -67 q0 -10 -5 -15 q-55 -36 -76 -41 q-14 0 -18 10 q-13 31 -23 57 q-13 32 -30 69 q0 17 19 17 Z" /><glyph glyph-name="" unicode="&#x907f;" d="M553 753 q73 0 82 -49 q0 -71 -31 -201 q-12 -19 -36 -23 q-49 -12 -116 -33 l-17 -114 q30 61 56 75 q21 0 21 -17 q18 7 31 7 q49 -3 70 -43 q13 -32 23 -94 q19 21 48 38 q9 0 13 2 q7 -3 16 -14 q10 -8 31 -8 q6 60 10 90 q-6 -1 -16 -1 q-102 0 -122 7 q-15 6 -15 20 q3 24 28 53 q26 26 39 31 q11 -3 25 -17 q3 -5 9 -5 q-5 24 -9 52 l-12 68 q0 16 17 16 q23 -5 47 -30 q50 -52 51 -66 q0 -9 -6 -14 q-30 -21 -48 -30 q30 0 55 3 q18 84 68 163 q-36 -6 -90 -9 q-102 0 -119 8 q-14 4 -14 19 q3 21 27 51 q22 24 38 30 q10 -3 25 -15 q4 -10 31 -10 q9 0 13 1 l-15 42 l-25 59 q0 19 20 19 q28 -4 61 -24 q65 -42 67 -54 q0 -11 -7 -16 l-30 -20 q72 9 106 29 q10 0 10 -8 q-1 -5 -5 -16 l-6 -18 q-5 -22 -13 -32 q-4 -13 -18 -19 q-17 -116 -24 -172 q42 5 65 13 q10 0 10 -8 q-6 -21 -12 -37 q-4 -22 -14 -35 q-9 -14 -52 -18 q-18 -4 -41 -5 l0 -87 q48 5 96 18 q10 0 10 -10 q-9 -20 -25 -62 q-9 -23 -36 -26 q-21 -6 -46 -9 q-2 -90 -2 -123 q0 -20 -14 -20 l-96 0 q-14 0 -14 20 q3 54 9 112 q-22 -1 -69 -1 q-12 1 -21 5 q6 -55 8 -89 q0 -17 -14 -17 l-88 0 q-12 0 -14 9 q-35 -13 -62 -14 q-51 0 -72 25 l-5 -36 q0 -11 -15 -11 l-100 24 q-11 6 -11 23 q57 280 112 535 q-23 -8 -31 -8 q-24 0 -26 27 q8 27 27 54 q15 21 26 24 q4 0 9 -5 q5 -4 13 -4 l50 12 q67 13 101 13 ZM475 604 q-7 -45 -9 -62 l18 6 q21 3 30 15 l17 102 q0 10 -14 10 q-22 -2 -32 -4 l-10 -67 ZM535 163 q-1 46 -1 139 q0 15 -19 21 q-5 -2 -11 -9 q-10 -92 -10 -142 q0 -19 12 -19 q15 3 29 10 ZM113 677 q86 -3 167 -69 q9 -9 9 -19 q0 -6 -27 -44 q-33 -40 -40 -40 q-17 0 -26 6 l-53 68 q-31 39 -45 58 q-11 9 -12 23 q6 17 27 17 ZM249 463 q57 0 57 -59 q-3 -37 -21 -113 q-7 -26 -19 -76 l-18 -73 q-15 -60 -18 -96 q0 -34 29 -34 q55 0 127 3 q87 2 150 9 q54 12 96 37 q41 0 41 -43 q0 -51 -103 -72 q-86 -22 -306 -25 q-159 0 -159 120 q4 52 29 148 l46 154 q0 12 -13 12 q-64 -30 -92 -30 q-25 0 -25 23 q2 14 19 49 q22 31 30 31 q4 0 17 -6 q12 -8 20 -9 l52 31 q43 19 61 19 Z" /><glyph glyph-name="" unicode="&#x8fb9;" d="M709 641 q112 0 142 -74 q27 -138 54 -471 q0 -23 -25 -29 l-123 0 q-20 0 -26 29 q0 315 4 391 q0 61 -37 61 l-69 -6 q-35 -117 -130 -451 q-10 -39 -27 -39 l-112 22 q-20 3 -23 29 q44 137 171 425 q-2 -1 -5 -1 q-66 -10 -124 -17 q-34 0 -35 20 q0 33 28 71 q25 34 49 40 q12 -7 20 -15 q8 -6 20 -7 l96 11 q41 84 77 136 q28 38 53 41 q17 -5 17 -19 l-46 -150 q24 0 51 3 ZM141 703 q91 -3 177 -70 q9 -9 9 -18 q0 -7 -27 -45 q-31 -40 -40 -40 q-18 0 -26 7 q-84 96 -109 126 q-11 9 -12 22 q6 18 28 18 ZM248 456 q57 0 57 -58 q-2 -38 -15 -116 l-25 -152 q-10 -63 -12 -99 q0 -33 35 -33 q74 0 167 3 q115 0 197 6 q55 13 96 38 q41 0 41 -43 q0 -51 -126 -72 q-106 -21 -375 -24 q-173 0 -173 119 q4 54 26 152 l41 160 q0 11 -13 11 q-72 -28 -104 -28 q-25 0 -25 23 q1 12 20 49 q22 31 29 31 q2 0 17 -5 q11 -9 20 -10 q20 10 56 30 q45 18 66 18 Z" /><glyph glyph-name="" unicode="&#x7f16;" d="M810 697 q101 0 112 -56 q0 -67 -26 -185 q-18 -20 -49 -24 q-146 -19 -331 -51 q-53 -276 -83 -459 q0 -12 -18 -12 l-104 24 q-12 9 -12 26 q57 233 150 588 q-4 -1 -7 -1 q-26 0 -28 30 q9 30 30 60 q17 25 29 28 q4 0 9 -5 q8 -5 16 -5 l117 22 l-25 50 l-34 62 q0 20 20 20 q36 -5 72 -25 q76 -43 79 -55 q0 -11 -8 -16 q-24 -18 -42 -27 q84 10 133 11 ZM535 478 l198 27 q27 3 39 17 l7 75 q0 12 -19 12 q-57 -3 -144 -21 q-43 -13 -63 -17 l-18 -93 ZM610 358 q14 -3 14 -18 q-2 -7 -4 -24 q74 47 147 47 q136 0 163 -104 q18 -44 36 -337 q0 -13 -24 -13 l-96 0 q-12 0 -12 13 l-1 163 q-10 -4 -23 -6 q1 -72 3 -147 q0 -11 -12 -14 l-67 0 q-14 0 -14 14 q1 66 6 133 q-18 -4 -24 -4 l2 -139 q-2 -8 -14 -8 l-62 0 q-15 0 -15 10 q0 69 4 126 l-25 -2 q-4 -41 -8 -124 q0 -12 -17 -17 l-82 0 q-17 0 -17 17 q6 148 42 280 q24 74 54 117 q31 37 46 37 ZM831 163 q-3 63 -8 92 q-3 21 -22 31 l7 -126 l23 3 ZM733 152 q2 26 4 38 q10 63 23 105 q-23 -2 -50 -9 l-3 -66 q-3 -36 -3 -72 q20 2 29 4 ZM624 139 q0 9 1 13 q10 67 29 114 q-30 -18 -45 -28 q-8 -58 -10 -94 l-1 -7 q10 0 26 2 ZM310 148 q14 0 14 -14 q-4 -46 -32 -75 q-74 -84 -201 -110 q-50 0 -50 47 q11 27 32 67 q19 26 29 28 q7 -1 28 -10 q34 2 180 67 ZM329 785 q11 -5 11 -15 q0 -14 -49 -94 q-32 -55 -58 -90 q-36 -54 -42 -80 q0 -15 11 -16 l17 0 q43 9 98 70 q13 8 22 8 q10 -5 10 -13 q0 -19 -44 -90 q-39 -59 -62 -99 q-43 -77 -61 -113 q4 -1 14 -1 q28 1 61 15 q32 11 58 30 q13 0 13 -11 q0 -43 -18 -63 q-27 -24 -56 -36 q-19 -11 -42 -17 q-48 -17 -97 -17 q-63 0 -63 80 q9 47 42 85 q41 48 74 81 q0 9 -11 9 l-36 0 q-60 14 -60 80 q0 63 77 146 q33 37 76 78 q63 57 94 71 q12 2 21 2 Z" /><glyph glyph-name="" unicode="&#x4fbf;" d="M355 790 q16 0 16 -15 q0 -23 -12 -50 q-45 -77 -92 -166 l-14 -192 q-13 -235 -13 -442 q0 -15 -36 -15 l-85 0 q-18 3 -21 19 q9 242 33 408 l-83 36 q-22 6 -22 29 q13 35 74 139 q59 85 98 133 q100 113 157 116 ZM438 782 q13 -3 32 -22 q8 -11 57 -11 q267 6 357 42 q11 0 11 -8 q-6 -23 -13 -41 q-6 -28 -16 -39 q-15 -29 -86 -38 q-29 -8 -88 -13 q-6 -28 -8 -41 q93 -3 137 -37 q63 -54 63 -322 q0 -38 -27 -38 l-110 -3 q-30 0 -30 26 q0 3 1 5 l-14 -4 q-35 -12 -86 -23 l-12 -83 q71 -18 84 -22 q128 -34 262 -74 q14 -11 14 -22 q0 -7 -2 -19 q-28 -55 -57 -86 q-10 -8 -25 -8 q-176 65 -293 112 q-6 -37 -9 -70 q-3 -43 -26 -43 l-111 22 q-19 1 -19 24 l25 124 q-96 40 -161 70 q-14 8 -14 24 q8 23 59 23 q62 -7 135 -23 l7 33 q-173 3 -173 113 q5 66 31 134 q24 63 69 123 q32 25 57 31 q26 -3 27 -21 q28 7 92 20 l8 24 q5 15 7 23 q-33 -3 -67 -3 q-130 0 -154 9 q-19 6 -19 26 q3 28 35 66 q29 32 50 40 ZM470 470 l-6 -32 q12 -4 40 -4 l29 1 q9 37 16 61 l-79 -26 ZM728 374 q-2 -1 -5 -1 q-25 -7 -82 -14 q-6 -27 -9 -54 l15 3 q26 4 78 16 l3 50 ZM731 488 q0 39 -62 39 l-14 -81 q52 7 76 14 l0 28 ZM496 289 q7 33 15 61 q-5 -1 -12 -1 q-36 0 -48 1 l-2 -20 q0 -42 31 -42 q11 0 16 1 Z" /><glyph glyph-name="" unicode="&#x53d8;" d="M882 730 q15 0 15 -13 q-13 -32 -32 -71 q-10 -24 -42 -30 q-58 -14 -152 -22 l-9 -182 q0 -22 -16 -22 l-103 0 q-16 0 -16 22 q12 84 27 174 q-60 -3 -125 -3 q-6 -103 -12 -181 q0 -21 -16 -21 l-103 0 q-16 0 -16 21 q10 70 31 182 q-77 2 -131 6 q-35 1 -57 14 q-18 9 -18 34 q9 26 27 44 q15 20 46 38 q11 0 17 2 q9 -4 21 -18 q11 -10 57 -10 q80 -4 164 -4 l-11 28 l-29 62 q0 21 22 21 q30 -3 70 -25 q72 -44 75 -55 q0 -10 -7 -17 l-18 -12 q129 6 280 31 q43 4 61 7 ZM228 557 q24 0 24 -13 q-7 -21 -29 -70 q-19 -41 -35 -79 q-11 -20 -20 -20 q-12 0 -26 10 q-30 17 -58 36 q-9 3 -9 22 q6 12 25 31 q18 21 44 41 q45 36 84 42 ZM727 558 q51 -7 98 -23 q55 -22 102 -50 q9 -6 9 -12 q-67 -89 -78 -89 q-10 0 -14 5 q-29 26 -71 74 q-28 28 -60 64 q-9 9 -9 22 q5 9 23 9 ZM264 194 q61 -5 169 -23 q181 94 190 107 q0 12 -15 12 q-77 -11 -310 -61 q-90 -27 -144 -27 q-24 0 -24 16 l5 25 q15 35 38 60 q21 24 36 27 q5 0 17 -5 q9 -12 19 -12 l182 32 q102 20 234 34 l69 0 q60 -8 75 -43 q5 -8 5 -37 q0 -37 -193 -164 q32 -8 49 -11 q266 -51 302 -69 q7 -10 7 -23 q-21 -50 -61 -106 q-15 -9 -28 -9 q-248 71 -404 127 q-83 -55 -218 -138 q-9 0 -19 5 q-51 43 -89 93 q0 9 10 16 q51 32 152 89 q-49 21 -79 40 q-10 7 -10 24 q8 21 35 21 Z" /><glyph glyph-name="" unicode="&#x6807;" d="M148 633 q14 -3 30 -17 q6 -11 32 -11 l10 0 q14 82 31 135 q36 67 64 71 q15 -6 15 -55 q-4 -76 -5 -144 q64 6 97 19 q12 0 12 -9 q-11 -37 -14 -44 q-6 -30 -17 -41 q-8 -13 -45 -17 q-19 -4 -36 -5 q-2 -40 -2 -57 l-1 -42 q123 -120 126 -156 q0 -6 -2 -14 q0 -13 -75 -48 q-9 -6 -17 -6 q-6 2 -13 13 q-8 13 -22 39 q-2 -114 -2 -319 q0 -17 -38 -17 l-89 0 q-20 3 -23 20 q3 121 11 247 l-36 -56 q-9 -12 -18 -12 q-49 30 -90 80 q0 11 10 20 q67 96 150 182 q7 79 14 121 q-94 0 -114 9 q-16 6 -16 23 q3 23 30 56 q26 29 43 35 ZM601 347 q-56 -4 -135 -4 q-69 9 -69 49 q12 53 92 102 q12 0 18 2 q8 -4 21 -20 q13 -10 59 -10 q85 0 169 13 q82 9 166 33 q12 0 12 -14 q-11 -24 -33 -76 q-9 -30 -44 -33 q-49 -15 -122 -27 q6 -246 12 -424 q0 -25 -18 -25 l-125 0 q-19 0 -19 25 q3 109 16 409 ZM784 276 q40 -11 84 -58 q87 -97 90 -125 q0 -13 -10 -20 q-76 -52 -102 -58 q-20 0 -26 14 l-26 101 q-24 81 -35 121 q0 25 25 25 ZM577 761 q12 -2 35 -22 q6 -12 33 -12 q154 6 206 39 q11 0 11 -10 l-13 -45 q-6 -31 -17 -43 q-8 -26 -40 -36 q-34 -14 -120 -20 q-138 0 -164 10 q-21 8 -21 27 q5 30 37 70 q33 34 53 42 ZM534 282 q22 0 22 -25 q-2 -18 -7 -44 l-36 -199 q-5 -8 -26 -8 q-19 3 -50 24 q-36 22 -50 34 q-8 8 -10 17 q4 16 19 47 q29 47 50 78 q38 50 66 70 q14 6 22 6 Z" /><glyph glyph-name="" unicode="&#x8868;" d="M302 747 q13 -3 32 -21 q11 -11 71 -11 q42 0 79 3 q12 28 20 42 q24 43 55 51 q13 0 19 -16 l-5 -72 q194 12 270 38 q11 0 11 -9 q-3 -18 -12 -42 q-6 -28 -16 -39 q-19 -28 -110 -39 q-52 -9 -149 -15 q-3 -33 -3 -66 q168 9 242 32 q9 0 9 -8 q-3 -15 -11 -39 q-6 -25 -15 -37 q-17 -22 -103 -31 q-50 -7 -123 -11 l1 -54 q11 0 16 1 q169 14 329 43 q12 0 12 -13 q-16 -34 -30 -72 q-10 -27 -42 -30 q-89 -21 -244 -37 q-21 -3 -68 -7 q66 -45 130 -83 q21 24 45 48 q51 46 95 54 q27 0 27 -15 q-5 -21 -32 -88 l-25 -66 q33 -21 66 -39 l128 -76 q6 -6 6 -14 q-10 -20 -46 -56 q-30 -28 -46 -40 q-10 -8 -19 -8 q-9 3 -13 8 q-39 24 -132 93 q-83 59 -144 106 l-150 110 q-38 -143 -38 -178 q0 -15 15 -15 q44 12 136 60 q15 0 15 -19 q0 -38 -3 -62 q-5 -11 -58 -41 q-38 -20 -58 -29 q-59 -25 -118 -25 q-82 10 -82 81 q0 37 20 98 l-118 -115 q-13 -5 -24 -5 q-20 12 -74 95 q0 12 6 22 q29 35 218 185 q-42 -1 -129 -1 q-64 9 -64 45 q11 49 85 95 q11 0 16 1 q8 -4 19 -18 q12 -9 55 -9 q94 0 191 6 q0 39 2 59 q-40 -2 -62 -2 q-113 0 -136 9 q-15 5 -15 22 q3 24 30 57 q26 29 43 35 q13 -3 29 -18 q11 -10 67 -10 l51 1 q4 41 7 65 q-42 -2 -64 -2 q-128 0 -152 10 q-18 6 -18 25 q5 29 34 64 q30 32 49 39 Z" /><glyph glyph-name="" unicode="&#x522b;" d="M721 630 q14 0 20 -17 q-2 -17 -7 -113 q-7 -101 -7 -225 l2 -133 q-3 -11 -20 -11 l-88 0 q-18 0 -20 15 q0 138 17 274 q15 85 50 156 q24 47 53 54 ZM857 786 q31 0 34 -19 q6 -308 46 -818 q0 -15 -12 -15 q-47 -8 -134 -11 q-12 0 -12 18 q0 114 -7 238 q2 150 9 294 q27 290 76 313 ZM427 750 q59 -3 88 -57 q40 -62 64 -277 q0 -24 -19 -24 l-118 0 q-18 0 -18 18 q-117 -24 -233 -27 q-101 0 -113 76 q0 85 41 170 q54 96 99 117 q27 0 27 -24 q-3 -9 -3 -18 q99 44 185 46 ZM228 603 q-8 -59 -9 -103 q0 -24 15 -24 q80 3 179 23 q-6 66 -6 132 q0 19 -25 25 q-54 -3 -154 -53 ZM396 352 q113 0 142 -74 q34 -97 67 -336 q0 -23 -25 -29 l-123 0 q-19 0 -25 29 q0 199 -9 256 q0 61 -37 61 q-27 -3 -68 -9 l-37 -93 q-60 -156 -89 -236 q-3 -10 -22 -10 q-71 22 -112 47 q-4 4 -4 14 q58 128 141 254 q-62 -15 -105 -22 q-34 0 -35 19 q0 34 28 72 q25 34 49 40 q12 -7 20 -16 q8 -6 20 -7 q27 8 87 21 q4 0 16 2 q49 56 85 59 q10 0 13 -13 l-14 -34 l37 5 Z" /><glyph glyph-name="" unicode="&#x5bbe;" d="M748 709 q72 -7 94 -31 q51 -37 51 -101 q-3 -80 -10 -119 q0 -12 -20 -12 l-123 0 q-13 0 -14 16 l7 23 q-60 -26 -133 -40 q-71 -19 -196 -31 l-7 -39 q23 1 144 14 q171 20 271 35 q7 0 7 -4 q-14 -39 -21 -62 q-3 -30 -89 -51 q-3 -1 -7 -1 l5 -113 q98 7 207 10 q17 -6 17 -16 q-6 -15 -17 -33 l-18 -37 q-3 -24 -41 -24 q-121 -5 -185 -10 q104 -18 208 -68 q10 -10 10 -19 q0 -5 -29 -48 q-34 -43 -43 -43 q-16 0 -26 8 q-54 31 -134 75 q-89 48 -113 62 q-10 10 -11 22 q-18 -3 -31 -3 q-20 -3 -64 -7 q-102 -95 -155 -147 q-3 -7 -21 -7 q-46 9 -114 49 q-9 6 -9 16 q22 20 92 69 q-101 -10 -123 -10 q-29 0 -49 10 q-14 6 -14 25 q6 32 45 70 q33 35 58 35 q13 -5 21 -13 q9 -10 35 -10 q9 0 13 1 q38 157 76 255 q-4 -1 -11 -1 q-61 0 -61 27 q0 15 7 33 l-3 -1 l-100 0 q-22 0 -22 21 q6 72 44 139 q26 37 58 57 q32 19 48 19 q16 -3 16 -20 l-5 -22 l180 25 q-5 10 -17 43 q-17 35 -32 68 q0 21 21 21 q35 -6 73 -28 q75 -49 78 -63 q0 -10 -7 -17 q-13 -8 -19 -13 q107 11 208 16 ZM574 286 q-144 -21 -196 -26 l-14 -98 l202 18 q2 32 8 106 ZM245 503 q28 35 46 41 q14 -7 27 -18 q15 -7 39 -7 q104 2 214 19 q96 12 187 32 q2 10 4 15 q-3 29 -60 29 q-166 -12 -452 -54 q-5 -51 -5 -57 Z" /><glyph glyph-name="" unicode="&#x51b0;" d="M548 583 q8 0 32 2 q19 90 41 146 q36 69 67 74 q15 -6 15 -56 q-3 -43 -11 -207 q18 17 62 53 q103 68 127 68 q10 0 15 -7 l2 -11 q0 -13 -47 -81 q-34 -54 -131 -198 l243 -248 q14 -9 14 -26 q-19 -39 -92 -93 q-16 -8 -28 -8 q-13 0 -79 106 q-57 79 -96 136 q-4 -148 -4 -309 q0 -18 -41 -18 l-97 0 q-21 3 -24 22 q8 249 28 423 q-156 -322 -175 -349 q-6 -6 -16 -6 q-16 0 -25 6 q-27 12 -82 48 q-13 9 -13 26 q60 105 239 404 q0 4 -6 4 l-14 -1 q-64 -8 -129 -8 q-37 0 -39 21 q0 17 21 41 q48 44 65 49 q10 -5 10 -15 q11 -6 33 -6 q26 0 66 7 l69 11 ZM94 671 q46 -6 97 -33 q54 -29 101 -69 q10 -7 10 -14 q-76 -101 -88 -101 q-12 0 -18 6 q-24 30 -63 92 q-43 63 -55 83 q-10 9 -10 26 q7 10 26 10 ZM291 291 q14 -9 14 -18 l0 -8 q-3 -30 -132 -249 q-9 -10 -22 -10 q-17 2 -52 40 q-40 34 -53 57 q0 11 16 27 q48 54 174 149 l24 10 q13 5 31 2 Z" /><glyph glyph-name="" unicode="&#x997c;" d="M375 694 q105 0 105 -111 l0 -12 q0 1 2 3 q27 29 45 36 q15 -4 31 -20 q7 -10 49 -10 q40 0 100 4 q5 16 30 53 q30 43 59 75 q62 66 113 77 q22 0 22 -13 q-3 -16 -54 -113 q-20 -38 -33 -67 q52 7 75 14 q11 0 11 -8 q-5 -19 -13 -41 q-6 -28 -16 -39 q-9 -12 -36 -18 q-10 -117 -11 -199 q56 8 84 13 q12 0 12 -14 l-31 -74 q-11 -28 -43 -31 q-12 -3 -22 -3 q0 -123 5 -263 q0 -21 -23 -21 l-106 0 q-24 0 -24 24 q0 116 11 246 q-36 -3 -86 -6 l-24 -222 q-3 -43 -26 -43 l-107 21 q-19 3 -19 24 q11 74 37 217 l-49 0 q-61 9 -61 44 q10 47 82 92 q11 0 16 2 q6 -3 20 -17 q5 -4 15 -6 q23 113 45 193 q-67 1 -87 8 q-6 -49 -18 -104 q0 -18 -24 -18 q-19 -4 -99 -4 q-15 0 -15 18 q34 107 60 214 q-3 17 -19 17 q-49 -12 -146 -52 q-25 -88 -48 -185 q-13 -22 -21 -22 q-14 0 -29 11 q-27 15 -63 39 q-9 6 -9 24 q7 37 32 103 q31 79 59 134 q59 119 111 137 q26 0 26 -14 q-4 -30 -32 -130 q93 37 137 37 ZM671 484 q-15 -93 -27 -197 q41 1 83 6 q9 96 24 195 q-27 -2 -80 -4 ZM294 514 q19 0 19 -22 q-21 -126 -30 -219 q-20 -180 -22 -236 q0 -16 19 -16 q34 0 113 53 q9 0 9 -8 l-15 -70 q-6 -25 -53 -47 q-84 -33 -136 -33 q-82 4 -88 111 q3 129 69 321 q55 134 115 166 ZM546 765 q34 -8 72 -37 q74 -62 77 -81 q0 -11 -7 -16 q-59 -40 -79 -43 q-15 0 -19 10 l-28 68 l-36 80 q0 19 20 19 Z" /><glyph glyph-name="" unicode="&#x75c5;" d="M915 746 q11 0 11 -12 q-10 -20 -28 -64 q-9 -25 -38 -28 q-73 -18 -192 -33 q-114 -15 -279 -18 q-76 -366 -133 -677 q0 -13 -20 -13 l-115 27 q-13 9 -13 28 l65 248 q-12 -13 -33 -40 q-19 -25 -23 -27 q-15 0 -20 5 q-37 23 -68 75 q0 17 2 22 q15 18 95 65 q51 29 83 37 q6 27 15 58 q-70 46 -125 105 l-9 17 q0 23 30 23 q66 0 135 -25 l20 75 q-43 12 -43 41 q11 49 85 95 q11 0 16 1 q6 -3 20 -17 q12 -9 54 -9 q92 0 161 5 q-6 16 -8 26 l-23 62 q0 23 23 23 q32 -6 67 -25 q69 -43 72 -56 q0 -13 -8 -19 l-4 -3 q119 9 228 28 ZM491 347 q25 0 25 -41 l-2 -8 q7 2 76 16 q18 53 36 102 q-70 -5 -189 -5 q-60 9 -60 43 q9 45 80 89 q11 0 16 2 q7 -3 18 -17 q12 -9 51 -9 q98 0 195 13 q89 8 194 31 q11 0 11 -13 l-29 -70 q-10 -27 -41 -30 q-49 -14 -134 -23 q-9 -33 -25 -97 q32 2 47 2 q143 -19 173 -128 q31 -166 31 -281 q0 -18 -24 -18 l-108 0 q-22 0 -22 24 l0 60 l-7 -5 q-12 -6 -22 -6 q-9 0 -53 52 q-62 62 -73 74 l-16 -60 q-10 -38 -16 -64 q-3 -7 -13 -7 q-68 22 -115 47 q-6 3 -6 11 l72 201 q-39 -11 -63 -19 l-15 -94 q-14 -111 -17 -188 q0 -12 -16 -15 q-82 -4 -127 -4 q-16 0 -16 19 q6 87 44 208 q33 97 81 170 q30 38 59 38 ZM694 256 q-8 -30 -11 -44 l121 -89 q-6 58 -15 88 q-6 40 -84 46 l-11 -1 Z" /><glyph glyph-name="" unicode="&#x5e76;" d="M630 502 q-83 -6 -199 -9 q-17 -85 -37 -202 q96 3 195 9 q10 0 14 1 q11 99 27 201 ZM302 490 q-129 0 -155 10 q-19 6 -19 26 q5 30 37 68 q30 35 51 42 q13 -3 34 -21 q14 -13 89 -13 q-43 74 -103 164 q0 8 6 14 q6 3 14 3 q143 -30 204 -143 q0 -8 -5 -15 q-13 -12 -30 -21 l132 6 q28 45 88 105 q63 57 93 73 q24 11 45 11 q14 0 14 -13 q0 -16 -32 -72 l-51 -93 q118 10 182 27 q12 0 12 -10 q-6 -21 -15 -48 q-6 -30 -18 -45 q-24 -23 -121 -33 q-10 -117 -11 -201 q99 9 198 21 q13 0 13 -15 q-22 -52 -33 -80 q-12 -30 -46 -33 q-70 -11 -132 -16 q0 -173 1 -255 q0 -23 -25 -23 l-113 0 q-26 0 -26 25 q0 113 11 240 q-88 -7 -219 -10 q-7 -40 -37 -226 q-6 -35 -37 -35 l-112 21 q-22 3 -22 26 l53 212 q-36 -1 -110 -1 q-70 9 -70 50 q12 53 94 104 q13 0 18 2 q9 -5 23 -20 q13 -10 59 -10 l19 0 q16 66 52 202 Z" /><glyph glyph-name="" unicode="&#x64ad;" d="M159 661 q15 -3 32 -22 q6 -11 32 -11 q14 57 30 99 q40 78 73 82 q17 -8 17 -62 q-9 -55 -14 -113 q66 8 96 21 q10 0 10 -8 q-5 -20 -13 -40 q-5 -26 -15 -38 q-8 -21 -40 -30 q-18 -7 -48 -12 q-3 -24 -7 -76 q-3 -53 -6 -92 q31 11 70 30 q15 0 15 -14 l-3 -16 q42 30 123 78 l9 5 q5 3 8 4 q-32 -1 -97 -1 q-53 7 -53 38 q9 40 70 79 q10 0 14 1 q8 -3 17 -15 q6 -4 21 -6 l-34 76 q0 17 18 17 q27 -3 59 -19 q62 -33 63 -42 q0 -11 -5 -16 l-26 -16 q31 0 47 2 q4 37 14 111 q-62 -10 -127 -14 q-59 0 -59 26 q0 23 20 60 q30 41 48 45 l25 -16 q14 -7 36 -7 q70 2 151 15 q87 13 148 32 q13 0 13 -10 q0 -47 -37 -69 q-52 -27 -107 -39 l-3 -1 l0 -126 q44 3 87 9 q-37 9 -58 22 q-9 6 -9 21 q9 20 60 52 q48 26 73 27 q14 0 14 -17 l-41 -99 q54 8 81 13 q10 0 10 -11 q-13 -28 -25 -62 q-9 -23 -36 -26 q-56 -13 -156 -22 l0 -7 l75 -23 q56 -17 138 -44 q20 -6 20 -22 q-3 -23 -37 -92 q-3 -8 -15 -8 q-33 15 -181 90 l0 -34 q0 -23 -17 -23 l-112 0 q-16 0 -16 23 q4 50 7 75 l-133 -121 q-31 -31 -39 -35 q-12 0 -19 4 q-32 18 -55 59 l-4 -4 q-29 -28 -56 -45 q-8 -157 -8 -328 q0 -15 -36 -15 l-85 0 q-19 3 -22 19 q4 131 14 260 q-45 -15 -86 -20 q-47 0 -47 43 q7 21 31 63 q14 23 26 26 q13 -3 26 -9 q18 0 60 15 q13 128 28 215 q-88 2 -107 9 q-20 6 -20 26 q4 28 35 66 q30 32 50 40 ZM603 173 l-61 -18 q-8 -25 -10 -33 q26 2 66 8 l5 43 ZM578 265 q113 22 188 22 q105 -4 141 -90 q22 -17 46 -254 q0 -23 -21 -23 l-110 0 q-31 3 -31 27 l0 8 q-35 -14 -85 -25 q-74 -19 -169 -19 q-150 0 -168 101 q0 59 37 136 q33 66 88 118 q38 26 57 26 q27 0 27 -27 ZM792 34 q0 23 2 53 q-9 -3 -16 -3 q-32 -8 -61 -12 l0 -52 q31 4 75 14 ZM800 161 q-5 47 -53 47 l-30 -6 l0 -53 q49 6 83 12 ZM590 50 q-59 -8 -78 -10 l-2 -14 q0 -21 44 -21 q21 0 31 1 q1 14 5 44 Z" /><glyph glyph-name="" unicode="&#x6ce2;" d="M97 437 q107 0 214 -61 q15 -10 18 -24 q-9 -24 -58 -80 q-6 -9 -25 -9 q-95 56 -173 133 l-9 19 q0 22 33 22 ZM103 756 q57 -12 118 -62 q124 -106 127 -135 q0 -13 -10 -20 q-76 -53 -103 -58 q-19 0 -25 14 l-57 107 l-76 128 q0 26 26 26 ZM305 179 q16 -10 16 -21 l0 -9 q-3 -24 -154 -205 q-10 -10 -21 -10 q-15 3 -48 36 q-36 32 -49 54 q0 10 14 24 q49 42 176 118 l28 11 q16 5 38 2 ZM725 808 q16 -3 16 -22 q-6 -34 -9 -74 l119 33 q66 0 78 -56 q0 -34 -15 -82 q-40 -125 -43 -136 q-4 -14 -22 -14 q-51 15 -93 41 q-12 6 -12 18 q10 18 45 88 q0 10 -12 10 l-53 -13 l0 -5 q-6 -88 -9 -166 l41 5 q99 -7 99 -103 q0 -18 -101 -181 q18 -10 28 -14 q107 -53 180 -94 q15 -10 15 -23 q0 -9 -2 -21 q-30 -57 -60 -90 q-10 -8 -26 -8 q-108 72 -201 141 q-45 -73 -79 -123 q-15 -10 -25 -10 q-63 26 -123 74 q0 9 4 20 q20 29 94 115 q4 4 12 14 q-33 24 -75 61 q-13 9 -13 21 q6 23 55 23 q39 -8 95 -31 q88 108 88 115 q0 18 -18 18 q-62 -14 -219 -85 q-31 -213 -47 -336 q0 -13 -20 -13 l-115 27 q-13 9 -13 28 l124 588 q-44 0 -46 33 q0 18 19 47 q30 43 52 49 q9 0 13 -9 q9 -12 22 -12 q36 0 159 30 q21 53 46 85 q31 37 47 37 ZM502 376 l76 23 q6 98 23 175 l-20 -4 q-41 -9 -51 -10 l-28 -184 Z" /><glyph glyph-name="" unicode="&#x535a;" d="M116 588 q14 -3 32 -21 q6 -11 37 -11 q24 108 59 181 q36 69 67 74 q15 -6 15 -56 q-9 -59 -23 -193 q80 6 116 18 q12 0 12 -10 q-11 -37 -14 -44 q-6 -29 -17 -41 q-9 -17 -49 -21 q-21 -6 -59 -9 q-21 -295 -21 -533 q0 -17 -40 -17 l-93 0 q-22 3 -25 22 q12 309 50 523 q-91 2 -111 10 q-19 6 -19 25 q5 28 34 63 q29 32 49 40 ZM443 66 q-27 -1 -81 -1 q-61 9 -61 44 q10 47 82 92 q11 0 16 2 q7 -4 20 -18 q12 -9 52 -9 q127 0 249 17 l54 6 q5 15 14 31 l13 23 l-7 0 q-16 0 -16 13 l0 53 q-6 -2 -20 -4 q-26 -6 -53 -9 q-1 -21 -1 -59 q0 -16 -17 -21 l-92 0 q-21 0 -21 21 q0 13 2 41 q-56 -7 -70 -8 q-2 -22 -2 -31 q0 -17 -19 -22 l-95 0 q-22 0 -22 22 q6 118 44 226 q26 62 57 96 q30 30 48 30 q15 -3 15 -19 q-2 -10 -4 -28 q37 11 77 21 q1 10 5 30 q0 3 2 9 q-73 -3 -164 -3 q-55 7 -55 41 q9 43 75 83 q10 0 14 2 q7 -3 18 -17 q11 -7 49 -7 q61 0 91 2 q9 27 16 41 q26 48 39 48 q17 -3 17 -21 q-2 -42 -2 -64 q16 0 23 1 q16 0 34 3 l-27 73 q0 6 4 10 q4 2 11 2 q68 -12 98 -55 q0 -4 -4 -12 q-10 -8 -15 -11 q27 3 81 11 q11 0 11 -12 q-10 -20 -28 -64 q-9 -25 -38 -28 q-65 -11 -140 -16 q-5 -1 -12 -1 l0 -22 l58 9 q100 0 127 -100 q25 -94 31 -237 q-3 -17 -19 -17 l-43 0 l0 -40 q51 9 103 21 q12 0 12 -13 q-10 -22 -30 -70 q-9 -27 -41 -30 q-25 -7 -43 -11 l0 -190 q0 -16 -34 -16 l-81 0 q-17 3 -19 18 q5 100 16 167 q-12 -3 -24 -3 q-68 -11 -165 -16 q59 -50 62 -68 q0 -11 -8 -17 q-61 -42 -86 -48 q-14 0 -20 12 q-30 57 -40 79 q-11 17 -21 38 ZM510 354 q29 2 70 8 q0 14 3 29 q-22 -4 -71 -8 q-2 -22 -2 -29 ZM518 455 q28 2 72 8 q2 24 4 36 q-31 -8 -74 -18 q-2 -18 -2 -26 ZM705 380 l72 9 l-1 31 q-9 -3 -16 -3 q-26 -6 -55 -9 l0 -28 ZM706 479 l68 10 q-1 3 -1 9 q-6 26 -50 26 l-16 -1 l-1 -44 Z" /><glyph glyph-name="" unicode="&#x4e0d;" d="M195 776 q14 -3 34 -21 q14 -13 92 -13 q416 6 559 38 q12 0 12 -10 l-15 -46 q-6 -30 -17 -44 q-25 -22 -144 -31 q-60 -8 -190 -13 q-89 -155 -108 -187 q130 17 148 17 q56 0 82 -20 q27 -20 32 -68 q0 -24 -7 -73 q30 -10 76 -22 l163 -48 q25 -9 25 -28 q-3 -28 -45 -118 q-3 -9 -21 -9 q-65 29 -221 106 q-30 -128 -68 -253 q-6 -27 -31 -27 q-85 0 -139 4 q-14 0 -14 21 q149 348 155 417 q0 30 -30 30 q-58 -4 -157 -20 q-73 -127 -122 -215 q-3 -8 -23 -8 q-50 9 -123 53 q-10 6 -10 18 q84 157 281 426 q-52 -2 -81 -2 q-134 0 -161 9 q-20 6 -20 27 q4 28 38 68 q30 33 50 42 Z" /><glyph glyph-name="" unicode="&#x5e03;" d="M540 805 q16 -5 16 -23 q0 -22 -65 -116 q51 2 102 6 q171 10 323 32 q12 0 12 -14 q-22 -48 -32 -74 q-9 -28 -42 -31 q-99 -19 -242 -32 q-104 -10 -205 -13 l-97 -153 q-79 -141 -126 -220 q-9 -13 -33 -13 q-85 18 -112 46 q-7 6 -9 20 q15 38 90 141 q58 86 131 176 q-35 -1 -106 -1 q-69 9 -69 49 q12 52 92 101 q12 0 18 2 q10 -5 21 -19 q13 -10 59 -10 q60 0 90 1 q121 130 184 145 ZM632 528 q15 0 21 -18 q-3 -27 -6 -118 q200 -3 239 -128 q22 -40 44 -303 q0 -16 -30 -16 l-120 0 q-13 0 -13 16 q0 222 -17 270 q-5 55 -74 61 l-34 -1 q-4 -89 -4 -205 l4 -166 q-3 -14 -23 -14 l-106 0 q-23 0 -25 18 q0 164 21 341 q0 3 2 9 q-68 -17 -119 -33 q-6 -28 -9 -57 q-15 -108 -25 -211 q0 -17 -20 -23 l-107 0 q-23 0 -23 23 q9 143 60 270 q31 68 76 113 q42 36 64 36 q16 -3 16 -20 l-5 -16 q58 19 119 28 q11 40 30 77 q31 58 64 67 Z" /><glyph glyph-name="" unicode="&#x6b65;" d="M902 749 q13 0 13 -12 l-10 -36 q-8 -35 -13 -40 q-18 -21 -112 -36 q-89 -21 -163 -30 l-5 -53 q167 9 320 31 q10 0 10 -13 l-29 -68 q-9 -26 -40 -29 q-97 -19 -255 -33 q-13 -2 -43 -4 l-6 -156 q186 104 249 114 q29 0 35 -16 q0 -21 -44 -65 l-224 -172 q-59 -49 -288 -234 q-5 -8 -12 -8 q-9 0 -19 8 q-39 23 -90 63 q-14 9 -16 19 q0 11 14 24 q101 83 289 207 l15 9 l-41 0 q-17 0 -17 24 q12 95 25 175 q-141 -6 -320 -6 q-63 9 -63 45 q9 49 84 94 q11 0 16 1 q6 -3 20 -17 q12 -9 54 -9 l9 0 q10 77 47 147 q26 43 63 71 q36 22 53 22 q15 -3 15 -18 q-23 -48 -36 -115 q-10 -47 -19 -105 q36 1 115 5 q10 86 41 167 q28 57 59 86 q32 27 49 27 q14 -3 14 -20 q-11 -51 -16 -91 q220 31 272 47 ZM334 401 q16 0 16 -21 q-70 -138 -124 -236 q-7 -7 -17 -7 q-63 12 -99 33 q-11 6 -11 25 q16 53 106 134 q84 69 129 72 Z" /><glyph glyph-name="" unicode="&#x90e8;" d="M850 766 q71 -6 77 -65 q-4 -65 -20 -98 q-18 -70 -57 -183 q0 -11 2 -13 q114 -135 114 -241 q-9 -96 -139 -101 l-125 12 q4 -71 14 -154 q0 -21 -24 -21 l-105 0 q-25 0 -25 24 q1 322 36 673 q-7 -1 -19 -1 q-17 0 -27 7 q-9 3 -9 18 q0 22 18 52 q30 48 53 56 q12 -9 16 -13 q5 -8 21 -8 q36 3 88 26 q60 30 111 30 ZM701 623 q-8 -131 -10 -259 q0 -120 5 -203 l73 -9 q63 0 63 60 q-21 113 -123 212 q0 10 7 18 q21 36 48 92 q24 54 51 126 q-4 4 -12 4 q-53 -27 -102 -41 ZM559 458 q9 0 9 -12 l-26 -64 q-9 -23 -36 -26 q-52 -13 -144 -22 q-103 -13 -277 -13 q-58 9 -58 42 q9 44 78 86 q10 0 15 2 q8 -3 19 -17 q11 -9 49 -9 q76 0 131 5 q24 86 73 163 q-79 -7 -163 -10 q-116 0 -135 8 q-16 6 -16 23 q3 24 30 57 q28 30 43 35 q12 -3 30 -18 q7 -11 49 -11 l45 1 q-6 23 -8 39 l-16 68 q0 21 21 21 q30 -7 58 -29 q62 -49 63 -63 q0 -10 -8 -16 l-23 -15 q126 9 177 28 q10 0 10 -8 q-4 -14 -12 -37 q-4 -24 -14 -35 q-9 -17 -47 -26 q-23 -77 -47 -165 q63 6 130 18 ZM129 569 q25 -4 58 -23 q60 -40 61 -52 q0 -9 -6 -14 q-51 -35 -70 -39 q-14 0 -18 10 q-10 21 -18 46 q-6 12 -25 55 q0 17 18 17 ZM201 286 q28 0 28 -24 q-2 -5 -4 -13 q99 32 141 36 q106 0 133 -103 q26 -85 32 -218 q-3 -18 -19 -18 l-115 0 q-15 0 -15 14 l0 14 q-113 -28 -220 -32 q-101 0 -113 70 q0 78 45 162 q56 91 107 112 ZM381 58 q-3 98 -5 113 q-7 27 -53 27 q-19 0 -117 -30 q-14 -61 -17 -117 q0 -22 16 -22 q77 4 176 29 Z" /><glyph glyph-name="" unicode="&#x624d;" d="M737 812 q19 -8 19 -66 l-6 -72 q90 10 189 29 q12 0 12 -14 l-31 -74 q-11 -28 -43 -31 q-47 -12 -134 -26 q-3 -36 -7 -105 q-12 -289 -12 -524 q0 -19 -43 -19 l-101 0 q-22 3 -26 23 q9 272 32 449 q-202 -211 -373 -373 q-4 -9 -29 -9 q-75 39 -114 72 q-4 7 -4 21 q183 173 321 288 q96 84 186 156 q-157 -16 -393 -16 q-69 9 -69 49 q12 53 92 102 q12 0 18 1 q8 -3 21 -19 q13 -10 59 -10 q165 0 321 17 q5 0 17 2 q9 34 21 62 q42 81 77 87 Z" /><glyph glyph-name="" unicode="&#x91c7;" d="M179 590 q119 -34 170 -164 q0 -8 -5 -16 q-31 -25 -88 -49 q-19 0 -25 17 q-36 108 -72 196 q0 8 6 14 q8 2 14 2 ZM468 617 q16 -3 53 -42 q23 -29 46 -66 q21 -30 21 -42 q0 -14 -15 -14 q-29 -11 -94 -18 q-17 0 -18 16 q0 43 -17 136 q0 30 24 30 ZM843 644 q14 0 14 -19 q-47 -141 -71 -209 q-6 -7 -15 -7 q-57 11 -90 30 q-10 6 -10 23 q12 46 78 119 q62 60 94 63 ZM548 433 q15 0 23 -20 q-4 -46 -5 -64 q10 0 15 1 q160 10 333 38 q12 0 12 -14 q-18 -37 -33 -78 q-10 -30 -45 -33 q-96 -21 -249 -36 q-13 -2 -41 -4 q-1 -5 -1 -12 l157 -53 q123 -41 233 -81 q25 -9 25 -29 q-3 -28 -44 -114 q-3 -10 -21 -10 l-353 170 l3 -175 q-3 -14 -23 -14 l-103 0 q-23 0 -25 17 q0 114 13 227 l-154 -136 l-58 -53 q-45 -43 -54 -46 q-11 0 -21 5 q-40 25 -69 77 q0 16 2 21 q33 47 201 156 q29 19 59 36 q-96 -3 -209 -3 q-72 9 -72 50 q12 55 97 108 q12 0 18 2 q10 -5 23 -21 q13 -10 61 -10 q118 0 224 7 q7 16 17 35 q29 47 64 56 ZM828 804 q13 0 13 -9 q0 -61 -64 -88 q-87 -36 -183 -51 q-139 -33 -408 -48 q-69 0 -69 31 q0 26 24 72 q34 46 55 52 q16 -8 31 -20 q15 -8 43 -8 q138 3 282 23 q152 19 276 46 Z" /><glyph glyph-name="" unicode="&#x5f69;" d="M595 386 q11 0 11 -13 l-31 -75 q-11 -28 -43 -31 q-56 -15 -142 -27 q-2 -30 -2 -43 q74 -36 205 -92 q13 -10 13 -20 q0 -7 -20 -32 q-15 -21 -30 -39 q-20 -26 -30 -26 l-14 1 q-20 10 -70 45 q-24 14 -57 38 l2 -151 q-3 -13 -22 -13 l-98 0 q-22 0 -24 17 q0 92 8 171 l-98 -107 q-30 -38 -38 -41 q-9 0 -21 4 q-38 23 -66 73 q0 17 2 21 q24 41 149 134 q40 29 71 47 q-66 -3 -144 -3 q-61 9 -61 44 q10 47 82 92 q11 0 17 2 q6 -4 19 -18 q11 -8 52 -8 q42 0 85 3 l18 37 q26 47 60 56 q17 0 23 -18 q-4 -45 -5 -65 q7 0 10 1 q93 11 189 36 ZM129 568 q96 -27 138 -127 q0 -7 -5 -15 q-29 -23 -77 -43 q-17 0 -22 15 q-35 113 -50 155 q0 7 4 12 q5 3 12 3 ZM295 609 q14 -3 44 -42 q13 -21 37 -63 q17 -32 17 -42 q0 -13 -13 -13 q-30 -10 -82 -16 q-15 0 -17 15 q0 45 -9 132 q0 29 23 29 ZM574 692 q15 0 15 -20 q-23 -105 -56 -242 q-6 -7 -14 -7 q-60 11 -91 31 q-10 6 -10 22 q12 57 70 141 q57 72 86 75 ZM562 809 q11 0 11 -9 q0 -61 -41 -88 q-58 -38 -118 -52 q-90 -33 -263 -48 q-58 0 -58 25 q0 23 19 61 q30 41 48 45 l26 -17 q13 -7 36 -7 q82 3 173 31 q86 21 167 59 ZM902 246 q23 10 40 10 q12 0 12 -12 q0 -20 -64 -95 q-14 -16 -181 -225 q-9 -15 -29 -15 q-42 11 -97 40 q-6 6 -6 20 q49 78 169 178 q101 74 156 99 ZM896 798 q23 10 41 10 q11 0 11 -11 q0 -20 -59 -93 l-52 -69 q-64 -83 -114 -150 q-9 -16 -30 -16 q-48 12 -96 40 q-6 6 -6 21 q46 75 158 173 q91 70 147 95 ZM887 527 q6 0 18 -4 q6 -7 6 -15 q0 -2 -43 -76 q-56 -96 -127 -224 q-4 -15 -21 -15 q-37 6 -95 36 q-12 6 -12 25 q27 54 141 175 q82 78 133 98 Z" /><glyph glyph-name="" unicode="&#x83dc;" d="M418 795 q14 0 14 -18 q-2 -36 -2 -52 q68 1 155 8 q22 0 43 3 l1 2 q25 37 53 57 q29 18 45 18 q15 -3 15 -20 q-7 -18 -16 -48 q81 6 149 16 q10 0 10 -10 q-16 -34 -26 -62 q-7 -23 -35 -26 q-54 -11 -117 -17 q-3 -27 -6 -44 q0 -14 -15 -17 l-81 0 q-17 0 -17 17 q1 11 5 33 q-101 -8 -170 -10 l-5 -52 q0 -15 -14 -15 l-92 0 q-9 0 -9 19 q0 18 5 45 q-39 -1 -119 -1 q-55 7 -55 41 q9 43 75 83 q10 0 15 2 q6 -3 17 -17 q11 -8 49 -8 q35 0 53 1 q36 72 75 72 ZM912 311 q12 0 12 -13 q-16 -35 -29 -70 q-10 -27 -41 -30 q-100 -22 -245 -34 q-16 -2 -23 -2 l125 -31 q107 -25 238 -59 q23 -9 23 -26 q-3 -25 -42 -109 q-3 -10 -19 -10 l-364 137 l2 -142 q-3 -13 -22 -13 l-98 0 q-22 0 -24 17 q0 79 10 156 q-32 -22 -62 -41 q-19 -14 -129 -89 q-45 -32 -51 -34 q-10 0 -22 4 q-39 23 -65 73 q0 16 2 20 q30 32 192 105 q16 7 66 26 q-97 -3 -208 -3 q-60 9 -60 43 q9 45 80 89 q11 0 16 2 q9 -3 18 -17 q11 -8 51 -8 q116 0 220 7 q5 10 17 28 q13 18 22 25 l-42 -6 q-17 0 -18 16 q0 34 -20 108 q0 11 2 14 q-91 -9 -207 -15 q-56 0 -56 25 q0 20 19 57 q27 38 45 43 q8 -4 24 -16 q15 -6 35 -6 q125 2 269 21 q133 14 261 41 q11 0 11 -7 q0 -51 -58 -75 q-79 -29 -171 -43 q-44 -10 -126 -20 q15 -11 29 -24 q32 -34 46 -52 q20 -28 20 -35 q0 -13 -9 -13 q3 -4 7 -12 l-4 -47 q7 0 21 2 q171 14 332 43 ZM214 418 q89 -22 128 -105 q0 -5 -4 -13 q-23 -19 -72 -41 q-17 0 -20 14 q-26 77 -48 130 q0 7 4 12 q5 3 12 3 ZM812 507 q15 0 15 -19 q-30 -82 -72 -191 q-7 -6 -16 -6 q-56 9 -92 29 q-10 6 -10 24 q12 41 79 107 q64 55 96 56 Z" /><glyph glyph-name="" unicode="&#x53c2;" d="M585 723 q56 -8 116 -42 q121 -71 124 -90 q0 -12 -9 -18 q-66 -47 -94 -53 q-17 0 -23 13 l-46 59 q-186 -58 -320 -58 q-111 0 -117 82 q0 50 104 109 q131 71 223 96 q32 0 32 -26 q-25 -23 -63 -50 q-66 -52 -109 -91 q0 -13 19 -13 q61 0 162 14 q6 0 16 2 l-38 44 q0 22 23 22 ZM155 514 q14 -4 31 -19 q15 -11 100 -11 q29 0 81 2 q72 41 127 59 q36 0 41 -19 q0 -8 -22 -35 q271 13 384 44 q12 0 12 -10 l-13 -43 q-5 -27 -16 -40 q-29 -25 -162 -35 q-16 -3 -33 -3 q44 -30 98 -62 q47 -30 99 -58 q39 -25 88 -52 q7 -7 7 -14 q-13 -24 -48 -57 q-23 -23 -47 -41 q-9 -9 -19 -9 q-8 1 -13 9 q-27 18 -90 72 q-48 38 -70 57 l2 -9 q0 -8 -100 -53 q-146 -71 -295 -134 l-12 0 q-7 1 -13 6 q-17 11 -40 39 q-13 19 -17 33 q2 9 10 15 q87 33 187 65 l123 34 q79 18 131 21 l7 -2 q-8 6 -11 9 l-147 120 q-35 -2 -105 -4 l-78 -71 q54 18 124 39 l25 11 q15 5 35 2 q15 -9 15 -20 l0 -9 q-3 -15 -182 -129 q-5 -8 -15 -8 q-13 2 -38 28 q-17 14 -26 26 q-35 -33 -73 -66 q-52 -53 -61 -56 q-15 0 -21 5 q-38 24 -67 75 q0 17 2 22 q31 48 167 147 q-100 0 -121 9 q-18 6 -18 24 q3 23 32 60 q27 29 45 36 ZM749 144 q29 -5 29 -30 q0 -8 -119 -65 q-157 -76 -348 -162 l-13 0 q-10 4 -15 8 q-16 12 -47 44 q-12 17 -20 37 q1 11 11 19 q105 41 221 80 q73 23 146 42 q94 24 155 27 Z" /><glyph glyph-name="" unicode="&#x6b8b;" d="M181 757 q13 -2 31 -20 q6 -11 35 -11 q168 4 226 29 q11 0 11 -10 l-13 -45 q-6 -30 -17 -42 q-9 -16 -48 -22 q-31 -8 -94 -11 l-36 -107 q35 8 62 11 q80 0 110 -30 q4 18 20 50 q34 46 54 52 l31 -19 q14 -7 29 -7 q-18 82 -30 169 q-2 14 -2 41 q6 19 21 23 q33 0 55 -60 q29 -94 55 -164 q41 6 81 18 q90 22 164 55 q12 0 12 -10 q0 -63 -42 -93 q-55 -37 -119 -54 q-28 -11 -58 -18 q24 -64 37 -96 q89 28 170 74 q12 0 12 -10 q0 -73 -43 -107 q-49 -35 -99 -53 q5 -15 19 -47 q51 17 105 28 q32 0 37 -17 q0 -16 -109 -87 q39 -90 86 -188 q0 -14 -14 -20 q-9 -10 -99 -57 q-13 0 -24 9 q-43 96 -72 177 q-104 -72 -164 -107 q-60 -42 -73 -45 q-10 0 -22 4 q-40 24 -70 79 q0 18 1 23 q47 45 290 152 q-11 30 -18 55 q-77 -17 -173 -26 q-67 0 -67 31 q0 25 22 69 q34 46 55 52 q20 -12 30 -20 q15 -8 42 -8 q24 0 59 7 q-19 63 -29 107 q-50 -8 -95 -11 q-32 0 -47 6 l1 -7 q-3 -29 -31 -111 q-47 -138 -76 -236 q-51 -169 -58 -173 q-10 -7 -24 -7 q-42 8 -105 33 q-16 4 -16 15 q1 22 44 127 q5 14 29 71 q-22 22 -49 58 q-10 -30 -14 -44 q-4 -14 -21 -14 q-33 4 -92 35 q-12 6 -12 24 q24 96 123 297 q33 60 60 99 q-87 0 -108 8 q-17 6 -17 26 q3 25 34 62 q29 32 47 38 ZM280 282 q44 103 58 149 q-3 12 -24 12 q-24 -5 -72 -28 q-37 -116 -35 -108 q35 -6 73 -25 ZM691 786 q88 -3 168 -61 q8 -10 8 -15 q0 -5 -23 -39 q-28 -36 -35 -36 q-14 0 -22 6 q-79 79 -109 110 q-8 6 -10 19 q6 16 23 16 Z" /><glyph glyph-name="" unicode="&#x60e8;" d="M174 601 q21 0 24 -19 q-33 -156 -39 -347 q0 -28 -25 -28 l-75 -2 q-21 0 -24 25 q15 210 87 327 q22 31 52 44 ZM703 729 q39 -9 84 -48 q87 -81 90 -102 q0 -12 -8 -18 q-62 -43 -88 -49 q-15 0 -21 12 l-17 42 q-121 -51 -208 -51 q-101 0 -107 72 q0 52 78 119 q101 77 166 103 q27 0 27 -22 q-17 -27 -40 -57 q-44 -63 -68 -104 q0 -12 15 -12 q35 0 100 16 q4 0 10 2 l-34 76 q0 21 21 21 ZM436 491 q10 -3 28 -18 q11 -10 65 -10 q70 56 115 58 q15 0 15 -14 q0 -19 -9 -39 q204 12 284 43 q9 0 9 -7 q-4 -16 -12 -40 q-4 -27 -15 -39 q-18 -23 -102 -34 q-23 -5 -52 -6 q26 -25 73 -65 q31 -27 71 -60 l65 -53 q6 -6 6 -14 q-12 -23 -44 -53 q-23 -22 -44 -38 q-8 -8 -17 -8 q-7 1 -14 8 q-13 12 -67 71 q-16 16 -33 38 q-18 -15 -60 -42 q-85 -60 -200 -132 l-11 0 q-5 1 -10 6 q-17 10 -38 34 q-11 14 -16 29 q2 9 9 15 q56 32 131 66 q45 21 87 36 q47 17 78 21 q-7 7 -10 11 q-11 11 -56 61 l0 -6 q-3 -14 -129 -116 q-6 -7 -14 -7 q-12 2 -36 27 l-5 5 l-59 -91 q-3 -17 -20 -17 l-81 35 q-2 -79 -2 -223 q0 -17 -38 -17 l-90 0 q-19 3 -22 20 q19 587 104 813 q36 67 64 71 q15 -6 15 -54 q-9 -101 -18 -271 q28 -10 59 -33 q1 2 4 5 q27 29 42 34 ZM534 302 q7 3 60 22 l23 10 q15 3 27 2 l-36 39 q-9 -1 -24 -1 q-34 -48 -50 -72 ZM325 368 q-4 -105 -5 -151 q21 33 54 81 q33 41 63 74 q-46 2 -57 7 q-2 0 -6 2 l-16 -19 q-5 -8 -21 -8 q-4 4 -12 14 ZM801 120 q27 -4 27 -28 q0 -6 -81 -56 q-87 -56 -236 -143 l-12 0 q-10 4 -14 7 q-25 21 -43 41 q-14 20 -18 34 q2 11 10 17 q75 36 156 68 q58 23 101 36 q67 21 110 24 Z" /><glyph glyph-name="" unicode="&#x82cd;" d="M397 813 q15 0 21 -16 q-2 -8 -7 -54 q-2 -8 -2 -22 q86 3 173 12 q20 0 41 3 q10 16 16 23 q24 35 54 47 q24 0 27 -20 q-4 -28 -5 -42 q92 9 183 24 q10 0 10 -12 q-4 -11 -13 -31 l-13 -32 q-9 -23 -36 -26 q-63 -15 -139 -23 q-2 -40 -2 -61 q0 -31 -27 -31 l-80 -2 q-22 0 -25 28 q4 36 8 52 q-81 -9 -177 -12 l1 -49 q-3 -12 -19 -12 l-88 0 q-20 0 -21 16 q0 28 2 42 q-40 -1 -121 -1 q-57 9 -57 42 q9 44 78 86 q10 0 14 2 q8 -3 19 -17 q12 -9 50 -9 l37 0 q14 37 46 69 q25 22 52 26 ZM252 223 q-6 -1 -12 -1 q-27 0 -33 14 q0 13 4 26 q-49 -48 -62 -51 q-15 0 -23 4 q-42 27 -75 85 q0 17 3 24 q38 53 247 177 q129 74 223 100 q33 0 38 -17 q0 -9 -28 -39 q187 -85 397 -165 q14 -11 14 -23 q0 -8 -22 -33 q-9 -15 -31 -41 q-21 -27 -32 -27 q-9 0 -14 1 q-16 7 -109 58 l1 -17 q-27 -168 -39 -183 q-18 -31 -85 -31 q-141 9 -261 24 q-10 -54 -12 -77 q0 -25 22 -28 q223 12 329 28 q56 6 87 21 q15 16 36 19 q35 -17 39 -58 q0 -62 -170 -83 q-234 -26 -359 -34 q-130 0 -130 83 q0 64 57 244 ZM455 472 q-42 -37 -82 -69 l-36 -31 q-23 -21 -32 -28 q4 -2 10 -2 q14 0 95 27 q99 24 178 27 q-47 26 -133 76 ZM368 188 q71 -6 151 -6 q18 0 39 15 q22 9 59 99 q0 16 -12 16 q-52 0 -222 -50 l-15 -74 Z" /><glyph glyph-name="" unicode="&#x4ed3;" d="M253 325 q-29 0 -36 16 q0 30 27 78 q29 44 59 55 q5 -2 15 -8 q6 -7 19 -7 q14 0 88 28 q95 26 166 29 q66 0 103 -17 q-107 70 -221 151 q-50 -46 -77 -69 q-108 -104 -172 -163 q-57 -59 -70 -63 q-13 0 -21 4 q-42 24 -72 81 q0 18 1 23 q42 66 264 219 q139 93 239 126 q31 0 36 -16 q0 -17 -54 -71 q190 -103 400 -199 q16 -11 16 -22 q0 -7 -23 -35 q-14 -22 -33 -43 q-21 -28 -32 -28 q-10 0 -16 2 q-9 4 -118 73 q-9 5 -16 10 q24 -24 24 -61 q-27 -214 -39 -232 q-19 -35 -85 -35 q-134 11 -271 31 q-10 -74 -11 -94 q0 -32 22 -35 q215 11 322 24 q52 4 84 17 q15 13 37 16 q40 -19 46 -69 q0 -61 -161 -81 q-208 -27 -337 -35 q-156 0 -156 84 q0 86 53 316 ZM366 269 q75 -9 163 -9 q19 0 39 17 q22 12 60 134 q0 18 -12 18 q-54 0 -235 -62 q-6 -34 -8 -52 l-7 -46 Z" /><glyph glyph-name="" unicode="&#x85cf;" d="M722 806 q15 -3 15 -20 q-4 -32 -5 -50 q78 5 186 19 q9 0 9 -12 q-18 -40 -26 -60 q-8 -21 -34 -24 q-55 -11 -141 -19 q-3 -30 -3 -54 q0 -15 -16 -18 l-50 0 q13 -14 25 -45 q130 9 197 26 q10 0 10 -7 q-4 -14 -12 -37 q-4 -23 -14 -36 q-23 -18 -127 -27 q-14 -2 -18 -2 q26 -60 54 -117 q66 82 107 85 q14 0 14 -12 q0 -18 -11 -42 q-26 -55 -58 -132 q64 -123 143 -248 q0 -11 -13 -19 q-11 -11 -90 -52 q-13 0 -22 9 q-49 88 -81 159 l-51 -129 q-3 -16 -20 -16 l-81 36 q-19 4 -19 25 l4 10 l-47 -19 q-30 -12 -63 -21 q-63 -19 -125 -19 q-55 9 -55 61 q0 81 74 313 q-35 0 -47 5 q-37 -195 -62 -368 q-4 -27 -31 -27 l-89 16 q-16 3 -16 21 q9 39 52 205 q-16 -2 -26 -2 l-2 0 q-13 -53 -24 -116 q-1 -28 -17 -28 l-65 14 q-12 0 -12 15 q22 72 43 117 q-17 2 -22 4 q-13 3 -13 16 q3 20 22 43 q19 19 33 26 q10 -4 21 -14 q3 -7 18 -7 q33 0 63 5 l12 45 q-38 -7 -63 -7 q-72 0 -79 50 q0 43 37 89 q46 49 87 61 q19 0 19 -16 q-38 -64 -44 -107 q0 -15 11 -15 q20 1 48 8 l23 85 q-11 0 -16 3 q-15 6 -15 21 q3 21 28 52 q25 26 39 32 q10 -3 25 -18 q14 -9 80 -9 q113 1 219 8 l0 2 q-2 13 -2 37 q3 8 6 11 q-10 4 -10 17 q2 23 6 45 q-101 -8 -170 -10 q-3 -30 -3 -53 q0 -17 -16 -20 l-89 0 q-19 0 -19 20 q2 29 7 50 q-45 -1 -141 -1 q-55 7 -55 39 q9 42 73 82 q10 0 14 1 q7 -3 17 -16 q9 -8 47 -8 q51 0 77 1 q21 38 47 60 q28 20 41 20 q15 -3 15 -19 q-6 -35 -8 -58 q83 2 150 7 q21 0 42 3 q19 38 42 58 q24 19 36 19 ZM350 426 l-7 -45 q20 21 33 27 q11 -3 22 -15 q6 -9 32 -9 q152 2 201 13 q9 0 9 -8 l-11 -32 q-3 -21 -12 -30 q-8 -7 -45 -10 l-5 -41 q73 -11 73 -63 q0 -24 -16 -56 q13 -13 13 -28 q0 -16 -45 -16 q-37 -7 -48 -8 l-5 -63 l62 19 q9 0 9 -12 l0 -11 l44 100 q30 52 47 79 q-40 104 -67 218 q-105 -6 -273 -9 l-11 0 ZM425 78 q-5 -30 -5 -51 q0 -10 12 -10 q15 2 33 6 q9 47 14 68 l-54 -13 ZM435 144 q61 17 91 22 q3 4 22 38 q0 10 -18 10 q-32 -6 -88 -27 l-7 -43 ZM453 248 q20 8 41 15 q9 35 14 50 l-43 -1 q-8 -38 -12 -64 ZM751 633 q65 -10 94 -50 q0 -4 -4 -12 q-24 -19 -63 -35 q-14 0 -17 12 q-13 43 -24 74 q0 6 4 9 q4 2 10 2 Z" /><glyph glyph-name="" unicode="&#x69fd;" d="M156 645 q15 -3 32 -20 q3 -11 24 -11 q15 82 34 136 q31 58 56 61 q12 -6 12 -47 q1 10 -5 -144 q70 6 98 19 q12 0 12 -9 q-11 -37 -14 -44 q-6 -30 -16 -41 q-8 -18 -37 -24 q-17 -6 -46 -9 q-2 -32 -2 -50 q-2 -62 -2 -88 q133 -121 136 -159 q0 -7 -2 -15 q0 -14 -79 -49 q-8 -7 -18 -7 q-6 2 -13 13 q-18 28 -26 42 q-2 -98 -2 -277 q0 -17 -37 -17 l-87 0 q-20 3 -23 20 q2 93 10 230 q-15 -21 -27 -42 q-9 -12 -18 -12 q-49 30 -90 80 q0 11 10 20 q67 96 142 175 q5 56 16 131 q-84 2 -102 10 q-19 6 -19 26 q5 28 34 63 q29 31 49 39 ZM781 805 q19 0 20 -15 q-4 -25 -5 -35 q65 11 111 23 q11 0 11 -13 q-19 -39 -28 -66 q-9 -25 -39 -28 q-23 -7 -69 -14 q-4 -32 -5 -47 q111 -18 132 -96 q26 -56 37 -202 q-3 -21 -15 -21 l-96 0 q-23 0 -23 15 q-3 8 -3 16 q-49 -23 -120 -37 q-70 -19 -171 -19 q-135 0 -153 91 q0 56 32 123 q25 53 76 107 q35 22 51 22 q25 0 25 -22 q3 0 11 2 l12 47 q-32 -1 -98 -1 q-55 7 -55 39 q9 42 73 82 q10 0 14 1 q8 -3 17 -15 q9 -8 47 -8 q23 0 35 1 l18 38 q21 27 42 36 q19 0 20 -15 q-9 -42 -11 -55 q38 4 56 7 q3 13 9 23 q21 27 42 36 ZM698 645 q-14 -2 -40 -4 l-5 -33 l38 5 l7 32 ZM677 539 q-11 -2 -33 -4 q-4 -40 -5 -59 q18 2 29 4 q3 31 9 59 ZM661 407 q-8 -2 -27 -4 q-2 -32 -2 -47 q13 0 25 3 q2 32 4 48 ZM525 507 q-4 -12 -14 -47 q14 0 27 3 q3 31 7 50 l-20 -6 ZM530 391 q-12 -2 -36 -4 l-2 -17 q0 -20 35 -20 q0 22 3 41 ZM800 386 q-3 21 -3 42 q-10 -2 -13 -2 q-10 -3 -21 -3 q-1 -16 -1 -46 q19 3 38 9 ZM767 495 q18 2 27 4 q-2 25 -24 35 q-3 -21 -3 -39 ZM762 156 q-25 25 -67 29 q-57 0 -140 -26 q-3 -10 -8 -33 q119 11 215 30 ZM611 248 q65 14 121 14 q131 -4 178 -138 q14 -65 20 -171 q0 -25 -23 -25 l-92 0 q-33 0 -33 25 l0 4 q-34 -13 -75 -24 q-65 -17 -152 -17 q-150 0 -168 98 q0 51 31 116 q26 53 73 100 q38 26 57 26 q23 0 26 -20 l37 12 ZM782 77 q-124 -27 -254 -39 q-1 -4 -1 -11 q0 -21 44 -21 q100 0 211 26 l0 45 Z" /><glyph glyph-name="" unicode="&#x7b56;" d="M543 564 q-31 13 -56 27 q-6 6 -6 22 q31 55 97 116 q57 50 90 66 q23 10 43 10 q13 0 13 -12 q0 -15 -26 -64 q4 -1 12 -1 q146 3 199 20 q10 0 10 -8 q-4 -14 -12 -37 q-5 -25 -13 -35 q-8 -14 -42 -20 q-17 -4 -33 -5 q25 -24 27 -35 q0 -7 -2 -15 q0 -12 -73 -45 q-6 -5 -15 -5 q-7 3 -13 12 q-22 34 -58 81 q-22 0 -30 1 l-35 -71 q-8 -17 -32 -17 q-10 2 -14 4 q3 -13 3 -32 l-1 -9 l10 1 q172 13 326 41 q11 0 11 -12 q-20 -44 -28 -67 q-9 -25 -40 -28 q-92 -24 -241 -39 l-43 -5 q-2 -28 -2 -42 q109 12 157 14 q119 0 149 -105 q20 -53 25 -130 q-3 -17 -19 -17 l-117 0 q-17 0 -17 14 l0 110 q-7 30 -54 30 q-31 0 -127 -9 l-1 -83 l395 -170 q12 -9 12 -22 q-14 -31 -79 -82 q-13 -6 -26 -6 q-17 0 -117 62 q-43 23 -187 104 q-1 -52 -1 -148 q0 -18 -41 -18 l-97 0 q-22 3 -25 22 q2 59 10 153 q-40 -26 -60 -38 q-115 -78 -186 -132 q-3 -7 -10 -7 q-6 0 -17 7 q-35 21 -79 54 q-11 9 -13 18 q0 10 8 22 q67 44 187 108 q89 44 183 85 q2 20 8 58 l-184 -20 q-9 -83 -10 -102 q0 -16 -18 -21 l-96 0 q-21 0 -21 21 q6 77 45 146 q23 38 57 61 q31 20 48 20 q16 -3 16 -21 l-5 -18 q75 11 186 25 q6 26 12 48 q-138 -9 -314 -9 q-61 9 -61 44 q10 47 82 92 q11 0 17 2 q5 -3 19 -17 q12 -9 52 -9 q120 0 246 9 q22 43 42 58 ZM302 632 q-26 0 -35 1 l-54 -85 q-9 -16 -32 -16 q-49 12 -101 42 q-6 6 -6 21 q36 59 120 129 q73 55 112 72 q23 10 43 10 q12 0 12 -12 q0 -16 -36 -70 q3 -1 11 -1 q138 3 181 19 q9 0 9 -8 l-5 -18 q-4 -15 -6 -20 q-4 -23 -14 -36 q-8 -14 -37 -18 l-38 -6 q41 -41 43 -59 q0 -6 -2 -14 q0 -13 -69 -43 q-7 -6 -15 -6 q-6 3 -12 12 q-31 52 -69 106 Z" /><glyph glyph-name="" unicode="&#x4fa7;" d="M360 787 q14 0 14 -12 q0 -19 -11 -44 q-50 -91 -93 -175 q-5 -49 -16 -198 q-14 -228 -14 -442 q0 -16 -36 -16 l-85 0 q-18 3 -21 20 q9 235 31 392 l-84 37 q-22 6 -22 30 q14 37 76 146 q48 73 101 140 q101 119 160 122 ZM557 743 q65 -12 71 -95 l16 -473 q-3 -24 -19 -24 q-42 -4 -66 -4 q4 -6 13 -15 q82 -104 85 -134 q0 -12 -8 -18 q-65 -44 -87 -49 q-16 0 -22 12 q-12 38 -29 105 l-40 125 q0 22 21 22 l18 -7 l14 256 q-1 -1 -1 -2 q-58 -216 -126 -511 q-3 -15 -18 -15 l-78 34 q-19 6 -19 25 q8 46 50 178 l-30 0 q-19 0 -19 19 q7 179 47 347 q26 91 60 146 q33 47 50 47 q7 -2 10 -5 q54 36 107 36 ZM415 363 q66 140 106 143 l5 -1 l5 149 q-3 10 -21 13 q-26 -8 -67 -43 q-15 -96 -22 -176 q-3 -52 -6 -85 ZM782 618 q15 -6 15 -55 q-8 -81 -13 -154 q-8 -136 -8 -276 q0 -13 -30 -13 l-71 0 q-16 1 -19 16 q12 299 62 411 q36 67 64 71 ZM936 778 q12 -6 12 -45 q-5 -182 -7 -289 q-4 -253 -4 -516 q0 -17 -39 -17 l-89 0 q-20 3 -23 20 q18 571 96 788 q30 56 54 59 Z" /><glyph glyph-name="" unicode="&#x6d4b;" d="M82 473 q83 0 162 -64 q14 -8 17 -21 q-9 -24 -52 -73 q-7 -9 -23 -9 q-72 58 -124 130 l-9 17 q0 20 29 20 ZM238 218 q17 0 17 -20 q-2 -12 -16 -49 q-10 -31 -27 -75 q-19 -57 -51 -143 q-7 -7 -21 -7 q-17 3 -45 20 q5 -3 -43 30 q-4 5 -8 15 q3 18 25 54 q37 54 65 89 q45 54 85 82 q16 4 19 4 ZM538 734 q65 -12 71 -95 l16 -468 q-3 -25 -19 -25 q-40 -4 -60 -4 l13 -15 q81 -111 84 -141 q0 -12 -8 -18 q-62 -42 -88 -48 q-16 0 -22 11 l-28 109 q-22 73 -38 130 q0 21 21 21 l11 -4 q6 79 14 232 q-63 -229 -122 -488 q-3 -15 -19 -15 l-78 34 q-18 6 -18 25 q10 53 46 167 l-28 0 q-18 0 -18 20 q6 190 48 359 q31 99 64 151 q35 48 54 48 q11 -3 12 -11 q50 25 92 25 ZM405 365 q63 123 99 126 l4 0 l5 154 q-3 10 -22 13 q-19 -5 -57 -34 q-15 -96 -22 -176 q-3 -27 -7 -83 ZM770 643 q14 -6 14 -54 q-7 -58 -15 -162 q-10 -151 -10 -288 q0 -13 -30 -13 l-72 0 q-15 2 -18 16 q12 310 66 430 q36 67 65 71 ZM934 810 q12 -6 12 -45 q-5 -92 -10 -301 q-6 -297 -6 -539 q0 -17 -38 -17 l-90 0 q-20 3 -23 20 q19 595 101 824 q31 55 54 58 ZM104 764 q43 -9 92 -55 q95 -95 98 -121 q0 -12 -8 -18 q-62 -43 -88 -49 q-15 0 -21 12 q-29 67 -40 96 l-54 114 q0 21 21 21 Z" /><glyph glyph-name="" unicode="&#x63d2;" d="M152 650 q14 -4 31 -19 q5 -12 30 -12 q8 0 12 1 q16 64 38 116 q36 70 66 74 q16 -6 16 -56 q-7 -54 -15 -126 q55 6 77 17 q10 0 10 -8 q-6 -21 -12 -37 q-4 -24 -13 -35 q-7 -20 -39 -29 q-10 -4 -33 -8 q-3 -24 -7 -72 q-4 -61 -5 -87 l50 23 q15 0 15 -13 q-4 -47 -32 -76 q-18 -18 -38 -32 q-9 -186 -9 -347 q0 -16 -37 -16 l-87 0 q-20 3 -23 20 q5 157 16 272 q-41 -14 -88 -22 q-45 0 -45 41 q8 21 29 61 q16 22 25 25 q8 -2 26 -8 q18 0 64 17 q13 125 29 204 q-93 0 -113 9 q-17 6 -17 24 q4 26 33 62 q28 30 46 37 ZM608 652 q-30 -2 -97 -2 q-55 7 -55 39 q9 42 73 82 q10 0 14 1 q6 -2 18 -16 q8 -7 46 -7 q76 0 140 8 q71 6 138 22 q9 0 9 -12 q-15 -33 -26 -59 q-9 -22 -34 -25 q-42 -12 -110 -21 q-8 -2 -12 -2 l-1 -64 q9 0 23 2 q100 9 194 31 q10 0 10 -12 q-12 -27 -27 -65 q-9 -24 -38 -27 q-58 -15 -146 -24 q-12 -2 -17 -2 l0 -84 q13 15 26 18 q8 -3 16 -12 q6 -7 17 -7 q24 10 43 14 q107 0 114 -111 q23 -200 34 -363 q0 -26 -22 -26 l-98 0 q-23 0 -23 27 l-43 -7 q-45 -11 -128 -17 q-80 -8 -165 -8 q-151 0 -151 147 q2 92 28 168 q6 21 24 57 q15 25 23 36 q-22 6 -22 30 q6 20 21 45 q11 16 20 19 l19 -6 q24 0 129 24 q10 0 10 -10 q-3 -31 -22 -52 q-28 -21 -68 -34 l-12 -53 q-7 -34 -12 -77 q65 3 87 12 q9 0 9 -8 q-3 -14 -11 -37 q-4 -22 -14 -35 q-3 -3 -13 -3 q-14 -2 -39 -2 l-24 0 q0 -56 5 -101 q9 -34 43 -34 q25 0 49 3 q10 204 34 478 q-70 -3 -152 -3 q-54 8 -54 39 q9 43 73 82 q10 0 14 1 q5 -3 17 -16 q10 -7 47 -7 q42 0 63 1 l6 65 ZM817 172 q-33 -15 -72 -21 q-33 0 -33 30 q6 18 21 45 q12 16 19 19 l19 -7 q11 0 45 7 l0 70 q0 29 -29 29 q-11 -4 -25 -6 q-29 -8 -39 -10 l-13 0 q-2 -93 -4 -302 q63 8 111 19 l0 127 Z" /><glyph glyph-name="" unicode="&#x53c9;" d="M716 759 q33 0 63 -6 q45 -13 52 -58 q0 -67 -195 -300 q-48 -60 -90 -108 l67 -37 q197 -107 344 -201 q15 -9 15 -21 q0 -9 -2 -21 q-32 -57 -59 -87 q-10 -8 -26 -8 q-233 135 -433 265 q-63 -74 -128 -140 q-106 -123 -119 -126 q-10 -7 -19 -7 q-68 46 -108 89 q-6 6 -6 18 q13 31 245 256 q-112 75 -213 150 q-12 8 -12 21 q6 22 53 22 q95 -21 265 -103 q12 10 35 33 q218 213 218 250 q0 12 -21 12 q-399 -66 -464 -66 q-24 0 -29 18 q0 34 19 66 q29 40 61 58 q24 -15 54 -15 q166 23 433 46 ZM318 585 q97 -1 190 -54 q8 -10 8 -17 q0 -5 -26 -42 q-28 -38 -37 -38 q-16 0 -23 7 q-63 50 -126 106 q-9 6 -11 20 q6 18 25 18 Z" /><glyph glyph-name="" unicode="&#x67e5;" d="M564 515 q-2 -42 -2 -58 q0 -19 -21 -24 l-106 0 q-24 0 -24 24 q3 41 9 80 l-60 -42 l-162 -123 q-7 -6 -24 -17 q-10 0 -21 6 q-26 10 -76 68 q-5 5 -7 15 q0 6 11 17 q27 20 109 67 q55 28 136 72 q-48 -2 -154 -2 q-62 9 -62 44 q10 47 82 92 q11 0 17 2 q7 -4 20 -18 q9 -8 51 -8 q111 0 191 5 q20 40 44 64 q32 30 48 30 q23 -3 23 -28 q-6 -40 -8 -60 q10 0 16 1 q143 8 308 34 q12 0 12 -13 q-16 -34 -30 -72 q-11 -28 -42 -31 q-92 -16 -228 -26 l329 -119 q13 -10 13 -24 q-14 -32 -82 -84 q-13 -6 -25 -6 q-20 0 -115 52 l-170 82 ZM675 437 q59 -3 85 -56 q33 -62 52 -275 q0 -23 -20 -23 l-117 0 q-20 0 -20 21 l0 8 q-14 -4 -46 -10 q-116 -30 -229 -33 q-199 0 -199 122 q6 52 48 107 q39 50 107 98 q35 28 60 34 q31 -3 31 -28 q0 -2 -1 -3 q137 37 249 38 ZM375 167 q93 2 176 13 q51 6 101 15 l0 45 q-31 -9 -69 -16 q-84 -20 -240 -31 q6 -26 32 -26 ZM371 295 q-4 -8 -4 -9 q86 2 186 15 q63 7 98 14 l0 7 q0 18 -25 24 q-86 -2 -251 -45 l-4 -6 ZM919 81 q12 0 12 -13 q-10 -22 -30 -70 q-9 -26 -41 -31 q-100 -15 -245 -26 q-181 -15 -473 -15 q-65 10 -65 47 q11 50 87 96 q11 0 17 2 q8 -4 20 -19 q11 -8 56 -8 q170 0 333 10 q163 7 329 27 Z" /><glyph glyph-name="" unicode="&#x5dee;" d="M358 808 q11 0 30 -31 q32 -55 54 -85 q64 3 128 9 q23 49 73 96 q25 17 44 20 q15 -3 15 -20 l-21 -86 q96 11 187 27 q11 0 11 -12 q-14 -27 -27 -64 q-9 -25 -39 -28 q-78 -17 -202 -27 q-15 -3 -32 -3 q-21 -39 -34 -61 q13 0 28 3 q120 12 233 40 q10 0 10 -12 q-12 -27 -27 -65 q-9 -24 -38 -27 q-62 -18 -175 -34 q-54 -8 -90 -10 q-16 -28 -21 -38 q74 4 111 8 q169 10 340 36 q12 0 12 -13 q-10 -22 -30 -70 q-9 -27 -41 -30 q-103 -22 -253 -34 q-90 -10 -206 -15 q-173 -308 -191 -332 q-15 -21 -26 -21 q-12 0 -25 8 q-25 9 -81 54 q-10 11 -13 18 q0 8 3 17 q51 80 163 251 q-36 -1 -112 -1 q-64 9 -64 47 q9 50 87 96 q10 0 16 2 q10 -5 21 -19 q12 -9 55 -9 q50 0 74 1 l24 35 q-30 -1 -92 -1 q-55 7 -55 41 q9 43 75 83 q10 0 14 2 q6 -2 18 -16 q11 -8 49 -8 q38 0 58 1 q21 30 42 63 q-88 -4 -218 -4 q-55 7 -55 40 q9 41 73 82 q10 0 14 1 q6 -2 18 -16 q8 -8 46 -8 l6 0 l0 2 q0 47 9 81 q11 36 27 36 ZM570 128 q-63 -4 -154 -4 q-58 7 -58 42 q9 43 79 86 q9 0 14 2 q8 -3 19 -17 q11 -9 50 -9 q87 0 181 12 q94 10 179 28 q11 0 11 -12 q-10 -20 -28 -64 q-9 -24 -38 -27 q-55 -15 -140 -27 q-4 -66 -4 -90 q129 9 251 31 q11 0 11 -14 l-31 -74 q-10 -27 -43 -31 q-72 -15 -189 -27 q-142 -15 -368 -15 q-64 9 -64 46 q10 49 87 96 q11 0 17 2 q7 -4 20 -18 q12 -9 56 -9 q60 0 123 3 q12 60 19 90 Z" /><glyph glyph-name="" unicode="&#x4ea7;" d="M145 343 q-61 9 -61 46 q11 50 87 96 q11 0 17 2 q8 -4 20 -19 q11 -8 56 -8 l19 0 q-19 38 -29 60 q-18 33 -36 69 l-45 0 q-67 9 -67 48 q12 51 90 99 q11 0 17 2 q10 -5 20 -19 q14 -9 58 -9 q73 0 148 3 q-1 2 -1 5 q-15 41 -33 87 q0 24 24 24 q36 -7 78 -39 q54 -44 74 -67 l5 0 q138 10 291 35 q12 0 12 -12 q-15 -31 -31 -73 q-9 -27 -42 -30 q-22 -6 -65 -13 q-26 -123 -32 -154 q91 5 201 17 q12 0 12 -13 q-10 -22 -30 -70 q-9 -27 -41 -30 q-93 -15 -243 -24 q-138 -11 -353 -13 q-49 -227 -88 -425 q0 -12 -18 -12 l-113 26 q-12 9 -12 27 q44 155 111 384 ZM682 620 q-56 -8 -85 -11 q-120 -15 -290 -18 l10 -6 q84 -57 87 -72 q0 -12 -8 -18 q-26 -19 -53 -34 q105 1 242 8 q31 83 97 151 Z" /><glyph glyph-name="" unicode="&#x7316;" d="M377 757 q27 0 27 -15 q-6 -20 -99 -151 l-15 -21 l25 -66 q45 -171 60 -374 q8 26 21 59 q54 115 102 140 q26 0 29 -21 q93 26 149 31 q200 0 233 -128 q32 -78 47 -281 q-3 -25 -18 -25 l-113 0 q-27 0 -27 17 l-5 33 q-158 -34 -316 -40 q-65 0 -95 24 l0 -11 q-3 -18 -19 -18 l-105 0 q-27 0 -27 13 q0 138 -3 243 q-45 -57 -72 -94 q-9 -12 -17 -12 q-49 30 -90 80 q0 11 10 20 q72 89 160 168 q-6 71 -15 116 l-16 -24 q-13 -24 -23 -24 q-12 0 -29 12 q-32 17 -67 41 q-9 6 -9 25 q10 27 50 77 q32 40 49 59 q-27 82 -76 173 q0 15 13 21 q19 0 36 -10 q53 -27 104 -110 q76 61 141 73 ZM738 775 q71 -6 102 -63 q41 -44 63 -319 q0 -13 -12 -15 q-27 -9 -120 -9 q-25 3 -25 22 q-107 -22 -216 -25 q-101 0 -113 68 q0 101 51 206 q65 118 121 143 q27 0 27 -25 q74 17 122 17 ZM593 675 q-9 -33 -15 -63 q84 6 164 17 l-1 36 q-6 40 -51 40 q-40 0 -97 -30 ZM558 471 q0 -21 15 -21 q73 3 171 22 l0 72 q-85 -14 -181 -22 l-5 -51 ZM509 72 q-2 -32 -2 -45 q0 -22 17 -22 q119 6 258 36 q-4 38 -5 58 q-6 -3 -13 -3 q-60 -16 -219 -24 l-36 0 ZM519 211 q-4 -38 -4 -52 q12 -4 36 -4 q142 6 223 27 l0 8 q0 56 -81 56 q-69 0 -174 -35 Z" /><glyph glyph-name="" unicode="&#x573a;" d="M401 275 q12 0 12 -9 q0 -48 -31 -70 q-47 -29 -91 -40 q-66 -26 -201 -38 q-61 0 -61 26 q0 22 21 64 q29 40 49 47 q12 -7 27 -18 q14 -7 35 -7 q1 93 11 205 q-91 0 -111 9 q-18 6 -18 25 q5 28 34 63 q29 30 47 38 q13 -3 31 -21 q6 -10 31 -10 q15 83 48 145 q27 52 59 61 q16 0 22 -19 q-1 -8 -8 -127 q-3 -27 -3 -52 q67 7 100 23 q10 0 10 -8 l-12 -38 q-5 -25 -13 -36 q-9 -24 -45 -33 q-20 -7 -44 -10 q-1 -32 -1 -98 l2 -98 q50 8 100 26 ZM761 531 q123 -9 142 -197 q23 -169 36 -366 q0 -29 -23 -29 l-103 0 q-27 0 -27 29 q0 218 -6 422 q0 59 -43 59 q-9 0 -65 -18 l-69 -27 l-14 -21 q-21 -18 -30 -18 l-105 30 q-7 1 -7 14 q185 236 192 253 q0 8 -8 8 q-12 -3 -63 -11 q-78 -33 -129 -45 q-54 0 -56 27 q6 34 31 63 q30 37 51 43 q12 0 19 -6 q12 -16 26 -16 q10 0 95 24 q27 8 71 19 q61 16 64 16 q76 0 76 -44 q0 -32 -57 -103 q-26 -36 -76 -113 q-3 -6 -6 -9 q45 13 84 16 ZM739 347 q12 0 15 -14 l-50 -204 q5 20 -47 -215 q-3 -10 -21 -10 q-71 20 -111 46 q-4 4 -4 14 q48 134 125 276 q56 104 93 107 ZM586 355 q13 0 16 -16 q0 -2 -19 -46 q-16 -37 -57 -144 q-43 -119 -71 -201 q-3 -10 -21 -10 q-75 23 -111 46 q-4 4 -4 14 q59 126 153 257 q69 97 114 100 Z" /><glyph glyph-name="" unicode="&#x5e38;" d="M552 809 q14 -4 19 -17 q0 -29 -9 -113 q-1 -12 -1 -32 l82 11 q-12 12 -19 24 q0 8 11 19 q31 30 100 75 l23 9 q12 5 28 2 q13 -10 13 -17 l0 -7 q-2 -15 -55 -95 q130 -3 163 -114 q22 -52 27 -131 q-3 -19 -22 -19 l-127 0 q-17 0 -17 16 q0 91 1 105 q-9 33 -59 33 q-70 0 -493 -63 q-6 -63 -6 -109 q-3 -10 -20 -10 l-103 0 q-15 0 -15 12 q11 127 106 237 q19 12 37 17 q14 -4 19 -17 q0 -13 -3 -34 l62 12 q-24 22 -31 76 q0 48 8 77 q9 35 26 35 q14 0 32 -36 q44 -76 67 -108 q0 -9 -6 -15 q-5 -7 -22 -16 l73 12 q16 85 74 164 q19 12 37 17 ZM379 505 q23 0 26 -15 q84 16 170 24 q79 0 119 -31 q65 -30 65 -172 q0 -30 -22 -30 l-91 -4 q-24 0 -24 22 q-32 -6 -61 -9 l1 -35 l62 5 q200 0 233 -139 q24 -47 34 -167 q-3 -26 -19 -26 l-112 0 q-28 0 -28 18 q-9 78 -9 151 q0 62 -81 62 q-25 0 -77 -4 q4 -121 9 -220 q0 -25 -18 -25 l-121 0 q-19 0 -19 25 q4 98 12 202 q-76 -15 -162 -36 q-1 -3 -1 -6 q-10 -91 -14 -139 q0 -16 -19 -22 l-95 0 q-22 0 -22 22 q7 93 47 182 q28 50 61 76 q34 25 50 25 q15 -3 15 -19 l-2 -9 l148 27 q0 12 2 38 q-60 -4 -87 -4 q-108 0 -120 68 q0 49 44 97 q57 56 106 68 ZM620 412 q0 32 -51 32 q-85 -16 -188 -46 q-3 -12 -3 -20 q0 -22 16 -22 q103 3 226 24 l0 32 Z" /><glyph glyph-name="" unicode="&#x957f;" d="M365 211 q-21 -115 -26 -170 q0 -17 19 -17 q44 0 143 37 q10 0 10 -9 l-17 -72 q-6 -19 -60 -38 q-98 -26 -156 -26 q-80 4 -86 114 q3 111 32 239 q-32 -1 -95 -1 q-68 9 -68 49 q11 53 91 102 q12 0 18 2 q8 -4 21 -20 q13 -10 59 -10 l4 0 q19 66 45 145 q84 209 179 262 q19 0 19 -21 q-60 -194 -92 -354 l-6 -28 q74 2 183 13 q167 14 327 43 q12 0 12 -14 q-16 -34 -31 -74 q-11 -28 -43 -31 q-99 -26 -245 -40 q-45 -7 -132 -14 q214 -119 430 -225 q16 -10 16 -23 q0 -7 -23 -35 q-17 -24 -34 -43 q-21 -30 -33 -30 l-15 2 q-26 13 -148 91 q-110 67 -298 196 ZM800 736 q33 0 37 -18 q0 -19 -132 -141 q-84 -84 -111 -110 q-35 -38 -45 -41 q-13 0 -20 4 q-34 20 -62 71 q0 15 2 19 q28 41 174 137 q92 58 157 79 Z" /><glyph glyph-name="" unicode="&#x2f1a;&#x5382;" d="M231 607 q-55 12 -55 46 q12 51 90 99 q10 0 16 2 q10 -5 21 -19 q11 -10 57 -10 q145 0 288 13 q131 8 285 31 q11 0 11 -13 q-15 -34 -30 -72 q-10 -27 -42 -30 q-90 -20 -215 -31 q-113 -14 -300 -17 q-109 -433 -166 -684 q0 -14 -20 -14 l-124 29 q-14 8 -14 29 q70 233 198 641 Z" /><glyph glyph-name="" unicode="&#x8d85;" d="M821 768 q93 -9 93 -81 q-10 -85 -38 -217 q-5 -16 -34 -17 l-96 0 q-22 3 -24 28 q49 100 80 185 q0 18 -23 18 l-64 -9 q-46 -129 -71 -215 q0 -12 -18 -12 l-107 25 q-12 8 -12 26 l86 155 q-28 -4 -38 -4 q-30 0 -35 5 q-9 1 -12 14 q0 13 15 43 q23 38 45 44 q8 -3 16 -12 q6 -7 17 -7 q132 26 220 31 ZM611 435 q27 0 27 -22 l0 -2 q44 14 87 21 q86 0 126 -33 q60 -40 60 -241 q0 -32 -22 -32 l-95 -4 q-27 0 -27 22 q0 7 1 11 q-99 -23 -193 -24 q-98 0 -110 61 q0 70 43 144 q56 81 103 99 ZM772 322 q0 35 -53 35 q-41 -14 -105 -44 q-11 -51 -12 -88 q0 -19 15 -19 q71 4 154 24 l1 92 ZM350 806 q14 0 20 -16 l-4 -102 l5 1 q53 6 105 18 q8 0 8 -11 q-12 -27 -24 -57 q-9 -21 -33 -24 q-30 -8 -65 -11 q-2 -35 -4 -101 q56 3 117 17 q9 0 9 -12 q-4 -11 -13 -31 l-13 -32 q-9 -23 -36 -26 q-32 -7 -66 -11 q-1 -31 -1 -91 q84 12 105 19 q13 0 13 -12 l-10 -36 q-8 -34 -14 -40 q-9 -9 -53 -16 l-41 -7 l1 -96 l152 -19 q269 -34 419 -56 q23 -8 23 -27 q-3 -25 -43 -111 q-3 -10 -19 -10 l-704 137 l-6 -103 q0 -16 -18 -19 l-90 0 q-20 0 -20 19 q8 132 45 249 q25 68 57 106 q32 33 48 33 q13 -3 13 -17 q-14 -79 -22 -161 l39 -5 q0 109 10 252 q-34 -2 -109 -2 q-55 7 -55 39 q9 42 73 82 q10 0 14 1 q8 -3 18 -15 q8 -8 47 -8 q13 0 20 1 q6 51 15 100 q-27 -2 -85 -2 q-50 6 -50 36 q9 37 67 73 q9 0 13 2 q8 -4 16 -15 q8 -7 42 -7 q12 0 18 1 q8 28 13 42 q24 71 53 81 Z" /><glyph glyph-name="" unicode="&#x6f6e;" d="M397 530 q0 20 4 58 q-83 0 -102 8 q-16 6 -16 23 q3 23 30 56 q27 30 43 36 q12 -3 30 -18 q6 -11 31 -11 q15 44 47 81 q24 28 55 33 q15 0 21 -18 q-1 -4 -8 -65 q-2 -10 -2 -26 q83 5 117 16 q10 0 10 -8 l-11 -35 q-3 -23 -13 -33 q-9 -19 -50 -25 q-21 -6 -59 -9 l1 -53 q80 -6 80 -93 q0 -49 -2 -223 q0 -15 -21 -15 q-18 -3 -83 -3 q-12 0 -12 15 q-6 -3 -10 -3 q-5 -40 -7 -82 q81 6 117 21 q10 0 10 -8 q-4 -14 -12 -37 q-4 -22 -14 -35 q-10 -19 -54 -25 q-18 -4 -45 -6 q1 -50 8 -110 q0 -19 -20 -19 l-92 0 q-20 0 -20 20 q0 50 6 101 q-114 0 -133 8 q-17 4 -17 22 q3 23 30 56 q29 29 42 34 q11 -3 29 -18 q6 -10 39 -10 q14 0 20 1 l11 67 q-8 -2 -20 -2 q-97 0 -107 68 q0 78 40 159 q52 91 94 110 q9 0 15 -3 ZM396 436 q-2 -11 -4 -31 q8 -5 27 -5 q29 2 62 15 q17 4 34 12 q0 13 3 26 q-3 14 -16 14 q-38 -7 -106 -31 ZM506 360 q-13 -8 -23 -11 q-36 -18 -101 -27 q-1 -8 -1 -21 q0 -21 15 -21 q49 6 103 27 l7 53 ZM852 760 q71 -9 77 -91 l28 -715 q-3 -24 -19 -24 q-52 -4 -86 -4 q-21 0 -26 23 l3 269 q-36 -12 -87 -18 q-5 -116 -5 -260 q0 -16 -36 -16 l-85 0 q-18 3 -21 20 q21 553 112 765 q33 62 60 66 q10 -4 13 -33 q38 18 72 18 ZM774 658 q-8 -69 -15 -157 l6 0 q25 0 67 7 l1 156 q-3 11 -21 14 q-15 -4 -38 -20 ZM753 419 q-3 -42 -7 -129 q3 -1 9 -1 q32 0 75 8 l1 140 q-31 -12 -78 -18 ZM73 465 q86 0 168 -47 q14 -8 17 -21 q-9 -24 -52 -73 q-7 -9 -23 -9 q-73 49 -130 113 l-9 17 q0 20 29 20 ZM234 238 q17 0 17 -21 q-2 -10 -16 -43 l-29 -65 q-23 -56 -54 -124 q-7 -7 -21 -7 q-17 3 -45 20 q-21 14 -43 30 q-5 4 -8 15 q3 13 27 46 q29 38 66 76 q47 46 87 68 q13 5 19 5 ZM100 764 q40 -9 82 -50 q85 -84 88 -107 q0 -12 -8 -18 q-62 -42 -88 -48 q-16 0 -22 11 l-32 87 q-19 52 -42 104 q0 21 22 21 Z" /><glyph glyph-name="" unicode="&#x8f66;" d="M894 722 q11 0 11 -13 l-31 -75 q-11 -28 -43 -31 q-82 -16 -228 -28 q-107 -10 -216 -13 q-35 -83 -39 -124 q0 -25 51 -25 q67 0 119 5 q11 30 24 57 q30 60 65 69 q19 0 28 -22 q-1 -24 -6 -90 q107 16 206 41 q15 0 15 -15 q-3 -53 -34 -62 q-76 -46 -194 -70 q-4 -64 -5 -96 q140 7 238 26 q25 2 67 8 q16 0 16 -13 l-36 -77 q-9 -27 -45 -33 q-64 -20 -242 -31 l1 -184 q-3 -13 -23 -13 l-108 0 q-23 0 -25 18 q0 85 6 172 l-46 -1 q-149 0 -244 2 q-70 3 -86 17 q-27 11 -27 47 q11 28 29 46 q19 24 50 42 q12 0 18 1 q9 -3 23 -20 q13 -10 61 -10 q97 -4 194 -4 q25 0 37 1 q1 20 5 53 q2 14 6 27 q-45 -4 -106 -4 q-174 0 -195 122 q0 61 33 136 l-59 0 q-68 9 -68 49 q12 53 92 102 q11 0 17 2 q10 -5 22 -20 q11 -10 58 -10 l12 0 q41 53 104 106 q44 29 66 29 q32 0 32 -31 q-26 -48 -51 -101 q70 3 146 9 q165 10 305 29 Z" /><glyph glyph-name="" unicode="&#x64a4;" d="M123 642 q13 -3 27 -17 q13 59 34 119 q32 61 57 64 q14 -6 14 -49 q-6 -60 -12 -142 q27 2 45 6 q-2 2 -2 8 q3 23 29 55 q25 27 41 33 q13 -3 28 -17 q6 -10 38 -10 l17 0 q-2 9 -4 29 l-6 31 q-5 19 -7 32 q0 20 20 20 q27 -6 55 -25 q56 -45 58 -57 q0 -10 -8 -16 l-14 -10 q88 6 127 18 q10 0 10 -7 q-4 -14 -12 -37 q-5 -25 -13 -36 q-11 -14 -54 -20 q-41 -8 -126 -11 q-31 -94 -31 -114 q0 -11 12 -11 q26 6 72 27 q-10 34 -21 65 q0 19 20 19 q31 -6 62 -35 l32 -29 q23 50 54 108 q69 120 114 153 q6 0 18 -4 q6 -6 6 -14 q0 -7 -38 -113 l-11 -31 q9 -6 25 -6 q130 4 175 24 q9 0 9 -8 l-11 -33 q-3 -20 -12 -31 q-6 -15 -37 -21 l-2 -1 q-41 -112 -98 -288 l155 -251 q12 -7 12 -21 q-15 -31 -76 -78 q-12 -6 -24 -6 q-12 0 -71 141 q-28 56 -40 83 q-20 -57 -61 -183 q-3 -7 -11 -7 q-22 7 -67 25 q-3 -24 -18 -24 q-39 -3 -85 -3 q-20 0 -25 22 l3 100 q-58 -13 -105 -20 q-2 -25 -2 -73 q0 -31 -29 -31 l-83 -2 q-21 0 -24 29 q12 231 72 363 q28 37 57 49 q22 0 25 -16 q63 23 119 23 q16 -4 23 -7 q5 16 17 48 q-2 -1 -5 -1 q-16 0 -20 10 q-3 6 -3 11 l-16 -8 q-29 -16 -47 -23 q-44 -20 -97 -20 q-62 7 -62 64 q0 39 58 149 q-31 0 -49 3 q-2 -8 -8 -22 q-4 -25 -14 -38 q-4 -13 -25 -19 q-11 -5 -40 -8 q-2 -17 -4 -55 q-3 -45 -3 -86 l62 28 q11 -5 11 -25 q0 -34 -16 -47 q-15 -21 -46 -37 q-6 -4 -14 -8 q-6 -189 -6 -350 q0 -16 -35 -16 l-83 0 q-18 3 -21 20 q6 170 16 289 q-21 -8 -34 -9 q-34 0 -37 24 q0 25 10 54 q5 13 15 29 q8 11 18 16 q8 -5 23 -7 q5 -1 14 -1 q8 90 23 179 q-52 2 -66 7 q-16 6 -16 24 q3 24 31 58 q27 30 44 36 ZM392 118 q56 6 106 18 q0 29 1 44 q-58 -13 -105 -20 q-2 -30 -2 -42 ZM399 240 q51 6 102 17 l1 37 q-3 9 -20 12 q-34 -7 -80 -29 q-3 -19 -3 -37 ZM691 440 l42 -68 q28 65 67 165 l-6 0 q-52 0 -70 1 l-33 -98 ZM656 338 l-5 -15 q-4 -13 -17 -13 q-24 3 -45 14 q4 -15 6 -34 l16 -212 q17 39 41 97 l38 93 l-34 70 Z" /><glyph glyph-name="" unicode="&#x5c18;" d="M540 798 q15 -6 15 -53 q-2 -64 -2 -131 q-1 -86 -1 -233 q0 -17 -37 -17 l-87 0 q-20 2 -23 20 q13 249 73 344 q34 65 62 70 ZM334 656 q16 0 16 -20 q-47 -108 -104 -230 q-7 -7 -16 -7 q-59 10 -94 30 q-11 6 -11 25 q15 50 95 132 q73 67 114 70 ZM664 673 q52 -9 110 -56 q115 -98 118 -124 q0 -14 -10 -21 q-74 -51 -103 -57 q-19 0 -25 13 q-26 50 -50 101 q-52 97 -65 119 q0 25 25 25 ZM826 270 q12 0 12 -13 q-16 -34 -30 -72 q-10 -27 -42 -30 q-63 -13 -182 -23 q-20 -2 -28 -2 l-5 -80 q12 0 32 2 q167 9 351 32 q11 0 11 -14 l-31 -74 q-11 -28 -43 -32 q-115 -14 -256 -22 q-199 -14 -496 -14 q-61 9 -61 44 q9 46 82 92 q10 0 16 2 q7 -4 20 -18 q11 -8 52 -8 q89 0 179 3 q5 44 13 79 q-87 -3 -188 -3 q-63 9 -63 45 q11 49 85 94 q11 0 16 1 q6 -2 19 -17 q12 -9 55 -9 q72 0 110 2 q25 53 56 87 q32 30 50 30 q18 -3 18 -23 q-7 -39 -12 -87 q7 0 21 2 q114 7 239 26 Z" /><glyph glyph-name="" unicode="&#x6c89;" d="M553 756 q17 0 17 -15 q0 -12 -3 -23 l71 18 q69 14 152 17 q106 0 148 -88 q12 -28 15 -78 q6 -48 6 -97 q0 -20 -20 -20 l-103 0 q-25 0 -25 30 q-1 44 -1 131 q0 24 -31 32 q-43 0 -83 -4 q-33 -5 -84 -17 q-47 -13 -79 -25 q-23 -69 -55 -172 q-4 -20 -24 -20 l-98 43 q-23 6 -23 32 q11 27 49 91 q33 49 66 89 q68 76 105 76 ZM97 437 q107 0 214 -61 q15 -10 18 -24 q-9 -24 -58 -80 q-6 -9 -25 -9 q-95 56 -173 133 l-9 19 q0 22 33 22 ZM103 756 q57 -12 118 -62 q124 -106 127 -135 q0 -13 -10 -20 q-76 -53 -103 -58 q-19 0 -25 14 l-57 107 l-76 128 q0 26 26 26 ZM312 187 q17 -11 17 -21 l0 -9 q-3 -27 -162 -213 q-10 -10 -21 -10 q-15 3 -48 36 q-36 32 -49 54 q0 10 14 24 q48 43 184 125 l27 12 q16 5 38 2 ZM560 494 q20 0 20 -34 l-6 -30 q2 -1 6 -1 q28 12 83 32 q48 17 77 17 q85 0 85 -63 q0 -246 5 -397 q0 -25 27 -25 q7 0 17 5 q18 4 26 12 q20 12 27 12 q8 -4 13 -9 q11 -13 11 -30 q0 -61 -140 -66 l-63 -1 q-27 6 -46 23 q-22 29 -22 66 q7 152 22 368 q0 17 -17 17 q-52 -18 -128 -51 q-12 -66 -24 -138 q-19 -135 -26 -259 q0 -13 -16 -16 q-82 -4 -127 -4 q-16 0 -16 20 q9 121 56 285 q43 132 105 235 q26 32 51 32 Z" /><glyph glyph-name="" unicode="&#x9648;" d="M356 773 q71 -12 71 -67 q-3 -42 -94 -276 q71 -107 86 -182 q0 -91 -95 -102 q-72 0 -120 2 q3 -130 11 -221 q0 -19 -22 -19 l-93 0 q-22 0 -22 21 q1 326 26 699 q-5 -1 -11 -1 q-19 0 -24 4 q-7 6 -7 23 q3 20 18 47 q24 38 38 45 q5 0 12 -5 q8 -5 18 -5 q11 1 78 20 q62 17 130 17 ZM210 654 q-10 -157 -11 -269 q0 -97 2 -143 q60 -10 73 -10 q19 0 19 22 q-21 101 -84 206 q95 172 105 199 q0 13 -13 16 q-19 0 -91 -21 ZM487 679 q13 -3 36 -22 q7 -10 35 -12 q58 65 127 118 q33 27 58 33 q28 -3 28 -28 q0 -20 -70 -122 q155 4 221 17 q12 0 12 -10 q-5 -18 -15 -46 q-6 -30 -17 -44 q-14 -16 -80 -22 q-53 -8 -201 -13 q-38 -71 -49 -118 q0 -52 33 -52 q29 0 57 3 q26 54 63 104 q23 35 52 46 q23 0 26 -20 q-20 -66 -32 -118 q65 8 155 28 q9 -3 9 -13 q-10 -27 -23 -69 q-6 -13 -95 -37 q-31 -10 -68 -17 q-26 -151 -32 -311 q0 -37 -33 -37 l-98 -2 q-26 0 -29 33 q15 172 60 304 q-196 6 -196 114 q9 78 55 164 q-45 1 -60 8 q-20 7 -20 27 q4 29 39 71 q31 36 52 43 ZM515 227 q15 0 15 -19 q-22 -80 -73 -260 q-9 -7 -16 -7 q-59 12 -94 30 q-11 7 -11 25 q12 59 81 150 q63 78 98 81 ZM797 232 q39 -12 85 -68 q88 -116 91 -148 q0 -12 -8 -18 q-66 -45 -92 -51 q-16 0 -23 13 q-19 63 -33 114 l-43 136 q0 22 23 22 Z" /><glyph glyph-name="" unicode="&#x79f0;" d="M218 746 q13 -3 30 -20 q4 -11 29 -11 q138 3 189 22 q10 0 10 -8 q-4 -16 -12 -39 q-6 -25 -15 -37 q-7 -16 -38 -22 q-18 -6 -52 -9 q-6 -55 -9 -106 q70 7 113 20 q33 57 84 132 q81 107 133 135 q6 0 18 -4 q6 -6 6 -14 q0 -5 -43 -103 l-9 -20 q113 36 170 36 q121 0 121 -114 q0 -70 -19 -182 q0 -19 -26 -19 q-21 -3 -100 -3 q-16 0 -16 18 q27 81 55 188 q-3 18 -20 18 q-69 -13 -214 -55 q-12 -27 -71 -168 q-4 -15 -20 -15 q-39 6 -93 35 q-12 6 -12 21 q-20 -6 -64 -13 q-2 -28 -2 -39 l119 -85 q12 -9 12 -22 q-14 -31 -78 -80 q-12 -6 -24 -6 q-5 0 -31 33 l-6 7 q-5 -111 -7 -255 q0 -35 -30 -35 l-91 -2 q-24 0 -27 31 q3 105 12 198 l-37 -76 q-3 -8 -25 -8 q-64 34 -96 61 q-4 5 -4 19 q80 115 142 190 q16 21 48 61 q-107 0 -130 9 q-20 6 -20 26 q5 27 36 66 q29 32 49 40 q14 -3 33 -22 q6 -12 41 -12 q10 0 14 1 q9 45 28 108 q-91 0 -111 9 q-17 6 -17 23 q3 24 32 61 q27 29 45 36 ZM716 541 q14 -6 14 -51 q-6 -71 -12 -202 q-8 -177 -8 -361 q0 -15 -36 -15 l-85 0 q-19 3 -22 19 q16 392 89 543 q33 62 60 67 ZM784 296 q41 -14 85 -76 q87 -128 90 -163 q0 -13 -9 -19 q-69 -47 -98 -55 q-19 0 -25 14 q-12 47 -28 125 l-38 149 q0 25 23 25 ZM538 291 q16 0 16 -21 q-11 -58 -26 -145 l-26 -143 q-9 -7 -16 -7 q-61 12 -96 31 q-12 6 -12 25 q12 67 72 169 q58 88 88 91 Z" /><glyph glyph-name="" unicode="&#x57ce;" d="M390 519 q-40 9 -40 36 q9 43 73 82 q10 0 14 1 q7 -3 17 -15 q9 -8 47 -8 q28 0 42 1 q-21 77 -31 132 q-2 12 -2 35 q5 16 18 20 q30 0 48 -51 q29 -70 57 -131 l53 6 q94 8 182 28 q10 0 10 -12 q-16 -36 -26 -63 q-9 -24 -37 -27 q-58 -15 -140 -23 q28 -63 71 -145 q81 123 128 126 q15 0 15 -12 q0 -23 -12 -47 q-48 -130 -67 -188 q75 -140 167 -287 q0 -12 -14 -20 q-11 -11 -96 -55 q-14 0 -23 9 q-61 103 -95 171 q-28 -86 -42 -132 q-5 -19 -21 -19 l-91 40 q-22 6 -22 30 q5 16 18 53 l-61 -6 q-23 0 -23 20 q-20 145 -31 212 q-3 22 -21 22 q-34 -190 -57 -337 q0 -13 -19 -13 l-121 29 q-13 9 -13 28 l33 118 q-24 -12 -40 -17 q-54 -22 -153 -31 q-57 0 -57 25 q0 21 19 59 q31 40 47 44 q9 -4 25 -17 q6 -3 11 -3 q1 97 11 212 q-64 0 -83 7 q-17 6 -17 23 q3 25 31 59 q27 30 44 36 q13 -3 30 -19 q1 -6 7 -7 q15 80 45 143 q25 52 55 61 q14 0 19 -17 q-2 -31 -6 -128 q-3 -27 -3 -54 q52 6 76 21 q10 0 10 -8 l-12 -35 q-3 -21 -13 -33 q-6 -22 -32 -31 q-15 -7 -33 -10 q-1 -34 -1 -103 l2 -106 q22 3 41 9 q20 72 89 312 ZM570 520 q-37 -3 -77 -3 q-11 -67 -24 -136 q64 -3 95 -49 q37 -95 56 -203 q8 25 21 55 l30 62 q-57 130 -101 274 ZM672 797 q28 -6 58 -32 q62 -53 63 -67 q0 -10 -7 -15 q-54 -38 -77 -43 q-15 0 -19 11 l-16 58 l-22 68 q0 20 20 20 Z" /><glyph glyph-name="" unicode="&#x6210;" d="M396 380 q61 -3 88 -57 q26 -72 41 -281 q24 58 63 139 q31 55 41 71 q-66 140 -108 284 q-91 -7 -182 -8 l-41 -174 q52 25 98 26 ZM188 526 q-64 9 -64 47 q11 50 87 96 q11 0 17 2 q8 -4 20 -19 q12 -9 56 -9 q91 0 185 6 q-9 32 -15 63 q-3 27 -3 51 q8 24 27 30 q42 0 69 -77 q13 -32 27 -59 q54 4 81 7 q9 35 32 67 q36 47 71 47 q14 0 14 -18 l0 -82 l67 10 q12 0 12 -14 q-16 -34 -31 -74 q-11 -28 -43 -31 q-72 -14 -150 -22 q39 -82 78 -151 q78 97 127 100 q17 0 17 -16 q0 -24 -14 -55 q-26 -56 -64 -146 q83 -148 186 -304 q0 -13 -16 -23 q-11 -12 -109 -63 q-15 0 -28 10 q-70 109 -113 189 q-7 -19 -27 -69 q-18 -43 -28 -69 q-5 -20 -23 -20 l-103 45 q0 -11 2 -31 q0 -23 -19 -23 l-117 0 q-20 0 -20 21 l1 318 q0 20 -25 26 q-31 -2 -78 -40 q-33 -146 -66 -302 q-6 -36 -38 -36 l-118 21 q-22 3 -22 28 q74 242 179 569 l-21 0 Z" /><glyph glyph-name="" unicode="&#x7a0b;" d="M495 241 q13 -3 30 -20 q9 -10 48 -10 q13 0 19 1 q5 43 10 66 l-10 0 q-122 0 -146 9 q-16 6 -16 24 q4 26 33 62 q26 29 46 37 q13 -3 30 -20 q8 -11 49 -11 q224 3 306 25 q11 0 11 -10 q-4 -18 -12 -42 q-6 -28 -16 -39 q-13 -15 -72 -21 q-30 -6 -82 -9 q-2 -40 -2 -62 q106 11 152 33 q12 0 12 -10 l-14 -43 q-5 -29 -16 -40 q-12 -22 -70 -30 q-31 -7 -68 -10 q-2 -52 -2 -77 q149 9 223 28 q12 0 12 -10 q-6 -21 -15 -48 q-6 -29 -18 -46 q-18 -17 -104 -26 q-78 -10 -307 -16 q-130 0 -158 10 q-19 7 -19 27 q4 27 36 66 q30 33 50 41 q16 -3 33 -22 q12 -12 68 -12 l55 1 q2 29 8 75 l-2 0 q-118 0 -141 9 q-18 6 -18 23 q3 24 32 61 q27 29 45 36 ZM622 760 q14 -8 17 -23 q54 14 93 19 q82 0 122 -35 q68 -42 68 -248 q0 -31 -23 -31 l-92 -4 q-27 0 -27 21 q-50 -12 -109 -22 q-94 -15 -146 -15 q-75 2 -87 55 q-12 -21 -48 -30 q-19 -8 -49 -11 q-4 -51 -5 -73 l102 -101 q12 -7 12 -21 q-13 -32 -78 -80 q-12 -6 -23 -6 q-5 0 -23 35 q-7 -126 -8 -232 q0 -36 -32 -36 l-96 -2 q-25 0 -28 32 q5 112 15 212 l-39 -95 q-3 -8 -23 -8 q-62 33 -88 56 q-3 6 -3 16 q75 121 134 206 l58 85 l0 2 q-108 0 -135 10 q-19 6 -19 27 q5 28 37 66 q31 34 49 41 q15 -3 34 -22 q6 -12 37 -12 q16 0 23 1 q14 54 35 112 q-115 0 -138 9 q-18 6 -18 23 q3 24 32 61 q27 29 45 36 q15 -4 31 -20 q3 -10 30 -10 q148 3 197 21 q10 0 10 -8 q-4 -16 -12 -39 q-6 -25 -15 -37 q-6 -16 -40 -22 q-10 -3 -35 -7 l-13 -110 q64 8 95 22 q15 41 43 88 q39 62 101 98 q21 6 32 6 ZM778 640 q0 37 -51 37 q-59 -16 -128 -46 l-5 -10 q-22 -53 -26 -76 q0 -29 18 -29 q109 11 192 31 l0 93 Z" /><glyph glyph-name="" unicode="&#x6f84;" d="M561 773 q85 0 85 -78 l-1 -6 q5 -5 13 -9 q29 38 78 79 q61 41 74 41 q9 0 15 -6 l2 -11 q0 -8 -21 -52 q-4 -10 -23 -49 l-32 -68 l17 -12 q25 26 53 49 q52 32 63 32 q10 0 15 -7 l2 -10 q0 -5 -16 -42 l-34 -79 q38 -26 114 -74 q14 -9 14 -20 q0 -7 -21 -30 l-28 -39 q-21 -25 -30 -25 q-8 0 -14 2 q-15 9 -92 82 l-23 20 q-3 -21 -11 -29 q-6 -13 -31 -18 q-27 -9 -94 -12 q-99 0 -116 7 q-14 4 -14 19 q3 21 26 49 q24 26 37 30 q10 -1 25 -15 q3 -9 24 -9 q75 3 117 12 q-61 57 -122 120 q-33 -54 -93 -132 q-72 -99 -110 -140 q-10 -11 -21 -11 q-10 0 -30 15 q-32 26 -60 59 q-6 6 -6 12 q2 5 6 7 q77 77 107 109 l-41 56 q-9 7 -10 19 q6 16 23 16 q47 -2 90 -25 q52 58 56 72 q0 9 -9 9 q-39 -13 -115 -32 q-19 -6 -46 -6 q-20 0 -20 26 q3 21 14 45 q15 26 33 37 q9 0 14 -8 q7 -5 15 -8 q15 0 94 27 q28 7 58 11 ZM514 380 q28 0 28 -25 l-1 -5 q92 26 166 27 q139 -18 166 -123 q13 -65 13 -105 q0 -18 -22 -18 l-66 0 l-14 -86 q109 6 174 19 q12 0 12 -10 l-15 -46 q-6 -31 -17 -44 q-21 -16 -122 -24 q-96 -9 -362 -15 q-130 0 -154 9 q-20 7 -20 27 q4 26 35 65 q30 32 50 40 q14 -3 32 -21 q8 -8 42 -11 q-4 30 -8 90 q-55 15 -64 62 q0 56 43 114 q56 65 104 80 ZM529 121 q8 -49 19 -86 q55 0 103 3 q12 25 25 45 q24 40 46 66 l6 6 q-107 -28 -199 -34 ZM736 259 q-6 39 -82 45 q-63 -5 -132 -34 q-5 -28 -6 -47 q0 -21 15 -21 q92 6 206 38 l-1 19 ZM97 437 q107 0 214 -61 q15 -10 18 -24 q-9 -24 -58 -80 q-6 -9 -25 -9 q-95 56 -173 133 l-9 19 q0 22 33 22 ZM103 756 q57 -12 118 -62 q124 -106 127 -135 q0 -13 -10 -20 q-76 -53 -103 -58 q-19 0 -25 14 l-57 107 l-76 128 q0 26 26 26 ZM312 187 q17 -11 17 -21 l0 -9 q-3 -27 -162 -213 q-10 -10 -21 -10 q-15 3 -48 36 q-36 32 -49 54 q0 10 14 24 q48 43 184 125 l27 12 q16 5 38 2 Z" /><glyph glyph-name="" unicode="&#x627f;" d="M338 528 q38 0 47 -21 q15 14 27 19 q2 -1 4 -1 l82 132 q0 10 -19 10 q-71 -8 -228 -35 q-37 0 -37 32 q9 28 39 64 q28 33 49 37 q5 -3 13 -11 q8 -7 16 -8 q76 0 286 36 q81 0 81 -65 q-4 -34 -149 -206 l0 -6 q51 4 80 14 q-1 8 -1 23 q6 21 22 25 q35 0 59 -64 l13 -29 q52 39 127 87 l25 11 q14 5 34 2 q16 -10 16 -20 l0 -8 q-3 -22 -146 -188 q81 -163 192 -333 q0 -17 -16 -23 q-11 -12 -109 -63 q-15 0 -28 10 q-98 191 -148 377 l-4 -12 q-4 -22 -14 -35 q-8 -14 -49 -20 q-18 -4 -37 -5 l5 -82 q77 7 115 21 q11 0 11 -10 q-4 -18 -12 -42 q-6 -28 -16 -39 q-12 -15 -64 -21 q-9 -2 -27 -4 q5 -96 10 -153 q-3 -16 -19 -19 l-107 0 q-30 0 -30 22 q-6 98 -8 141 l-7 0 q-113 0 -136 9 q-15 6 -15 22 q3 24 30 57 q26 29 43 35 q13 -3 29 -18 q7 -10 44 -10 l8 0 q-3 44 -3 85 q-69 2 -83 7 q-16 4 -16 20 q3 22 29 53 q26 26 39 31 q10 -3 25 -18 q2 -3 4 -3 q-1 26 -1 78 q-28 0 -46 4 q-16 -36 -42 -90 q-68 -153 -188 -388 q-4 -6 -17 -6 q-37 19 -94 74 l0 10 q10 29 113 221 q78 148 82 157 q0 7 -4 7 q-60 -23 -80 -24 q-27 0 -35 5 q-12 5 -12 15 q2 24 24 57 q28 34 47 38 q8 -6 12 -8 l12 -12 q11 0 83 30 q45 19 70 22 ZM559 340 q71 6 102 17 q-16 60 -27 120 q-4 -23 -14 -36 q-6 -12 -35 -17 q-16 -4 -31 -4 l5 -80 Z" /><glyph glyph-name="" unicode="&#x75f4;" d="M888 755 q9 0 9 -11 l-25 -62 q-9 -23 -35 -26 q-83 -19 -207 -29 q-62 -8 -127 -11 l-8 -23 q-8 -21 -12 -34 l-11 -33 q47 3 185 21 q13 0 13 -13 q-3 -41 -27 -65 q-28 -9 -62 -15 l-40 -148 q54 9 82 26 q11 0 11 -8 q-6 -23 -13 -41 q-6 -28 -16 -39 q-6 -19 -39 -26 q-14 -5 -51 -8 l-13 -48 l134 -139 q10 -8 10 -19 q-12 -29 -68 -71 q-13 -5 -21 -5 q-6 0 -40 58 l-44 67 q-24 -87 -35 -134 q0 -12 -17 -12 l-108 25 q-11 8 -11 26 q43 125 88 247 q-59 2 -73 7 q-16 4 -16 22 q3 23 30 56 q27 29 42 34 q11 -3 28 -18 q3 -10 23 -10 l52 144 q-18 -3 -34 -3 q-11 -29 -24 -71 q-3 -12 -17 -12 q-30 5 -75 28 q-10 4 -10 20 q16 48 86 153 q26 36 48 58 q-54 -3 -109 -3 q-63 -395 -102 -692 q0 -13 -19 -13 l-116 27 q-12 9 -12 28 q18 93 42 201 l-30 -51 q-11 0 -19 3 q-32 17 -58 65 q0 14 2 18 q11 22 75 79 q36 30 63 42 l13 59 l-7 0 q-49 47 -90 116 l-8 16 q0 20 29 20 q52 0 101 -36 l26 117 q-56 7 -56 41 q9 43 75 83 q10 0 15 2 q6 -3 17 -17 q11 -7 49 -7 q89 0 161 4 q-6 17 -8 30 l-20 61 q0 22 21 22 q30 -5 64 -26 q65 -43 67 -54 q0 -12 -8 -18 l-12 -8 q10 0 15 1 q132 9 277 32 ZM818 514 q49 -3 71 -48 q40 -95 64 -428 q0 -20 -16 -20 l-100 0 q-17 0 -17 19 l0 4 q-57 -16 -113 -18 q-88 0 -97 68 q0 132 41 267 q52 151 97 184 q23 0 23 -21 q-3 -10 -3 -19 q27 12 50 12 ZM758 427 q-25 -186 -28 -298 q0 -22 13 -22 q34 3 68 13 q-15 150 -15 299 q0 14 -22 20 q-7 -2 -16 -12 Z" /><glyph glyph-name="" unicode="&#x6301;" d="M558 720 q11 -3 29 -19 q7 -10 43 -10 l14 0 q16 42 40 73 q26 33 56 38 q15 0 21 -16 q-2 -13 -7 -80 q-1 -4 -1 -10 q100 6 150 19 q10 0 10 -7 q-5 -20 -13 -40 q-4 -25 -14 -38 q-12 -16 -63 -22 q-27 -6 -76 -9 q-1 -17 -1 -51 l1 -48 q124 4 181 15 q11 0 11 -9 q-3 -18 -12 -42 q-6 -29 -16 -40 q-15 -13 -88 -18 q-70 -9 -261 -12 q-122 0 -146 9 q-17 6 -17 24 q4 27 34 62 q26 29 46 37 q13 -3 30 -20 q8 -11 58 -11 q32 0 48 1 q1 41 8 98 q-102 0 -124 8 q-17 6 -17 24 q3 24 32 58 q27 30 44 36 ZM472 333 q13 -3 32 -22 q11 -12 63 -12 q130 3 210 10 q11 25 20 40 q22 31 52 44 q21 0 24 -19 q-4 -39 -5 -55 q62 10 90 20 q12 0 12 -10 q-9 -33 -14 -46 q-6 -30 -17 -43 q-15 -19 -80 -28 q-10 -136 -11 -268 q0 -35 -32 -35 l-92 -2 q-26 0 -29 31 q11 151 42 262 q-53 -4 -176 -8 q-129 0 -155 9 q-19 6 -19 26 q4 28 35 66 q29 32 50 40 ZM501 172 q108 -26 153 -124 q0 -7 -5 -15 q-29 -24 -82 -45 q-17 0 -22 15 q-32 83 -65 152 q0 9 6 15 q8 2 15 2 ZM156 654 q15 -4 31 -20 q6 -11 37 -11 q12 0 18 1 q14 57 30 98 q42 78 76 84 q17 -8 17 -64 l-11 -112 q68 6 106 19 q10 0 10 -8 q-6 -21 -12 -37 q-4 -22 -14 -35 q-9 -22 -51 -29 q-18 -6 -48 -9 q-3 -27 -7 -83 q-4 -63 -5 -91 q32 12 73 29 q15 0 15 -13 q-4 -47 -32 -75 q-33 -28 -61 -44 q-7 -167 -7 -331 q0 -17 -39 -17 l-92 0 q-20 3 -23 21 q4 132 14 262 q-53 -16 -106 -23 q-45 0 -45 41 q8 21 29 60 q16 23 25 26 q13 -3 26 -9 q21 0 81 20 q13 132 29 218 q-105 0 -126 9 q-17 6 -17 24 q4 26 33 62 q28 30 46 37 Z" /><glyph glyph-name="" unicode="&#x5319;" d="M407 809 q49 -3 71 -47 q20 -71 32 -310 q0 -20 -16 -20 l-97 0 q-15 0 -15 13 q-54 -23 -108 -26 q-172 0 -172 99 q3 62 31 134 q25 66 68 123 q27 23 51 27 q23 -3 23 -19 q74 25 132 26 ZM261 503 q44 1 92 11 l32 7 q0 28 2 80 q-18 -8 -32 -11 q-42 -16 -120 -24 q-3 -15 -3 -25 q0 -38 29 -38 ZM248 644 q5 -1 15 -1 q40 0 88 12 q24 4 37 8 l1 51 q0 14 -22 20 q-37 -2 -105 -28 l-14 -62 ZM146 419 q15 -4 31 -20 q8 -11 49 -11 q229 6 305 33 q10 0 10 -8 q-4 -18 -12 -39 q-6 -27 -14 -37 q-14 -21 -73 -30 q-16 -3 -55 -7 l-3 -47 q101 10 133 18 q11 0 11 -12 q-1 -2 -8 -34 q-7 -31 -13 -37 q-12 -10 -63 -16 q-39 -9 -64 -11 q-3 -27 -3 -52 l541 -72 q21 -7 21 -26 q-2 -24 -40 -102 q-3 -10 -17 -10 q-71 13 -698 134 l-24 -86 q-4 -18 -21 -18 l-88 39 q-22 6 -22 29 q8 24 45 94 q33 52 61 90 q61 77 96 79 q15 0 15 -12 q0 -23 -12 -47 l-22 -71 l40 -5 q14 91 32 167 q-36 -2 -55 -2 q-122 0 -142 8 q-18 6 -18 24 q3 24 33 60 q27 30 44 37 ZM755 777 q15 -3 15 -17 q-25 -131 -38 -228 q140 28 176 44 q15 0 15 -13 l-11 -40 q-9 -37 -15 -43 q-11 -17 -82 -34 q-55 -16 -96 -23 q-10 -110 -10 -181 q0 -31 27 -31 q40 0 66 5 q34 0 58 8 q18 4 25 11 q18 23 22 25 q6 0 18 -5 q10 -10 10 -22 q0 -51 -47 -72 q-24 -28 -206 -28 q-118 0 -118 109 q6 182 77 386 q66 143 114 149 Z" /><glyph glyph-name="" unicode="&#x6101;" d="M162 622 q13 -3 30 -20 q6 -11 41 -11 q21 0 31 1 q17 48 29 74 q-32 -6 -73 -9 q-53 0 -53 23 q0 19 18 55 q28 37 43 41 q7 -4 23 -16 q11 -5 33 -5 q43 0 101 13 q56 11 97 28 q10 0 10 -8 q0 -42 -26 -62 q-35 -23 -76 -36 q-6 -3 -10 -3 q-6 -34 -13 -89 q86 6 125 21 q10 0 10 -8 q-4 -14 -12 -37 q-5 -25 -13 -35 q-12 -22 -59 -29 q-24 -6 -62 -9 q-1 -4 -1 -9 l153 -91 q11 -8 11 -20 q-13 -28 -69 -70 q-10 -5 -21 -5 q-7 0 -43 33 q-25 18 -41 33 q-5 -73 -5 -133 q0 -31 -28 -31 l-83 -2 q-22 0 -25 28 q3 70 12 131 q-43 -56 -57 -73 q-3 -7 -21 -7 q-55 28 -82 53 q-3 5 -3 15 q75 74 135 123 l19 17 q-86 0 -104 9 q-18 6 -18 23 q3 24 32 61 q27 29 45 36 ZM806 788 q26 -3 26 -32 q-52 -122 -61 -146 l140 59 q18 5 32 2 q14 -9 14 -19 l0 -8 q-3 -19 -173 -157 q-5 -8 -16 -8 q-13 2 -38 28 l-26 -65 l208 -127 q12 -9 12 -21 q-15 -33 -76 -79 q-10 -5 -24 -5 q-11 0 -62 48 q-44 35 -98 82 q-12 -30 -18 -49 q-24 -70 -27 -72 q-7 -7 -24 -7 q-45 4 -92 23 q-17 0 -20 17 q5 29 25 80 q18 45 53 118 l29 57 q-10 -6 -17 -6 q-15 0 -21 11 l-52 174 q0 22 21 22 q36 -9 72 -44 q40 -42 53 -58 q69 114 125 158 q16 19 35 24 ZM259 191 q15 0 15 -15 q0 -22 -11 -49 q-45 -83 -87 -176 q-4 -18 -22 -18 l-88 39 q-21 6 -21 29 q10 19 48 68 q27 30 64 65 q66 56 102 57 ZM412 191 q27 0 27 -19 q0 -15 -16 -76 q-10 -32 -14 -60 q0 -33 19 -34 q234 0 301 4 q32 3 54 35 q10 13 25 13 q30 -12 30 -54 q0 -71 -121 -77 q-60 -4 -311 -4 q-146 3 -146 96 q2 42 46 100 q49 50 106 76 ZM722 207 q125 -3 244 -104 q9 -9 9 -18 q0 -6 -28 -45 q-31 -40 -40 -40 q-16 0 -25 6 q-128 115 -176 161 q-11 8 -12 22 q6 18 28 18 ZM500 193 q88 -3 168 -67 q9 -9 9 -17 q0 -5 -25 -41 q-30 -36 -37 -36 q-14 0 -22 6 l-108 119 q-7 7 -9 20 q5 16 24 16 Z" /><glyph glyph-name="" unicode="&#x521d;" d="M747 699 q112 0 142 -74 q36 -195 69 -668 q0 -24 -25 -30 l-123 0 q-20 0 -26 30 q0 453 -11 588 q0 61 -37 61 l-16 -3 q-113 -415 -175 -671 q0 -13 -21 -13 l-124 29 q-13 9 -13 29 q55 166 203 600 q-52 -14 -80 -20 q-34 0 -35 20 q0 33 28 71 q25 34 49 40 q12 -8 20 -16 q9 -5 20 -6 l59 16 q25 6 96 17 ZM185 251 q-40 -43 -50 -47 q-8 0 -13 4 q-56 38 -82 78 l0 16 q49 43 149 137 q113 104 138 140 q0 7 -7 7 q-173 -58 -219 -58 q-28 0 -28 23 q7 22 19 44 q21 36 38 43 q6 -4 13 -6 l12 -6 q17 0 66 12 q-3 2 -3 5 l-43 122 q0 21 20 21 q34 -6 65 -29 q66 -48 69 -61 q0 -11 -8 -17 q-33 -22 -45 -29 l25 6 q78 20 113 20 q53 -6 53 -44 q-4 -30 -84 -132 q-29 -48 -85 -118 q-1 -11 -1 -32 q35 24 70 46 l23 9 q12 5 28 2 q13 -10 13 -17 l0 -7 q-3 -19 -86 -122 q69 -34 95 -54 q5 -7 5 -15 q0 -9 -30 -36 q-29 -34 -41 -37 q-10 0 -15 4 q-45 36 -65 51 l-3 -242 q0 -22 -17 -22 l-108 0 q-17 0 -17 22 q15 152 36 319 Z" /><glyph glyph-name="" unicode="&#x51fa;" d="M287 691 q29 0 29 -25 q-49 -134 -55 -216 q0 -27 16 -27 q87 5 168 16 q27 195 74 303 q34 64 62 69 q15 -6 15 -53 q-10 -99 -21 -273 q-1 -9 -1 -25 q96 18 165 35 q6 169 75 202 q22 0 26 -27 q15 -145 55 -313 q0 -12 -6 -18 q-88 -9 -121 -9 q-17 0 -20 31 q-4 18 -5 37 q-88 -24 -173 -39 q-8 -176 -8 -306 q99 11 225 32 q5 187 79 223 q22 0 26 -27 q14 -143 58 -327 q0 -13 -6 -19 q-96 -11 -127 -11 q-17 0 -20 33 l-6 36 q-309 -57 -611 -63 q-112 0 -124 77 q0 83 50 165 q65 92 122 113 q30 0 30 -27 q-42 -126 -48 -209 q0 -24 18 -24 q89 3 181 12 q7 162 23 301 q-102 -12 -201 -15 q-110 0 -122 82 q0 84 53 169 q67 96 125 117 Z" /><glyph glyph-name="" unicode="&#x96cf;" d="M287 774 q13 0 19 -8 q3 -9 3 -13 q0 -7 -16 -39 q50 4 61 4 q103 0 103 -87 q0 -21 -64 -192 q12 -10 17 -18 q15 37 52 98 q40 68 98 139 q103 124 188 142 q21 0 21 -11 q-3 -13 -22 -46 q23 -13 44 -34 q54 -58 66 -81 q47 7 65 14 q12 0 12 -10 q-5 -22 -13 -42 q-6 -28 -16 -39 q-9 -15 -47 -21 l-7 -2 q-3 -53 -6 -92 l73 11 q11 0 11 -13 q-18 -37 -29 -66 q-9 -26 -39 -29 q-14 -2 -19 -2 q0 -61 1 -89 q43 7 77 16 q10 0 10 -11 l-27 -64 q-7 -23 -36 -26 l-22 -6 q0 -56 3 -107 q54 10 94 23 q12 0 12 -13 q-16 -35 -29 -70 q-10 -25 -41 -30 q-45 -12 -106 -20 q-51 -7 -139 -10 l0 -4 q0 -21 -25 -21 l-102 0 q-24 0 -24 23 q1 202 26 426 q-9 -10 -14 -10 q-12 0 -26 11 q-31 18 -48 29 q0 -6 2 -12 q0 -121 -37 -365 q0 -41 -99 -52 q-123 -21 -200 -28 q-54 0 -54 36 q4 24 33 64 q33 35 45 35 q8 0 25 -11 q20 -17 37 -17 l41 5 q23 0 32 21 l21 100 q-16 -6 -36 -12 q-51 -17 -139 -17 q-60 8 -60 42 q9 45 80 89 q11 0 16 2 q8 -3 18 -16 q12 -9 51 -9 q41 0 81 13 q3 0 9 2 l21 101 q0 24 -32 24 q-45 -11 -90 -20 q-52 -24 -102 -27 q-35 0 -35 31 q6 23 27 52 q27 33 39 33 q5 0 21 -4 q12 -8 25 -8 q24 6 60 21 l9 3 q95 149 95 160 q0 18 -31 18 q-22 -4 -54 -13 l-80 -148 q-4 -11 -15 -11 q-12 2 -57 33 q-35 24 -43 35 q-5 3 -5 11 q45 81 139 166 q84 63 103 63 ZM734 618 q-4 14 -5 20 q-10 32 -14 50 l-41 -66 q8 -5 27 -5 l33 1 ZM639 517 q-2 -22 -4 -71 q7 -7 11 -12 q9 -8 47 -8 q31 0 47 1 q4 60 8 90 l-28 -1 q-60 0 -81 1 ZM732 330 q-30 -2 -101 -2 l0 -7 q0 -51 1 -75 l5 -6 q8 -8 47 -8 q28 0 42 1 l6 97 ZM721 138 q-54 -4 -88 -4 q0 -33 2 -95 q13 -5 43 -5 q27 0 41 1 q0 35 2 103 Z" /><glyph glyph-name="" unicode="&#x9664;" d="M356 778 q69 -12 69 -67 q-3 -43 -95 -272 q59 -74 81 -130 q24 24 56 44 q11 0 15 1 q6 -3 20 -17 q12 -9 55 -9 q27 0 41 1 q2 29 10 87 q-18 -1 -57 -1 q-33 3 -43 16 l-22 -33 q-5 -8 -25 -8 q-19 3 -51 24 q-37 24 -50 34 q-6 6 -9 16 q6 26 48 80 q51 59 126 132 q95 83 165 120 q16 4 20 4 q19 0 19 -21 q-6 -17 -24 -46 q120 -99 255 -193 q16 -11 16 -23 q0 -8 -23 -34 q-14 -22 -33 -43 q-21 -28 -32 -28 q-10 0 -16 2 q-10 8 -51 49 q-9 -19 -34 -22 q-27 -9 -66 -15 q-5 -49 -6 -89 q6 0 20 2 q92 9 177 31 q11 0 11 -13 q-20 -44 -29 -68 q-9 -27 -40 -30 q-57 -18 -139 -29 l-4 0 l0 -13 q115 -85 246 -169 q16 -11 16 -23 q0 -8 -23 -34 q-14 -22 -33 -43 q-22 -28 -32 -28 q-4 0 -16 2 q-9 6 -72 66 q-44 40 -77 73 q4 -67 15 -130 q0 -23 -25 -23 l-109 0 q-26 0 -26 25 q0 66 3 132 l-108 -140 q-9 -12 -20 -12 q-55 35 -103 92 q0 13 10 22 q91 100 202 189 q-36 -2 -114 -2 q-28 3 -39 10 q-24 -38 -81 -44 q-24 0 -124 -4 q4 -119 17 -245 q0 -21 -25 -21 l-102 0 q-24 0 -24 23 q1 328 33 685 q-8 -2 -18 -2 q-18 0 -23 5 q-7 6 -7 22 q4 20 18 46 q22 35 36 43 q5 0 12 -5 q8 -4 19 -4 q19 4 81 29 q64 26 138 26 ZM617 601 l-43 -69 q6 0 8 1 q8 -3 17 -15 q8 -8 46 -8 q47 0 98 9 q6 0 18 4 q-51 49 -115 121 l-29 -43 ZM208 656 q-10 -159 -11 -271 q0 -77 1 -115 q59 -4 77 -4 q19 0 19 22 q-23 90 -88 180 q95 168 106 199 q0 13 -13 16 q-19 0 -91 -27 Z" /><glyph glyph-name="" unicode="&#x7840;" d="M160 667 q11 -3 28 -18 q4 -10 33 -10 q156 3 213 22 q9 0 9 -8 l-11 -35 q-3 -23 -13 -33 q-9 -16 -47 -22 q-28 -8 -81 -11 l-85 -226 q27 36 49 48 q19 0 22 -15 q21 9 40 9 q47 -3 68 -45 q21 -47 36 -172 q3 8 11 24 q56 101 103 121 q27 0 27 -24 q-30 -140 -33 -229 q0 -25 16 -25 q15 1 52 5 q6 173 21 308 q-42 -7 -82 -9 q-101 0 -113 80 q0 91 46 184 q57 103 107 126 q28 0 28 -24 q-37 -150 -41 -243 q0 -25 16 -25 q34 4 50 8 q27 199 72 305 q36 69 67 74 q15 -6 15 -56 q-14 -119 -25 -271 l-1 -13 q45 18 61 26 q10 55 23 98 q36 117 72 117 q14 0 14 -18 q-1 -165 -3 -342 q0 -15 -14 -15 l-98 0 q-9 0 -9 19 q0 25 2 37 l-53 -22 q-10 -190 -10 -316 q53 13 75 20 q7 54 23 119 q33 115 66 115 q15 0 15 -18 q3 -163 18 -339 q0 -18 -15 -18 l-108 0 q-10 0 -10 22 q0 16 1 23 q-153 -46 -305 -52 q-102 0 -113 78 l0 13 l-67 0 q-15 0 -15 18 l0 6 q-43 -18 -84 -21 q-88 0 -97 62 q0 47 10 90 l-3 0 q-40 6 -89 38 q-7 3 -7 12 q38 117 138 331 q-56 2 -70 7 q-15 6 -15 22 q3 22 29 54 q27 28 41 34 ZM303 108 q-5 71 -5 168 q0 14 -21 20 q-5 0 -10 -6 q-18 -105 -21 -178 q0 -20 13 -20 q17 2 44 16 Z" /><glyph glyph-name="" unicode="&#x50a8;" d="M332 765 q16 0 16 -13 q0 -22 -13 -48 q-20 -36 -59 -114 q-6 -67 -16 -229 q-11 -213 -11 -420 q0 -16 -36 -16 l-85 0 q-19 3 -22 20 q9 231 34 386 l-3 0 l-85 38 q-21 5 -21 27 q19 47 68 133 q40 61 89 126 q91 107 144 110 ZM611 694 q11 -3 29 -18 q5 -10 26 -10 q15 49 43 87 q22 31 52 37 q13 0 19 -17 q-2 -12 -7 -76 q-2 -18 -2 -26 q79 6 115 20 q10 0 10 -8 q-4 -16 -12 -39 l-2 -8 q32 29 41 34 q22 0 31 -7 q7 -9 7 -24 q-10 -30 -101 -140 q65 5 98 12 q12 0 12 -9 q-5 -22 -13 -42 q-6 -28 -16 -39 q-12 -15 -67 -19 q-26 -5 -98 -8 l-44 -57 l1 -5 q-2 -14 -2 -18 q53 26 97 27 q53 -3 76 -50 q37 -81 59 -353 q0 -21 -18 -21 l-105 0 q-18 0 -18 17 q-67 -18 -134 -21 q-91 0 -102 70 q0 102 33 208 l-24 -30 q-13 -10 -28 -10 q-15 0 -47 23 q-37 31 -40 40 q0 11 7 18 q54 67 145 158 q-85 2 -105 9 l-7 4 q-9 -43 -46 -169 q-28 -123 -29 -154 q0 -25 21 -28 q38 0 41 3 q6 1 14 5 q13 0 17 -12 q6 -9 6 -27 q0 -56 -106 -62 q-59 0 -92 30 q-31 24 -34 91 q0 67 100 326 q0 10 -10 10 q-27 -17 -79 -31 q-38 0 -38 25 q0 27 33 78 q28 28 31 28 q5 0 21 -11 q6 -9 17 -9 q8 3 32 19 q92 0 105 -60 q7 13 20 30 q26 29 46 37 q13 -3 30 -19 q6 -9 25 -10 q0 34 5 81 q-75 0 -94 8 q-17 6 -17 22 q3 25 30 56 q29 29 42 34 ZM816 16 q-2 24 -4 72 q-25 -8 -45 -10 q-12 -4 -36 -8 q-9 -3 -17 -3 q-1 -16 -1 -45 q0 -22 14 -22 q43 3 89 16 ZM719 154 q52 5 87 13 l3 0 q-1 24 -1 71 q0 17 -24 21 q-22 -2 -60 -31 q-4 -53 -5 -74 ZM766 524 l67 65 l-10 -2 q-16 -5 -57 -8 l0 -55 ZM386 719 q34 -6 68 -32 q70 -57 73 -71 q0 -10 -7 -17 q-58 -40 -84 -47 q-16 0 -20 11 q-12 30 -21 62 q-13 31 -30 74 q0 20 21 20 Z" /><glyph glyph-name="" unicode="&#x89e6;" d="M299 772 q18 0 18 -22 q-5 -19 -25 -51 q-3 -3 -3 -6 q47 7 66 7 q86 0 86 -76 q0 -14 -39 -103 l8 0 q65 -12 69 -95 l13 -414 q22 32 70 62 q10 0 16 2 q7 -4 20 -18 q9 -9 42 -9 l6 127 q-24 -3 -47 -3 q-95 0 -105 67 q0 101 43 206 q54 116 101 142 q25 0 25 -22 l0 -2 l28 7 q16 79 38 137 q24 46 43 49 q11 -3 11 -38 q-2 -42 -4 -140 q118 -20 143 -112 q21 -150 21 -263 q0 -16 -19 -16 l-93 0 q-19 0 -19 19 q-26 -8 -38 -10 q-1 -48 -1 -137 q19 2 50 10 l-18 77 q0 21 20 21 q31 -10 69 -59 q69 -99 72 -126 q0 -11 -8 -17 q-59 -40 -84 -46 q-15 0 -20 10 l-12 58 l-5 -1 q-38 -17 -101 -31 q-75 -18 -195 -18 q-34 6 -47 16 l1 -26 q-3 -24 -18 -24 q-54 -4 -90 -4 q-22 0 -27 22 q8 139 11 203 q-19 -9 -41 -15 q0 -90 1 -134 q0 -17 -19 -17 l-84 0 q-20 0 -20 19 q0 54 3 108 l-36 -7 q-2 -57 -2 -160 q0 -14 -32 -14 l-77 0 q-16 3 -19 17 q15 378 75 525 q5 11 13 23 q-15 4 -36 17 l-40 28 q-4 3 -8 14 q3 18 33 57 q31 39 85 95 q60 58 111 86 q15 5 21 5 ZM811 287 q-3 134 -12 183 q-3 17 -21 28 q-1 -12 -1 -34 q-2 -130 -2 -187 q24 6 36 10 ZM650 491 q-23 -131 -26 -216 q0 -20 15 -20 q8 0 12 1 q11 148 28 247 l-29 -12 ZM177 162 q19 2 38 7 q4 49 7 76 q-9 -2 -23 -4 l-19 -3 q-3 -40 -3 -76 ZM329 192 l46 11 q2 52 2 78 q-16 -7 -41 -13 q-3 -1 -7 -1 l0 -75 ZM230 329 q5 49 12 95 l-52 -15 q-3 -35 -6 -88 l46 8 ZM339 445 q-3 -31 -7 -95 l48 11 l3 74 q-3 10 -22 13 l-22 -3 ZM250 504 q80 106 80 114 q0 15 -27 15 q-22 -3 -60 -16 l-61 -105 q7 -7 10 -22 l58 14 Z" /><glyph glyph-name="" unicode="&#x5904;" d="M319 803 q18 0 18 -15 q0 -25 -14 -55 q-15 -33 -30 -69 q45 15 84 27 q29 8 39 8 q15 0 39 -2 q65 -21 68 -76 q0 -29 -64 -218 l-35 -101 q81 -47 137 -76 q13 367 74 509 q36 70 66 74 q16 -6 16 -56 q0 -72 3 -195 l0 -16 q112 -64 217 -105 q14 -9 14 -25 q-4 -17 -25 -26 q-20 -8 -56 -8 q-48 3 -108 21 q-18 5 -41 15 l1 -203 q0 -19 -41 -19 l-57 0 q150 -84 321 -169 q15 -9 15 -21 q0 -5 -22 -33 q-20 -28 -31 -40 q-19 -27 -30 -27 l-15 2 q-25 11 -223 133 q-84 49 -253 157 q-46 -123 -105 -276 q-10 -13 -25 -13 q-61 22 -101 53 q-6 12 -6 25 q41 94 121 286 q-63 40 -108 70 q-2 -4 -10 -26 q-4 -17 -20 -17 l-85 38 q-21 5 -21 27 q14 45 66 159 q38 72 88 152 q89 128 139 131 ZM198 431 q45 -28 111 -64 q60 150 88 224 q0 14 -14 14 q-28 -6 -143 -68 l-42 -106 Z" /><glyph glyph-name="" unicode="&#x7a7f;" d="M644 349 q-15 -2 -43 -4 q-147 -17 -405 -17 q-54 8 -54 39 q9 43 73 82 q10 0 14 1 q5 -3 17 -16 q9 -8 47 -8 q144 0 286 13 q128 8 281 31 q9 0 9 -11 q-9 -20 -25 -60 q-9 -21 -34 -24 q-27 -7 -78 -14 q-2 -32 -4 -101 q63 7 163 25 q8 -5 8 -21 q0 -47 -44 -56 q-53 -22 -130 -38 q-3 -138 -3 -248 q0 -17 -39 -17 l-92 0 q-21 3 -24 21 q7 125 17 198 q-94 -48 -164 -87 q-201 -117 -226 -133 l-24 -17 q-10 0 -21 6 q-26 12 -76 69 q-5 5 -7 14 q0 7 11 17 q41 24 151 75 l133 57 q-29 -2 -83 -2 q-153 0 -153 91 q9 49 94 90 q21 12 45 15 q24 0 24 -26 q-1 -6 -10 -36 q0 -28 32 -28 q138 0 296 17 q15 60 34 97 q2 4 4 6 ZM253 739 q16 0 16 -22 q-8 -24 -11 -36 q112 26 198 41 q-3 6 -3 10 q-12 33 -24 72 q0 22 21 22 q30 -6 68 -31 q48 -38 63 -56 q93 10 164 11 q155 -21 186 -139 q19 -68 19 -112 q0 -19 -22 -19 l-112 0 q-23 0 -23 26 q0 82 -9 107 q-7 45 -100 52 q-206 -9 -460 -89 l-42 -126 q-7 -7 -17 -7 q-64 13 -99 32 q-11 6 -11 26 q14 61 90 155 q71 80 108 83 ZM556 621 q46 -5 94 -21 q57 -18 99 -42 q9 -6 9 -11 q-68 -92 -79 -92 q-12 0 -16 5 q-23 19 -65 66 q-39 36 -58 60 q-10 9 -10 25 q7 10 26 10 ZM418 593 q22 10 39 10 q12 0 12 -12 q0 -9 -27 -42 l-72 -99 q-9 -16 -29 -16 q-47 13 -94 39 q-6 6 -6 20 q27 27 92 64 q53 26 85 36 Z" /><glyph glyph-name="" unicode="&#x4f20;" d="M402 795 q21 0 24 -12 q0 -26 -103 -181 q-9 -127 -13 -230 q-10 -236 -10 -448 q0 -17 -38 -17 l-90 0 q-20 3 -23 20 q12 295 46 476 q-7 -8 -9 -13 q-35 -59 -44 -64 q-15 0 -23 4 q-41 23 -73 83 q0 17 2 22 q32 73 185 229 q101 98 169 131 ZM935 495 q15 0 15 -13 q-13 -32 -32 -71 q-10 -25 -42 -30 q-51 -33 -225 -42 l-35 0 q-4 -23 -4 -38 q0 -22 18 -22 q95 9 180 24 q36 0 36 -64 q-11 -130 -11 -204 l50 -26 q15 -9 18 -22 q-9 -25 -56 -79 q-7 -9 -25 -9 q-159 69 -291 162 l-9 18 q0 22 32 22 q81 0 159 -21 q9 72 16 114 q0 11 -10 11 q-95 -13 -157 -13 q-93 7 -94 79 q0 38 5 69 l-48 1 q-65 3 -80 15 q-25 12 -25 44 q9 26 27 44 q18 21 46 38 q11 0 17 2 q10 -5 21 -19 q12 -9 57 -9 l7 0 q15 59 20 76 q-23 -1 -72 -1 q-66 9 -66 48 q12 50 90 98 q11 0 16 2 q9 -4 21 -18 q13 -10 59 -10 q76 151 121 151 q25 0 25 -19 q-23 -96 -29 -124 q34 4 50 8 q80 9 167 38 q12 0 12 -13 q-15 -34 -30 -72 q-11 -28 -42 -31 q-55 -23 -134 -37 q-16 -4 -48 -8 q-8 -36 -19 -92 l33 0 q131 6 205 36 q40 4 61 7 Z" /><glyph glyph-name="" unicode="&#x8239;" d="M367 809 q15 -4 19 -16 q0 -19 -9 -72 q-2 -16 -2 -23 l16 1 q74 -12 80 -106 l21 -656 q-4 -27 -21 -27 q-60 -4 -100 -4 q-23 0 -29 25 l6 162 q-22 -14 -53 -27 q-17 0 -20 13 q-15 80 -30 141 q0 7 4 12 q5 3 12 3 q57 -18 89 -73 q2 78 4 117 l-20 -5 l-96 -16 q-10 -140 -13 -311 q0 -36 -33 -36 l-95 -2 q-26 0 -29 32 q8 165 28 296 q-24 -3 -34 -3 q-31 0 -31 27 q1 23 18 53 q5 8 17 24 q13 12 26 15 q1 -2 6 -2 l11 -4 l5 0 q34 175 86 294 q28 36 55 47 q6 0 12 -2 q13 56 64 107 q17 11 36 16 ZM246 366 q63 9 111 18 l1 42 q-18 -4 -57 -9 q-12 0 -12 9 q0 31 -5 119 q0 22 17 22 q9 -2 30 -37 q10 -18 26 -56 l2 -5 q2 66 3 129 q-3 12 -23 15 q-26 -6 -71 -37 q-12 -92 -22 -210 ZM769 334 q111 0 138 -103 q35 -119 41 -290 q-3 -18 -19 -18 l-115 0 q-15 0 -15 14 l0 13 q-89 -26 -170 -29 q-110 0 -122 82 q0 99 46 201 q59 116 109 139 q29 0 29 -25 q-2 -8 -2 -13 q56 25 80 29 ZM676 224 q-15 -102 -18 -176 q0 -27 17 -27 q56 4 122 27 q-4 123 -14 166 q-8 29 -53 29 q-6 0 -54 -19 ZM701 765 q21 0 21 -13 l-3 -14 q80 37 137 37 q52 -9 61 -70 q0 -8 -8 -74 l-19 -176 q0 -8 7 -8 q20 2 61 25 q12 0 12 -11 q0 -59 -35 -77 q-10 -13 -120 -13 q-53 8 -54 52 q24 133 51 247 q0 7 -8 13 q-42 0 -115 -61 l-59 -262 q-4 -17 -19 -17 q-50 12 -91 30 q-26 6 -28 25 q8 29 32 87 q25 55 69 140 q65 116 108 140 Z" /><glyph glyph-name="" unicode="&#x4e32;" d="M327 722 q27 0 27 -23 l-2 -4 l133 16 l9 28 q39 75 70 79 q17 -6 17 -61 l-3 -37 q66 6 128 10 q110 0 139 -107 q31 -75 37 -176 q-3 -19 -21 -19 l-121 0 q-16 0 -16 15 l0 13 q-82 -9 -162 -15 q-2 -40 -2 -55 q116 9 184 12 q118 0 150 -113 q30 -78 36 -194 q-3 -19 -22 -19 l-127 0 q-17 0 -17 16 l0 22 q-106 -16 -210 -27 q-1 -56 -1 -161 q0 -18 -39 -18 l-92 0 q-21 3 -24 21 l6 145 q-109 -9 -216 -9 q-107 0 -119 82 q0 75 50 153 q65 86 118 105 q29 0 29 -24 l-7 -18 l167 16 l7 58 q-88 -5 -157 -5 q-101 0 -113 74 q0 63 49 130 q62 75 115 90 ZM721 543 q-3 50 -6 69 q-9 28 -56 28 q-14 0 -86 -5 l-6 -105 q86 5 154 13 ZM445 523 q11 67 19 103 q-61 -6 -143 -12 q-14 -44 -17 -73 q0 -23 15 -23 q53 0 126 5 ZM757 270 q-9 30 -59 30 q-32 0 -140 -6 q-2 -76 -2 -110 q120 11 206 23 l-5 63 ZM409 171 q2 45 8 114 l-185 -13 q-10 -42 -14 -84 q0 -26 15 -26 q85 2 176 9 Z" /><glyph glyph-name="" unicode="&#x521b;" d="M394 798 q10 0 10 -9 q0 -14 -8 -33 l-37 -49 q118 -76 251 -150 q15 -9 15 -22 q0 -8 -22 -33 q-12 -19 -32 -41 q-21 -28 -31 -28 q-9 0 -15 2 q-5 2 -74 59 q-58 45 -152 128 q-53 -75 -126 -187 q-4 -18 -22 -18 l-90 40 q-22 6 -22 29 q20 36 79 112 q49 53 107 108 q109 92 169 92 ZM175 303 q-17 -5 -29 -5 q-25 0 -31 12 q0 25 22 65 q28 38 49 47 l13 -7 q3 -7 16 -7 q8 0 59 9 q62 8 112 9 q134 0 134 -84 q-15 -193 -20 -206 q-16 -28 -72 -28 q-116 11 -180 20 q-7 -47 -7 -73 q3 -50 48 -50 q161 0 180 9 q32 9 58 30 q15 12 34 15 q23 -6 23 -37 q0 -97 -180 -111 q-51 4 -139 4 q-177 3 -177 120 q0 73 87 268 ZM261 200 q39 -3 85 -3 q16 0 33 13 q13 10 37 128 q0 15 -10 15 q-25 0 -111 -19 q-21 -68 -34 -134 ZM729 613 q20 0 23 -18 q-26 -202 -31 -463 q0 -31 -29 -31 l-83 -2 q-21 0 -24 29 q18 287 100 446 q21 29 44 39 ZM937 808 q15 -6 15 -56 q-12 -107 -24 -298 q-16 -285 -16 -532 q0 -17 -39 -17 l-92 0 q-20 3 -23 21 q21 584 112 808 q36 69 67 74 Z" /><glyph glyph-name="" unicode="&#x6625;" d="M906 498 q14 0 14 -12 l-30 -65 q-9 -25 -38 -29 q-19 -6 -56 -13 l98 -62 q28 -18 61 -38 q6 -6 6 -14 q-12 -24 -45 -54 q-21 -22 -45 -39 q-8 -8 -17 -8 q-7 1 -14 8 q-20 15 -60 58 q-44 44 -65 67 q-32 30 -65 65 q-111 -11 -269 -15 l-59 0 q-52 -91 -128 -236 q-3 -16 -17 -16 q-69 26 -127 59 q-6 6 -6 18 q57 95 112 177 q-47 5 -58 13 q-23 10 -23 41 q9 23 25 41 q15 19 43 35 q10 0 15 1 q6 -3 20 -17 q11 -9 47 -9 l29 43 q-52 0 -66 7 q-15 3 -15 19 q3 21 27 51 q25 25 38 30 q11 -3 26 -15 q9 -9 48 -9 l37 50 l-80 1 q-58 3 -71 13 q-21 9 -21 38 q9 24 23 38 q17 21 40 34 q10 0 15 2 q9 -3 18 -17 q11 -8 50 -8 q56 -3 103 -3 q14 14 21 22 q74 68 115 68 q22 0 22 -16 q0 -8 -37 -73 q142 6 226 24 l54 6 q13 0 13 -11 l-28 -62 q-9 -22 -37 -26 q-69 -23 -286 -29 l-30 -50 q249 6 345 27 q9 0 9 -8 q-3 -14 -11 -37 q-4 -22 -14 -35 q-21 -15 -121 -21 q-78 -6 -257 -9 l-15 -25 q-9 -14 -13 -22 l15 0 q294 6 453 40 q39 4 56 7 ZM599 330 q91 -4 124 -90 q19 -18 45 -283 q0 -24 -22 -24 l-109 0 q-32 3 -32 28 l0 3 q-102 -45 -200 -51 q-173 0 -173 109 q6 74 41 148 q35 69 93 135 q29 24 55 31 q27 -3 27 -24 q86 18 151 18 ZM406 -2 q74 3 152 26 q29 7 47 14 q0 52 1 73 q-21 -9 -42 -15 q-63 -26 -185 -38 q-3 -12 -3 -22 q0 -38 30 -38 ZM423 219 q-15 -42 -19 -56 q6 -2 19 -2 q59 1 131 21 q19 4 55 16 q0 7 2 15 q0 47 -52 47 q-48 -10 -136 -41 Z" /><glyph glyph-name="" unicode="&#x8bcd;" d="M523 369 q23 0 27 -15 q43 14 84 16 q51 -3 73 -50 q37 -63 60 -277 q0 -21 -18 -21 l-103 0 q-16 0 -16 19 q-3 12 -3 22 q-74 -40 -141 -43 q-101 0 -113 73 q0 79 45 163 q56 92 105 113 ZM618 146 q-6 63 -6 124 q0 15 -22 21 q-20 -1 -55 -18 q-18 -82 -21 -141 q0 -22 15 -22 q41 6 89 36 ZM846 739 q95 -9 95 -108 q-3 -447 -6 -693 q0 -31 -30 -31 l-100 0 q-31 0 -31 26 q0 158 54 692 q0 23 -28 28 q-106 -22 -204 -37 q-110 -22 -165 -22 q-31 2 -32 22 q0 26 16 57 q28 43 49 49 q17 -16 33 -17 q23 0 62 7 l121 19 q32 3 80 6 q68 2 86 2 ZM481 538 q11 -3 29 -18 q6 -11 32 -11 q155 6 205 34 q10 0 10 -8 q-5 -19 -12 -38 q-4 -25 -14 -36 q-7 -19 -43 -28 q-36 -11 -130 -15 q-112 0 -132 7 q-17 6 -17 23 q3 23 30 56 q29 29 42 34 ZM159 806 q38 -9 80 -48 q83 -80 86 -102 q0 -12 -8 -18 q-62 -43 -88 -49 q-15 0 -21 12 q-15 36 -30 84 q-15 36 -40 100 q0 21 21 21 ZM258 546 q104 0 107 -80 q-8 -52 -71 -235 q-37 -141 -39 -180 q0 -24 20 -27 q64 0 68 7 q13 4 23 12 q14 0 18 -12 q6 -10 6 -27 q0 -66 -106 -74 l-34 1 q-57 0 -91 31 q-31 26 -34 89 q1 82 129 385 q0 10 -9 10 q-45 -24 -153 -45 q-38 0 -38 24 q0 28 33 79 q28 28 30 28 q7 0 22 -12 q6 -9 16 -9 q31 4 103 35 Z" /><glyph glyph-name="" unicode="&#x6b64;" d="M470 768 q21 0 24 -19 q-19 -103 -33 -215 q65 21 86 36 q15 0 15 -13 l-11 -41 q-9 -37 -15 -45 q-9 -19 -54 -36 q-20 -10 -33 -14 q-13 -125 -19 -278 q35 10 68 21 q10 0 10 -7 q-16 -45 -29 -79 q-1 -39 -115 -67 q-248 -80 -298 -83 q-40 0 -40 36 q3 30 23 66 q6 10 22 30 q19 17 33 20 q0 -3 6 -3 l15 -5 q2 127 16 253 q13 95 48 169 q24 51 52 58 q14 0 20 -16 q-2 -19 -7 -123 q-8 -104 -8 -244 l1 -73 q2 1 7 2 l27 6 q27 397 137 620 q22 31 52 44 ZM933 604 q13 0 13 -12 q-3 -10 -9 -38 q-7 -34 -14 -41 q-14 -32 -96 -62 q-62 -29 -119 -43 l-7 -39 q-30 -189 -30 -280 q5 -36 28 -36 q48 -2 131 -2 q62 1 90 17 q22 16 34 16 q14 -6 18 -16 q0 -18 -7 -46 q-21 -67 -144 -70 l-207 -1 q-95 7 -95 145 q5 191 79 420 q55 160 117 235 q31 28 67 28 q11 -9 11 -23 q-29 -90 -59 -221 q155 44 199 69 Z" /><glyph glyph-name="" unicode="&#x6b21;" d="M273 271 q51 0 57 -26 q0 -14 -82 -107 l-69 -83 q-24 -30 -28 -31 q-16 0 -25 6 q-49 29 -85 95 q0 17 3 26 q17 22 120 76 q61 31 109 44 ZM617 796 q29 0 29 -17 q-6 -19 -66 -126 q116 36 179 36 q136 0 136 -138 l0 -188 q0 -24 -31 -24 q-25 -3 -121 -3 q-18 0 -18 22 q26 126 41 205 q-3 21 -23 21 l-24 -5 q-54 -149 -115 -330 l357 -211 q14 -9 14 -26 q-19 -37 -92 -93 q-16 -8 -28 -8 q-17 0 -111 80 l-182 135 q-43 -127 -69 -209 q0 -15 -21 -15 l-132 31 q-14 10 -14 31 q144 326 260 580 l-84 -26 q-48 -84 -78 -143 q-14 -26 -26 -26 q-13 0 -32 13 q-18 10 -71 44 q-10 6 -10 27 q9 28 53 99 q43 69 96 131 q98 115 183 133 ZM138 656 q110 -12 174 -70 q0 -3 3 -6 l0 -10 q-39 -72 -54 -84 q-5 -4 -14 -4 q-87 67 -191 131 q-8 5 -8 21 q9 22 90 22 Z" /><glyph glyph-name="" unicode="&#x4ece;" d="M791 778 q21 -3 21 -27 q-75 -206 -141 -398 l-8 -22 l289 -293 q14 -9 14 -26 q-19 -38 -90 -91 q-17 -7 -27 -7 q-14 0 -83 104 l-146 192 q-35 -101 -60 -185 q-32 -107 -37 -111 q-8 -10 -28 -10 q-51 6 -104 26 q-19 3 -22 19 q6 42 33 126 l20 53 q-8 -7 -24 -19 q-13 -7 -27 -7 q-7 0 -34 60 q-21 37 -43 79 q-34 -102 -57 -183 q-28 -100 -33 -105 q-10 -10 -28 -10 q-52 6 -105 26 q-18 3 -21 19 q7 43 31 119 q31 90 67 177 q160 373 270 472 q16 16 29 20 q22 -3 22 -27 q-84 -235 -130 -378 l-1 -3 l127 -132 l10 25 q172 396 287 496 q13 16 29 21 Z" /><glyph glyph-name="" unicode="&#x7c97;" d="M151 506 q14 -3 33 -21 q6 -11 38 -11 l8 0 q3 35 9 64 q-21 -13 -60 -27 q-11 0 -16 5 q-31 28 -41 105 q0 44 9 77 q9 34 25 34 q13 0 34 -42 q28 -57 58 -103 q16 89 35 140 q36 68 65 71 q14 -6 14 -54 q-5 -46 -10 -137 q18 19 43 43 q59 50 92 53 q13 0 13 -16 q-39 -83 -86 -173 q-6 -6 -12 -6 q-36 7 -55 16 q-3 -22 -3 -43 q85 8 121 22 q13 0 13 -10 q-6 -22 -16 -47 q-6 -30 -18 -45 q-9 -16 -51 -20 q-16 -4 -54 -7 l0 -12 q136 -124 139 -161 q0 -10 -3 -16 q0 -13 -79 -49 q-9 -6 -18 -6 q-7 3 -13 12 l-32 52 q-4 -125 -4 -266 q0 -15 -35 -15 l-83 0 q-18 3 -21 19 q3 133 12 247 q-9 -12 -33 -41 q-21 -26 -32 -41 q-8 -11 -18 -11 q-49 30 -90 80 q0 10 10 19 q79 96 178 183 q-105 0 -130 10 q-19 6 -19 25 q4 26 35 63 q29 32 48 40 ZM633 729 q9 -4 12 -23 q65 37 125 37 q77 -12 83 -106 l41 -581 l66 9 q16 0 16 -14 q-19 -44 -34 -72 q-9 -25 -43 -31 q-48 -19 -204 -25 q-50 0 -232 2 q-68 5 -82 16 q-26 12 -26 45 q9 26 28 45 q16 20 47 39 q11 0 17 2 q10 -5 22 -20 q4 -4 10 -4 q18 435 89 610 q36 67 65 71 ZM619 40 q34 -1 94 -1 q22 0 32 1 l0 163 l-10 -4 q-40 -23 -114 -35 q-2 -86 -2 -124 ZM624 271 q10 -5 30 -5 q37 2 79 21 q4 1 12 5 q-1 40 -1 118 q-48 -23 -116 -31 q-4 -76 -4 -108 ZM633 467 q4 -1 14 -1 q43 2 89 19 q4 0 8 3 l0 151 q-3 12 -23 15 q-32 -8 -79 -42 q-5 -65 -9 -145 Z" /><glyph glyph-name="" unicode="&#x6751;" d="M857 804 q17 -6 17 -60 q-5 -40 -10 -114 q65 6 97 16 q13 0 13 -10 q-9 -28 -16 -47 q-6 -31 -18 -44 q-14 -18 -77 -26 q-3 -1 -8 -1 q-2 -22 -4 -66 q-14 -269 -14 -522 q0 -18 -41 -18 l-97 0 q-21 3 -24 22 q12 352 53 574 q-45 -3 -95 -3 q-134 0 -161 9 q-20 6 -20 27 q5 30 37 68 q32 33 51 42 q14 -3 34 -21 q9 -13 53 -13 q50 0 126 4 q13 51 34 104 q39 75 70 79 ZM479 409 q43 -9 93 -50 q98 -85 101 -108 q0 -15 -9 -23 q-78 -54 -110 -60 q-21 0 -28 14 l-32 91 q-29 75 -43 109 q0 27 28 27 ZM186 642 q13 -3 32 -21 q6 -12 31 -12 l11 0 q14 58 34 110 q41 79 73 82 q17 -6 17 -62 q-9 -61 -14 -122 q57 6 82 16 q12 0 12 -9 l-14 -45 q-6 -31 -16 -42 q-7 -16 -40 -22 q-13 -4 -35 -6 l-5 -61 q-3 -24 -3 -48 q124 -126 127 -163 q0 -10 -3 -16 q0 -14 -80 -50 q-8 -7 -19 -7 q-9 5 -14 13 l-20 41 q-6 -156 -6 -291 q0 -17 -38 -17 l-90 0 q-19 3 -22 20 q5 153 15 279 l-61 -91 q-9 -12 -18 -12 q-49 30 -90 80 q0 11 10 20 q83 122 184 226 q4 30 11 70 q-95 0 -117 8 q-19 6 -19 27 q3 27 35 65 q29 32 50 40 Z" /><glyph glyph-name="" unicode="&#x5b58;" d="M912 724 q16 0 16 -13 q-12 -30 -32 -69 q-9 -23 -41 -29 q-93 -17 -438 -23 l-105 -144 q-7 -99 -9 -180 q0 -158 -8 -323 q0 -20 -22 -20 l-93 0 q-22 0 -22 22 q2 142 18 290 l-10 -15 q-9 -10 -28 -10 q-76 16 -101 41 q-7 5 -8 18 q15 34 86 127 q66 93 159 195 q-52 0 -79 1 q-63 3 -78 15 q-24 12 -24 43 q9 26 26 43 q15 19 44 37 q11 0 17 2 q7 -4 20 -18 q11 -10 56 -10 q66 -3 123 -3 q89 83 141 95 q18 -6 18 -29 q0 -14 -37 -66 q223 3 353 15 l58 8 ZM958 259 q14 0 14 -11 q-17 -40 -31 -66 q-7 -23 -38 -28 q-39 -14 -136 -21 q-19 -61 -68 -121 q-94 -90 -176 -99 q-28 0 -31 13 q-4 11 -4 32 q0 44 20 64 l47 24 q55 34 84 80 l-13 0 q-127 0 -209 1 q-59 3 -74 13 q-23 10 -23 41 q10 26 25 41 q15 19 43 35 q10 0 15 1 q7 -2 20 -17 q12 -9 53 -9 q93 -3 167 -3 q12 0 18 1 q-30 36 -145 54 q-11 12 -12 23 q24 38 77 74 q67 53 77 69 q0 10 -27 10 q-35 -4 -110 -26 q-113 -40 -140 -41 q-27 0 -27 24 q0 25 15 52 q26 41 41 47 q10 -6 14 -10 q12 -4 17 -5 q5 1 98 31 q114 29 195 29 q41 -5 59 -27 q21 -27 21 -55 q-3 -43 -154 -154 q95 -41 113 -89 q84 7 128 17 l57 6 Z" /><glyph glyph-name="" unicode="&#x9519;" d="M181 498 q9 -3 27 -19 q5 -12 29 -12 q137 3 188 22 q10 0 10 -8 q-4 -14 -12 -37 q-4 -22 -14 -35 q-8 -20 -37 -27 q-16 -6 -48 -9 q-9 -39 -15 -80 q85 9 127 28 q10 0 10 -8 q-3 -13 -12 -41 q-6 -28 -16 -39 q-9 -23 -49 -34 q-27 -9 -79 -15 q-16 -99 -16 -129 q0 -17 16 -17 q73 26 134 56 q7 0 7 -5 l-19 -77 q-8 -31 -55 -55 q-59 -34 -128 -34 q-88 0 -94 119 q0 40 27 137 q-72 1 -92 8 q-19 6 -19 27 q4 27 35 65 q29 32 50 40 q13 -3 32 -21 q5 -10 27 -12 q12 39 27 81 q-86 1 -107 9 q-16 6 -16 24 q5 26 31 60 q-8 2 -13 7 q-34 20 -69 43 q-11 6 -11 27 q5 17 37 66 q34 51 67 88 q69 77 128 89 q29 0 29 -17 q-3 -15 -45 -105 q8 -3 18 -3 q147 3 199 23 q10 0 10 -7 q-3 -19 -12 -41 q-6 -29 -16 -40 q-7 -19 -39 -28 q-28 -11 -115 -16 q-71 0 -95 2 l-22 -50 ZM803 324 q54 -3 79 -56 q32 -75 50 -328 q0 -22 -20 -22 l-114 0 q-19 0 -19 20 l-1 19 l-7 -3 q-79 -34 -160 -40 q-173 0 -173 113 q5 66 37 137 q29 65 81 126 q30 25 56 31 q29 -3 29 -25 q85 26 162 28 ZM617 0 q59 3 118 18 q19 4 41 12 q-1 28 -1 82 q-15 -6 -30 -9 q-56 -20 -155 -29 q-4 -26 -4 -36 q0 -38 31 -38 ZM623 212 q-2 -9 -14 -49 q6 -1 17 -1 q52 0 110 12 q26 4 38 8 l0 33 q0 18 -24 24 q-46 -2 -127 -27 ZM662 796 q15 0 15 -19 q-2 -62 -2 -92 q49 0 89 4 q38 110 75 110 q14 0 14 -17 q-2 -58 -2 -86 q36 3 81 11 q9 0 9 -12 l-26 -64 q-9 -23 -36 -26 l-32 -5 l-7 -146 q68 7 123 16 q11 0 11 -11 q-10 -21 -28 -65 q-9 -24 -38 -27 q-57 -12 -148 -18 q-106 -10 -287 -10 q-55 6 -55 39 q9 42 73 82 q10 0 14 1 q7 -3 17 -16 q6 -4 18 -6 q3 69 21 147 l-14 0 q-55 6 -55 39 q9 42 73 82 q10 0 14 1 q6 -3 12 -9 q36 97 71 97 ZM738 590 q-33 -3 -67 -3 l-9 -148 q38 2 55 4 q5 71 21 147 Z" /><glyph glyph-name="" unicode="&#x642d;" d="M134 672 q13 -3 32 -22 q3 -12 24 -12 l3 0 q14 54 31 95 q40 78 73 82 q16 -8 16 -62 q-7 -56 -11 -106 q31 5 47 12 q9 0 9 -8 l-11 -37 q-4 -24 -14 -35 q-6 -22 -27 -31 q-7 -4 -14 -5 q-6 -56 -8 -89 q-4 -64 -5 -95 q44 18 96 42 q15 0 15 -15 l-3 -20 q43 39 123 100 q95 71 164 95 q9 0 19 -2 q1 14 5 33 q-62 -8 -102 -10 l1 -45 q-3 -11 -19 -11 l-85 0 q-18 0 -20 15 q0 24 1 37 q-18 -1 -56 -1 q-58 9 -58 42 q9 44 78 86 q10 0 15 2 q8 -3 19 -17 q6 -5 19 -7 q15 42 46 73 q23 23 52 28 q15 0 19 -15 q-3 -12 -6 -55 q-3 -15 -3 -31 q50 2 128 13 l3 0 q13 29 29 49 q22 31 52 44 q21 0 24 -20 q-6 -31 -9 -59 q57 10 102 22 q10 0 10 -12 q-9 -20 -27 -64 q-9 -25 -38 -27 q-26 -9 -55 -15 q-3 -33 -3 -66 q0 -29 -25 -29 l-75 -2 q-10 0 -15 6 q-18 -27 -31 -43 q129 -54 292 -113 q15 -10 15 -23 q0 -7 -23 -33 q-13 -19 -31 -41 q-21 -27 -31 -27 q-9 0 -15 2 q-11 3 -77 42 l-5 -12 q-9 -21 -33 -24 q-38 -11 -79 -16 q-60 -9 -154 -9 q-44 6 -47 28 l-13 -15 q-36 -48 -44 -51 q-16 0 -24 5 q-42 26 -75 85 l0 3 q-21 -17 -51 -35 q-8 -155 -8 -326 q0 -18 -39 -18 l-92 0 q-21 3 -24 21 q4 142 15 265 q-25 -7 -55 -12 q-47 0 -47 43 q7 21 31 64 q15 23 26 26 q8 -2 26 -10 q11 0 29 6 q13 127 33 227 q-80 0 -101 8 q-19 6 -19 26 q4 27 35 65 q30 33 50 41 ZM545 331 q9 0 13 2 q4 -2 14 -14 q8 -7 41 -7 q48 0 99 9 q11 0 21 3 q-50 28 -129 77 l-26 -29 q-9 -12 -35 -42 l2 1 ZM557 208 q29 0 29 -26 l-7 -17 q117 29 169 33 q110 0 139 -100 q23 -64 28 -163 q-3 -17 -19 -17 l-111 0 q-15 0 -15 13 l0 14 q-129 -29 -262 -34 q-110 0 -122 70 q0 65 51 134 q65 77 120 93 ZM766 79 q-8 28 -51 28 q-26 0 -166 -27 q-9 -33 -12 -60 q0 -22 17 -22 q104 6 215 32 l-3 49 Z" /></font>
</defs>
</svg>
